<svg width="227" height="85" viewBox="0 0 227 85" fill="none" xmlns="http://www.w3.org/2000/svg">
<circle cx="42.7066" cy="42.3258" r="42.3258" fill="#144B51"/>
<path d="M4.19248 60.6736C4.48998 61.2885 4.80579 61.8989 5.13075 62.5002C6.11479 64.2994 7.22241 66.0213 8.44445 67.6474C8.8518 68.1895 9.27288 68.7224 9.70769 69.2463C10.7924 70.5536 11.9504 71.7925 13.1816 72.9632C13.4287 73.1955 13.6759 73.4278 13.9276 73.6556C21.4796 80.4882 31.5122 84.6515 42.5243 84.6515C49.8657 84.6515 56.7724 82.8022 62.7956 79.5453C66.1093 77.7551 69.1575 75.5368 71.8671 72.9678C72.3614 72.4986 72.842 72.0203 73.3088 71.5329C74.7185 70.0616 76.0184 68.4901 77.2038 66.8321C77.7988 66.003 78.3618 65.1512 78.8927 64.2767C82.8014 57.8768 85.0487 50.3655 85.0487 42.3303C85.0487 34.2952 82.7968 26.7838 78.8927 20.384C78.3618 19.5094 77.7942 18.6576 77.2038 17.8286C76.0184 16.1705 74.714 14.599 73.3088 13.1277C72.8374 12.6358 72.3568 12.1575 71.8671 11.6929C69.1575 9.12382 66.1093 6.90549 62.7956 5.11535C56.7769 1.84936 49.8703 0 42.5289 0C31.5168 0 21.4842 4.16334 13.9322 10.996C13.6805 11.2237 13.4333 11.456 13.1862 11.6883C11.955 12.8544 10.7924 14.098 9.71226 15.4053C9.27746 15.9291 8.85638 16.462 8.44903 17.0041C7.22241 18.6348 6.11479 20.3521 5.13533 22.1513C4.80579 22.7526 4.49455 23.3584 4.19705 23.9779C3.89955 24.5929 3.61578 25.2215 3.34574 25.8546C1.19 30.9153 0 36.4816 0 42.3258C0 48.1699 1.19 53.7362 3.34117 58.8015C3.6112 59.4346 3.89497 60.0587 4.19248 60.6782V60.6736ZM23.3882 31.3708C23.4934 31.0656 23.6445 30.765 23.7726 30.4689C24.0198 29.8904 24.2761 29.3119 24.5507 28.7425C27.7088 22.1422 34.7481 18.193 41.8149 17.1772C44.9684 16.7217 48.2043 16.8811 51.3029 17.6236C54.374 18.3615 57.2987 19.6688 59.8984 21.459C62.5439 23.281 64.8323 25.5995 66.6128 28.2688C67.2535 29.2299 67.8302 30.2366 68.3383 31.2797C68.5946 31.8081 68.8372 32.3501 69.0569 32.8968C69.1667 33.1655 69.2674 33.4343 69.3681 33.7076C69.4139 33.8351 69.7114 34.4227 69.6564 34.5366L69.5145 34.8008H67.2856C64.9559 28.697 60.6765 23.782 54.5891 21.2039C48.2135 18.5027 38.9864 18.5346 33.224 22.7982C31.7548 23.8868 30.5785 25.3034 29.567 26.8066C28.6654 28.1413 27.4571 29.731 26.9719 31.2706C26.8529 31.6487 26.5829 31.553 26.2167 31.5803C25.8917 31.6077 25.5668 31.6441 25.2464 31.6942C24.5644 31.8035 23.8916 31.9721 23.2188 32.1269C23.26 32.1178 23.3607 31.471 23.3973 31.3708H23.3882ZM16.6601 35.3201C21.7817 33.4661 27.2923 32.2636 32.6793 31.4255C37.9337 30.6056 43.4718 29.8266 48.7307 30.9472C52.3831 31.7215 55.0789 34.1266 58.1042 36.1035C65.4777 35.9805 72.8374 35.3793 80.1971 35.1925C80.1147 35.6344 79.7852 36.0261 79.3367 36.099C77.1489 36.4406 74.2883 36.2447 72.0044 36.3677C57.4864 37.1558 42.6708 38.0531 28.3679 40.7133C24.7979 41.3783 21.237 42.221 17.6944 43.0181C17.2368 42.9453 17.3695 42.6036 17.4793 42.2757C17.6533 41.7564 19.5161 38.5223 19.8593 38.249C20.4543 37.7752 22.2393 38.5132 23.0861 38.5815C27.2694 38.9231 32.8212 37.8572 37.119 37.5429C43.275 37.0874 49.4584 36.8642 55.6098 36.3632C55.802 36.3495 55.9897 36.4679 55.9348 36.1719C54.2916 34.8008 52.319 33.2429 50.1953 32.7464C47.44 32.1042 43.5175 32.6599 40.6615 32.9742C31.5031 33.9763 22.5185 36.2812 13.3189 36.887C14.1336 36.0762 15.557 35.7163 16.6601 35.3201ZM5.21313 52.1283C7.29564 51.6956 9.3278 51.4405 11.3233 51.3357C11.8177 49.8462 12.6095 47.4457 13.6759 46.9719C30.2902 44.0521 47.0052 40.2669 63.7568 38.2125C68.828 37.5885 73.9221 37.2423 79.0163 36.8916C79.149 37.0191 77.3137 39.6975 77.1031 40.0118C74.3203 44.2207 71.2812 48.9716 68.1277 52.8753C65.5006 56.1276 64.6081 56.7654 60.3286 57.2482C54.9873 57.854 50.1449 57.1389 44.9959 55.8042C34.9907 53.2124 26.949 48.0378 16.0422 50.1104C14.8201 50.3427 13.6484 50.7572 12.5271 51.2856C24.1891 50.9667 34.6062 55.4034 46.0486 57.608C57.555 59.8218 68.9928 59.9129 80.0095 56.5558C79.4511 58.0089 78.8103 59.4164 78.0917 60.7829C71.4231 63.5661 63.7842 64.6684 55.2482 63.1652C49.5637 62.1631 44.3414 60.2044 39.1466 58.2959C38.7896 58.5145 38.8811 58.4781 39.1511 58.683C39.8102 59.175 41.5769 59.9812 42.4465 60.4094C47.3942 62.8646 52.914 64.9463 58.9006 65.4701C58.8228 65.6751 58.1958 65.8026 57.944 65.8664C49.3348 68.0483 38.2357 67.0279 29.9835 64.4498C23.1318 62.3043 13.7903 56.6287 6.00494 58.8425C5.6159 57.9952 5.2589 57.1343 4.92936 56.2597C7.01187 55.3715 9.24999 54.7201 11.3142 54.3785C11.3462 54.1872 10.8519 54.1462 10.6826 54.1325C8.54515 53.9594 6.3711 54.046 4.27028 54.3603C4.07348 53.7408 3.8904 53.1167 3.72563 52.4881C4.21536 52.356 4.70967 52.2331 5.20856 52.1283H5.21313Z" fill="white"/>
<path d="M4.19248 60.6736C4.48998 61.2885 4.80579 61.8989 5.13075 62.5002C6.11479 64.2994 7.22241 66.0213 8.44445 67.6474C8.8518 68.1895 9.27288 68.7224 9.70769 69.2463C10.7924 70.5536 11.9504 71.7925 13.1816 72.9632C13.4287 73.1955 13.6759 73.4278 13.9276 73.6556C21.4796 80.4882 31.5122 84.6515 42.5243 84.6515C49.8657 84.6515 56.7724 82.8022 62.7956 79.5453C66.1093 77.7551 69.1575 75.5368 71.8671 72.9678C72.3614 72.4986 72.842 72.0203 73.3088 71.5329C74.7185 70.0616 76.0184 68.4901 77.2038 66.8321C77.7988 66.003 78.3618 65.1512 78.8927 64.2767C82.8014 57.8768 85.0487 50.3655 85.0487 42.3303C85.0487 34.2952 82.7968 26.7838 78.8927 20.384C78.3618 19.5094 77.7942 18.6576 77.2038 17.8286C76.0184 16.1705 74.714 14.599 73.3088 13.1277C72.8374 12.6358 72.3568 12.1575 71.8671 11.6929C69.1575 9.12382 66.1093 6.90549 62.7956 5.11535C56.7769 1.84936 49.8703 0 42.5289 0C31.5168 0 21.4842 4.16334 13.9322 10.996C13.6805 11.2237 13.4333 11.456 13.1862 11.6883C11.955 12.8544 10.7924 14.098 9.71226 15.4053C9.27746 15.9291 8.85638 16.462 8.44903 17.0041C7.22241 18.6348 6.11479 20.3521 5.13533 22.1513C4.80579 22.7526 4.49455 23.3584 4.19705 23.9779C3.89955 24.5929 3.61578 25.2215 3.34574 25.8546C1.19 30.9153 0 36.4816 0 42.3258C0 48.1699 1.19 53.7362 3.34117 58.8015C3.6112 59.4346 3.89497 60.0587 4.19248 60.6782V60.6736ZM23.3882 31.3708C23.4934 31.0656 23.6445 30.765 23.7726 30.4689C24.0198 29.8904 24.2761 29.3119 24.5507 28.7425C27.7088 22.1422 34.7481 18.193 41.8149 17.1772C44.9684 16.7217 48.2043 16.8811 51.3029 17.6236C54.374 18.3615 57.2987 19.6688 59.8984 21.459C62.5439 23.281 64.8323 25.5995 66.6128 28.2688C67.2535 29.2299 67.8302 30.2366 68.3383 31.2797C68.5946 31.8081 68.8372 32.3501 69.0569 32.8968C69.1667 33.1655 69.2674 33.4343 69.3681 33.7076C69.4139 33.8351 69.7114 34.4227 69.6564 34.5366L69.5145 34.8008H67.2856C64.9559 28.697 60.6765 23.782 54.5891 21.2039C48.2135 18.5027 38.9864 18.5346 33.224 22.7982C31.7548 23.8868 30.5785 25.3034 29.567 26.8066C28.6654 28.1413 27.4571 29.731 26.9719 31.2706C26.8529 31.6487 26.5829 31.553 26.2167 31.5803C25.8917 31.6077 25.5668 31.6441 25.2464 31.6942C24.5644 31.8035 23.8916 31.9721 23.2188 32.1269C23.26 32.1178 23.3607 31.471 23.3973 31.3708H23.3882ZM16.6601 35.3201C21.7817 33.4661 27.2923 32.2636 32.6793 31.4255C37.9337 30.6056 43.4718 29.8266 48.7307 30.9472C52.3831 31.7215 55.0789 34.1266 58.1042 36.1035C65.4777 35.9805 72.8374 35.3793 80.1971 35.1925C80.1147 35.6344 79.7852 36.0261 79.3367 36.099C77.1489 36.4406 74.2883 36.2447 72.0044 36.3677C57.4864 37.1558 42.6708 38.0531 28.3679 40.7133C24.7979 41.3783 21.237 42.221 17.6944 43.0181C17.2368 42.9453 17.3695 42.6036 17.4793 42.2757C17.6533 41.7564 19.5161 38.5223 19.8593 38.249C20.4543 37.7752 22.2393 38.5132 23.0861 38.5815C27.2694 38.9231 32.8212 37.8572 37.119 37.5429C43.275 37.0874 49.4584 36.8642 55.6098 36.3632C55.802 36.3495 55.9897 36.4679 55.9348 36.1719C54.2916 34.8008 52.319 33.2429 50.1953 32.7464C47.44 32.1042 43.5175 32.6599 40.6615 32.9742C31.5031 33.9763 22.5185 36.2812 13.3189 36.887C14.1336 36.0762 15.557 35.7163 16.6601 35.3201ZM5.21313 52.1283C7.29564 51.6956 9.3278 51.4405 11.3233 51.3357C11.8177 49.8462 12.6095 47.4457 13.6759 46.9719C30.2902 44.0521 47.0052 40.2669 63.7568 38.2125C68.828 37.5885 73.9221 37.2423 79.0163 36.8916C79.149 37.0191 77.3137 39.6975 77.1031 40.0118C74.3203 44.2207 71.2812 48.9716 68.1277 52.8753C65.5006 56.1276 64.6081 56.7654 60.3286 57.2482C54.9873 57.854 50.1449 57.1389 44.9959 55.8042C34.9907 53.2124 26.949 48.0378 16.0422 50.1104C14.8201 50.3427 13.6484 50.7572 12.5271 51.2856C24.1891 50.9667 34.6062 55.4034 46.0486 57.608C57.555 59.8218 68.9928 59.9129 80.0095 56.5558C79.4511 58.0089 78.8103 59.4164 78.0917 60.7829C71.4231 63.5661 63.7842 64.6684 55.2482 63.1652C49.5637 62.1631 44.3414 60.2044 39.1466 58.2959C38.7896 58.5145 38.8811 58.4781 39.1511 58.683C39.8102 59.175 41.5769 59.9812 42.4465 60.4094C47.3942 62.8646 52.914 64.9463 58.9006 65.4701C58.8228 65.6751 58.1958 65.8026 57.944 65.8664C49.3348 68.0483 38.2357 67.0279 29.9835 64.4498C23.1318 62.3043 13.7903 56.6287 6.00494 58.8425C5.6159 57.9952 5.2589 57.1343 4.92936 56.2597C7.01187 55.3715 9.24999 54.7201 11.3142 54.3785C11.3462 54.1872 10.8519 54.1462 10.6826 54.1325C8.54515 53.9594 6.3711 54.046 4.27028 54.3603C4.07348 53.7408 3.8904 53.1167 3.72563 52.4881C4.21536 52.356 4.70967 52.2331 5.20856 52.1283H5.21313Z" fill="#F2EAD6" fill-opacity="0.5"/>
<path d="M134.652 52.5C132.597 51.8027 131.767 51.3015 130.538 49.3951L115.259 13.5005C114.216 13.4955 113.18 16.441 112.732 17.4175C107.867 28.0234 104.229 39.217 99.2287 49.773C98.0799 51.6092 97.4147 51.848 95.4952 52.5C94.9061 52.7003 94.4162 52.167 94.6075 53.3003H105.22C105.406 52.0202 104.181 52.8617 103.302 51.9971C102.85 51.553 102.554 50.7618 102.58 50.1156C102.689 47.3917 105.777 43.1013 106.314 40.2588L120.385 40.2198C121.486 42.3582 125.284 49.3566 124.36 51.3944C123.792 52.6446 122.169 52.0406 122.275 53.2999H135.54C135.731 52.1665 135.242 52.6999 134.652 52.4996L134.652 52.5ZM107.493 38.1399L113.368 22.6083L119.621 38.1399H107.493Z" fill="white"/>
<path d="M134.652 52.5C132.597 51.8027 131.767 51.3015 130.538 49.3951L115.259 13.5005C114.216 13.4955 113.18 16.441 112.732 17.4175C107.867 28.0234 104.229 39.217 99.2287 49.773C98.0799 51.6092 97.4147 51.848 95.4952 52.5C94.9061 52.7003 94.4162 52.167 94.6075 53.3003H105.22C105.406 52.0202 104.181 52.8617 103.302 51.9971C102.85 51.553 102.554 50.7618 102.58 50.1156C102.689 47.3917 105.777 43.1013 106.314 40.2588L120.385 40.2198C121.486 42.3582 125.284 49.3566 124.36 51.3944C123.792 52.6446 122.169 52.0406 122.275 53.2999H135.54C135.731 52.1665 135.242 52.6999 134.652 52.4996L134.652 52.5ZM107.493 38.1399L113.368 22.6083L119.621 38.1399H107.493Z" fill="#F2EAD6" fill-opacity="0.5"/>
<path d="M151.921 52.5091L149.606 51.7465C149.143 51.471 148.776 51.0591 148.56 50.5656C148.235 49.8233 148.083 49.0353 148.032 48.1988C148.003 47.7379 147.978 47.2091 147.955 46.6232V25.0639C148.005 23.1158 148.068 21.2407 148.145 19.5215C148.182 18.689 148.256 17.8589 148.575 17.089L148.832 16.4713C148.921 16.2574 149.099 16.093 149.319 16.0204L151.129 15.4246C151.521 15.2959 151.795 14.9415 151.821 14.5301L151.838 14.2627H138.573L138.598 14.5668C138.622 14.8613 138.816 15.1142 139.094 15.2143L141.442 16.0603C141.67 16.1423 141.865 16.2946 142 16.494C142.526 17.2661 142.779 18.0179 142.761 18.9804C142.653 24.6402 142.761 39.0534 142.707 49.2859C142.366 51.7152 141.418 51.8339 139.46 52.5001C138.872 52.7003 138.381 52.1661 138.572 53.2999H152.216V52.9165C152.216 52.7312 152.098 52.5671 151.922 52.5091H151.921Z" fill="white"/>
<path d="M151.921 52.5091L149.606 51.7465C149.143 51.471 148.776 51.0591 148.56 50.5656C148.235 49.8233 148.083 49.0353 148.032 48.1988C148.003 47.7379 147.978 47.2091 147.955 46.6232V25.0639C148.005 23.1158 148.068 21.2407 148.145 19.5215C148.182 18.689 148.256 17.8589 148.575 17.089L148.832 16.4713C148.921 16.2574 149.099 16.093 149.319 16.0204L151.129 15.4246C151.521 15.2959 151.795 14.9415 151.821 14.5301L151.838 14.2627H138.573L138.598 14.5668C138.622 14.8613 138.816 15.1142 139.094 15.2143L141.442 16.0603C141.67 16.1423 141.865 16.2946 142 16.494C142.526 17.2661 142.779 18.0179 142.761 18.9804C142.653 24.6402 142.761 39.0534 142.707 49.2859C142.366 51.7152 141.418 51.8339 139.46 52.5001C138.872 52.7003 138.381 52.1661 138.572 53.2999H152.216V52.9165C152.216 52.7312 152.098 52.5671 151.922 52.5091H151.921Z" fill="#F2EAD6" fill-opacity="0.5"/>
<path d="M173.695 51.717C171.014 50.1093 168.762 48.163 166.608 45.9195C165.165 44.4164 154.939 32.4153 154.848 31.4886C154.816 31.1578 154.874 30.8478 155.056 30.5669C158.536 26.8556 161.629 22.2748 165.092 18.6111C167.158 16.4256 167.989 15.2465 170.996 15.0244C171.385 14.9954 172.111 15.4295 171.924 14.2627H159.796C159.59 15.5827 161.231 14.7158 161.631 16.0472C161.824 16.6893 161.705 17.3631 161.395 17.9486L149.616 33.3356C154.871 39.4318 159.231 46.5584 165.368 51.7818C165.63 52.0057 165.927 52.186 166.248 52.3147C167.232 52.709 168.995 53.3003 169.46 53.3003H176.093C176.306 52.1652 174.569 52.2409 173.695 51.717Z" fill="white"/>
<path d="M173.695 51.717C171.014 50.1093 168.762 48.163 166.608 45.9195C165.165 44.4164 154.939 32.4153 154.848 31.4886C154.816 31.1578 154.874 30.8478 155.056 30.5669C158.536 26.8556 161.629 22.2748 165.092 18.6111C167.158 16.4256 167.989 15.2465 170.996 15.0244C171.385 14.9954 172.111 15.4295 171.924 14.2627H159.796C159.59 15.5827 161.231 14.7158 161.631 16.0472C161.824 16.6893 161.705 17.3631 161.395 17.9486L149.616 33.3356C154.871 39.4318 159.231 46.5584 165.368 51.7818C165.63 52.0057 165.927 52.186 166.248 52.3147C167.232 52.709 168.995 53.3003 169.46 53.3003H176.093C176.306 52.1652 174.569 52.2409 173.695 51.717Z" fill="#F2EAD6" fill-opacity="0.5"/>
<path d="M208.249 13.2699C206.873 13.7258 205.399 14.1549 203.964 14.2764C200.806 14.5428 196.33 14.677 191.835 14.6801C187.34 14.6765 182.864 14.5428 179.706 14.2764C178.243 14.1527 176.738 13.709 175.339 13.2432C175.152 13.1811 174.953 13.2989 174.919 13.4929C174.514 15.7767 174.32 18.3701 174.931 20.586C175.086 21.1524 174.759 21.5358 175.4 21.5022C175.566 21.4936 175.685 21.3337 175.644 21.1719C175.11 19.0217 177.933 16.5367 179.719 16.5367H189.384V49.6997C189.384 50.4315 188.453 51.3682 188.228 51.5753C187.331 52.4005 185.473 52.1127 185.594 53.3004H198.075C198.197 52.1127 196.338 52.4009 195.441 51.5753C195.217 51.3682 194.285 50.5149 194.285 49.6997V16.5367H203.95C205.72 16.5367 208.507 18.9769 208.039 21.113C207.995 21.3128 208.142 21.505 208.346 21.5045C208.884 21.5027 208.589 21.1284 208.739 20.586C209.342 18.3982 209.16 15.8425 208.766 13.5799C208.724 13.3402 208.48 13.1934 208.249 13.2699Z" fill="white"/>
<path d="M208.249 13.2699C206.873 13.7258 205.399 14.1549 203.964 14.2764C200.806 14.5428 196.33 14.677 191.835 14.6801C187.34 14.6765 182.864 14.5428 179.706 14.2764C178.243 14.1527 176.738 13.709 175.339 13.2432C175.152 13.1811 174.953 13.2989 174.919 13.4929C174.514 15.7767 174.32 18.3701 174.931 20.586C175.086 21.1524 174.759 21.5358 175.4 21.5022C175.566 21.4936 175.685 21.3337 175.644 21.1719C175.11 19.0217 177.933 16.5367 179.719 16.5367H189.384V49.6997C189.384 50.4315 188.453 51.3682 188.228 51.5753C187.331 52.4005 185.473 52.1127 185.594 53.3004H198.075C198.197 52.1127 196.338 52.4009 195.441 51.5753C195.217 51.3682 194.285 50.5149 194.285 49.6997V16.5367H203.95C205.72 16.5367 208.507 18.9769 208.039 21.113C207.995 21.3128 208.142 21.505 208.346 21.5045C208.884 21.5027 208.589 21.1284 208.739 20.586C209.342 18.3982 209.16 15.8425 208.766 13.5799C208.724 13.3402 208.48 13.1934 208.249 13.2699Z" fill="#F2EAD6" fill-opacity="0.5"/>
<path d="M226.472 53.2822C226.714 52.2019 225.36 52.4873 224.549 52.1162L224.082 51.8325C223.019 51.0631 222.597 49.8251 222.333 48.5291C222.443 46.2887 222.408 43.9976 222.3 41.6825V19.9347C222.375 19.2586 222.398 18.5766 222.353 17.8842C222.7 15.6932 224.088 15.7195 225.589 15.0575C226.05 14.8545 226.267 15.2342 226.122 14.2622H213.203C213.058 15.2347 213.275 14.8549 213.735 15.0575C215.237 15.7195 216.625 15.6928 216.971 17.8842C216.988 17.9418 217.007 18.0075 217.029 18.0795V41.5697C216.918 43.9233 216.879 46.252 216.992 48.5287C216.727 49.8246 216.305 51.0631 215.243 51.8321L214.775 52.1158C213.964 52.4869 212.61 52.2014 212.853 53.2817L212.823 53.2994H226.5L226.471 53.2817L226.472 53.2822Z" fill="white"/>
<path d="M226.472 53.2822C226.714 52.2019 225.36 52.4873 224.549 52.1162L224.082 51.8325C223.019 51.0631 222.597 49.8251 222.333 48.5291C222.443 46.2887 222.408 43.9976 222.3 41.6825V19.9347C222.375 19.2586 222.398 18.5766 222.353 17.8842C222.7 15.6932 224.088 15.7195 225.589 15.0575C226.05 14.8545 226.267 15.2342 226.122 14.2622H213.203C213.058 15.2347 213.275 14.8549 213.735 15.0575C215.237 15.7195 216.625 15.6928 216.971 17.8842C216.988 17.9418 217.007 18.0075 217.029 18.0795V41.5697C216.918 43.9233 216.879 46.252 216.992 48.5287C216.727 49.8246 216.305 51.0631 215.243 51.8321L214.775 52.1158C213.964 52.4869 212.61 52.2014 212.853 53.2817L212.823 53.2994H226.5L226.471 53.2817L226.472 53.2822Z" fill="#F2EAD6" fill-opacity="0.5"/>
<path d="M221.475 59.6273C222.809 59.6117 224.06 60.0782 225.227 61.0268L224.36 62.0666C223.5 61.2587 222.546 60.8548 221.498 60.8548C220.722 60.8548 220.14 61.0268 219.755 61.3708C219.395 61.6731 219.215 62.0952 219.215 62.6373C219.215 63.1429 219.437 63.5312 219.88 63.8022C220.266 64.0419 220.925 64.2973 221.858 64.5684C222.931 64.8654 223.708 65.1834 224.188 65.5222C225.037 66.1372 225.462 66.9346 225.462 67.9145C225.462 68.8944 225.071 69.684 224.289 70.2834C223.544 70.8411 222.606 71.1199 221.475 71.1199C219.901 71.1199 218.488 70.5935 217.237 69.5407L218.105 68.5008C219.132 69.4234 220.271 69.8846 221.522 69.8846C222.319 69.8846 222.929 69.7257 223.351 69.4077C223.804 69.0481 224.031 68.5738 224.031 67.9849C224.026 67.4272 223.791 66.9894 223.328 66.6714C222.963 66.4265 222.322 66.1711 221.404 65.9052C220.279 65.5873 219.499 65.285 219.067 64.9984C218.207 64.4042 217.777 63.638 217.777 62.6998C217.777 61.7929 218.113 61.0554 218.785 60.4873C219.463 59.914 220.359 59.6273 221.475 59.6273Z" fill="white"/>
<path d="M221.475 59.6273C222.809 59.6117 224.06 60.0782 225.227 61.0268L224.36 62.0666C223.5 61.2587 222.546 60.8548 221.498 60.8548C220.722 60.8548 220.14 61.0268 219.755 61.3708C219.395 61.6731 219.215 62.0952 219.215 62.6373C219.215 63.1429 219.437 63.5312 219.88 63.8022C220.266 64.0419 220.925 64.2973 221.858 64.5684C222.931 64.8654 223.708 65.1834 224.188 65.5222C225.037 66.1372 225.462 66.9346 225.462 67.9145C225.462 68.8944 225.071 69.684 224.289 70.2834C223.544 70.8411 222.606 71.1199 221.475 71.1199C219.901 71.1199 218.488 70.5935 217.237 69.5407L218.105 68.5008C219.132 69.4234 220.271 69.8846 221.522 69.8846C222.319 69.8846 222.929 69.7257 223.351 69.4077C223.804 69.0481 224.031 68.5738 224.031 67.9849C224.026 67.4272 223.791 66.9894 223.328 66.6714C222.963 66.4265 222.322 66.1711 221.404 65.9052C220.279 65.5873 219.499 65.285 219.067 64.9984C218.207 64.4042 217.777 63.638 217.777 62.6998C217.777 61.7929 218.113 61.0554 218.785 60.4873C219.463 59.914 220.359 59.6273 221.475 59.6273Z" fill="#F2EAD6" fill-opacity="0.5"/>
<path d="M207.708 59.8384H209.006V69.8533H214.228V70.9244H207.708V59.8384Z" fill="white"/>
<path d="M207.708 59.8384H209.006V69.8533H214.228V70.9244H207.708V59.8384Z" fill="#F2EAD6" fill-opacity="0.5"/>
<path d="M198.93 59.8384H200.15L204.778 70.9244H203.386L202.19 68.0161H196.874L195.701 70.9244H194.286L198.93 59.8384ZM199.532 61.4802L197.32 66.9216H201.768L199.532 61.4802Z" fill="white"/>
<path d="M198.93 59.8384H200.15L204.778 70.9244H203.386L202.19 68.0161H196.874L195.701 70.9244H194.286L198.93 59.8384ZM199.532 61.4802L197.32 66.9216H201.768L199.532 61.4802Z" fill="#F2EAD6" fill-opacity="0.5"/>
<path d="M184.022 59.8384H192.599V60.9095H188.948V70.9244H187.658V60.9095H184.022V59.8384Z" fill="white"/>
<path d="M184.022 59.8384H192.599V60.9095H188.948V70.9244H187.658V60.9095H184.022V59.8384Z" fill="#F2EAD6" fill-opacity="0.5"/>
<path d="M171.695 59.8384H172.993L179.404 68.8604V59.8384H180.702V70.9244H179.404L172.993 61.8789V70.9244H171.695V59.8384Z" fill="white"/>
<path d="M171.695 59.8384H172.993L179.404 68.8604V59.8384H180.702V70.9244H179.404L172.993 61.8789V70.9244H171.695V59.8384Z" fill="#F2EAD6" fill-opacity="0.5"/>
<path d="M160.946 59.8384H168.209V60.9095H162.244V64.6387H167.709V65.7019H162.244V69.8533H168.209V70.9244H160.946V59.8384Z" fill="white"/>
<path d="M160.946 59.8384H168.209V60.9095H162.244V64.6387H167.709V65.7019H162.244V69.8533H168.209V70.9244H160.946V59.8384Z" fill="#F2EAD6" fill-opacity="0.5"/>
<path d="M151.246 60.9095V65.0296H154.029C154.623 65.0296 155.116 64.8446 155.507 64.4745C155.898 64.0992 156.093 63.5989 156.093 62.9734C156.093 62.3428 155.898 61.8424 155.507 61.4724C155.116 61.0971 154.623 60.9095 154.029 60.9095H151.246ZM156.257 70.9244L153.326 66.1007H151.246V70.9244H149.948V59.8384H154.303C155.199 59.8384 155.95 60.1198 156.555 60.6827C157.159 61.2456 157.461 62.0092 157.461 62.9734C157.461 63.922 157.159 64.6673 156.555 65.2094C156.065 65.6576 155.478 65.9313 154.795 66.0303L157.852 70.9244H156.257Z" fill="white"/>
<path d="M151.246 60.9095V65.0296H154.029C154.623 65.0296 155.116 64.8446 155.507 64.4745C155.898 64.0992 156.093 63.5989 156.093 62.9734C156.093 62.3428 155.898 61.8424 155.507 61.4724C155.116 61.0971 154.623 60.9095 154.029 60.9095H151.246ZM156.257 70.9244L153.326 66.1007H151.246V70.9244H149.948V59.8384H154.303C155.199 59.8384 155.95 60.1198 156.555 60.6827C157.159 61.2456 157.461 62.0092 157.461 62.9734C157.461 63.922 157.159 64.6673 156.555 65.2094C156.065 65.6576 155.478 65.9313 154.795 66.0303L157.852 70.9244H156.257Z" fill="#F2EAD6" fill-opacity="0.5"/>
<path d="M133.191 59.8384H141.768V60.9095H138.117V70.9244H136.827V60.9095H133.191V59.8384Z" fill="white"/>
<path d="M133.191 59.8384H141.768V60.9095H138.117V70.9244H136.827V60.9095H133.191V59.8384Z" fill="#F2EAD6" fill-opacity="0.5"/>
<path d="M126.391 59.8384H127.611L132.239 70.9244H130.847L129.651 68.0161H124.335L123.162 70.9244H121.747L126.391 59.8384ZM126.993 61.4802L124.78 66.9216H129.229L126.993 61.4802Z" fill="white"/>
<path d="M126.391 59.8384H127.611L132.239 70.9244H130.847L129.651 68.0161H124.335L123.162 70.9244H121.747L126.391 59.8384ZM126.993 61.4802L124.78 66.9216H129.229L126.993 61.4802Z" fill="#F2EAD6" fill-opacity="0.5"/>
<path d="M117.902 61.2771C118.934 62.3612 119.45 63.7319 119.45 65.3894C119.45 67.0468 118.929 68.4176 117.887 69.5017C116.849 70.5806 115.536 71.12 113.946 71.12C112.362 71.12 111.048 70.5806 110.006 69.5017C108.964 68.4176 108.442 67.0468 108.442 65.3894C108.442 63.7319 108.964 62.3586 110.006 61.2692C111.048 60.1747 112.362 59.6274 113.946 59.6274C115.536 59.6274 116.855 60.1773 117.902 61.2771ZM109.842 65.3894C109.842 66.708 110.222 67.7817 110.983 68.6104C111.739 69.4391 112.727 69.8535 113.946 69.8535C115.166 69.8535 116.154 69.4391 116.909 68.6104C117.67 67.7817 118.051 66.708 118.051 65.3894C118.051 64.0707 117.673 62.997 116.917 62.1683C116.161 61.3396 115.171 60.9252 113.946 60.9252C112.701 60.9252 111.705 61.3396 110.96 62.1683C110.214 62.997 109.842 64.0707 109.842 65.3894Z" fill="white"/>
<path d="M117.902 61.2771C118.934 62.3612 119.45 63.7319 119.45 65.3894C119.45 67.0468 118.929 68.4176 117.887 69.5017C116.849 70.5806 115.536 71.12 113.946 71.12C112.362 71.12 111.048 70.5806 110.006 69.5017C108.964 68.4176 108.442 67.0468 108.442 65.3894C108.442 63.7319 108.964 62.3586 110.006 61.2692C111.048 60.1747 112.362 59.6274 113.946 59.6274C115.536 59.6274 116.855 60.1773 117.902 61.2771ZM109.842 65.3894C109.842 66.708 110.222 67.7817 110.983 68.6104C111.739 69.4391 112.727 69.8535 113.946 69.8535C115.166 69.8535 116.154 69.4391 116.909 68.6104C117.67 67.7817 118.051 66.708 118.051 65.3894C118.051 64.0707 117.673 62.997 116.917 62.1683C116.161 61.3396 115.171 60.9252 113.946 60.9252C112.701 60.9252 111.705 61.3396 110.96 62.1683C110.214 62.997 109.842 64.0707 109.842 65.3894Z" fill="#F2EAD6" fill-opacity="0.5"/>
<path d="M102.361 59.8384C103.138 59.8384 103.802 60.112 104.355 60.6593C104.912 61.2065 105.191 61.8685 105.191 62.6451C105.191 63.1767 105.058 63.6666 104.793 64.1149C104.532 64.5631 104.178 64.9019 103.729 65.1312C104.292 65.3658 104.743 65.7306 105.082 66.2257C105.421 66.7209 105.59 67.2838 105.59 67.9145C105.59 68.7432 105.301 69.452 104.722 70.041C104.144 70.6299 103.44 70.9244 102.611 70.9244H97.1855V59.8384H102.361ZM101.962 60.9095H98.4833V64.6387H101.962C102.478 64.6387 102.919 64.4563 103.284 64.0914C103.648 63.7266 103.831 63.2888 103.831 62.778C103.831 62.262 103.648 61.8216 103.284 61.4567C102.919 61.0919 102.478 60.9095 101.962 60.9095ZM98.4833 65.7019V69.8533H102.189C102.752 69.8533 103.237 69.6527 103.643 69.2513C104.05 68.8448 104.253 68.3497 104.253 67.7659C104.253 67.203 104.05 66.7183 103.643 66.3117C103.237 65.9052 102.752 65.7019 102.189 65.7019H98.4833Z" fill="white"/>
<path d="M102.361 59.8384C103.138 59.8384 103.802 60.112 104.355 60.6593C104.912 61.2065 105.191 61.8685 105.191 62.6451C105.191 63.1767 105.058 63.6666 104.793 64.1149C104.532 64.5631 104.178 64.9019 103.729 65.1312C104.292 65.3658 104.743 65.7306 105.082 66.2257C105.421 66.7209 105.59 67.2838 105.59 67.9145C105.59 68.7432 105.301 69.452 104.722 70.041C104.144 70.6299 103.44 70.9244 102.611 70.9244H97.1855V59.8384H102.361ZM101.962 60.9095H98.4833V64.6387H101.962C102.478 64.6387 102.919 64.4563 103.284 64.0914C103.648 63.7266 103.831 63.2888 103.831 62.778C103.831 62.262 103.648 61.8216 103.284 61.4567C102.919 61.0919 102.478 60.9095 101.962 60.9095ZM98.4833 65.7019V69.8533H102.189C102.752 69.8533 103.237 69.6527 103.643 69.2513C104.05 68.8448 104.253 68.3497 104.253 67.7659C104.253 67.203 104.05 66.7183 103.643 66.3117C103.237 65.9052 102.752 65.7019 102.189 65.7019H98.4833Z" fill="#F2EAD6" fill-opacity="0.5"/>
</svg>
