<svg width="246" height="98" viewBox="0 0 246 98" fill="none" xmlns="http://www.w3.org/2000/svg">
<g clip-path="url(#clip0_4_2328)">
<path d="M119.58 48.8186H137.861L141.347 57.2263H150.91L133.306 17.9917H124.306L106.758 57.2263H116.094L119.58 48.8186ZM128.749 26.9033L134.992 41.9246H122.506L128.749 26.9033Z" fill="white"/>
<path d="M164.066 47.3048L169.353 41.8128L181.953 57.2263H192.584L175.317 35.4775L191.626 17.9917H181.503L164.066 36.3208V17.9917H155.012V57.2263H164.066V47.3048Z" fill="white"/>
<path d="M207.943 57.2263H217.055V25.3896H229.653V17.9917H195.345V25.3896H207.943V57.2263Z" fill="white"/>
<path d="M245.998 17.9917H236.886V57.2263H245.998V17.9917Z" fill="white"/>
<path d="M118.044 73.1059C118.044 71.5648 117.164 70.5127 115.793 70.0742C116.796 69.5472 117.429 68.6027 117.429 67.3757C117.429 65.4656 115.846 64.188 112.77 64.188H106.758V76.4517H113.121C116.356 76.4517 118.044 75.2247 118.044 73.1059ZM109.588 66.3258H112.419C113.807 66.3258 114.564 66.798 114.564 67.7615C114.564 68.7249 113.809 69.2162 112.419 69.2162H109.588V66.3258ZM109.588 74.3139V71.2823H112.91C114.387 71.2823 115.178 71.7735 115.178 72.8065C115.178 73.8396 114.387 74.3139 112.91 74.3139H109.588Z" fill="#F2992F"/>
<path d="M119.432 70.3187C119.432 73.9638 122.28 76.6603 126.166 76.6603C130.052 76.6603 132.9 73.9786 132.9 70.3187C132.9 66.6588 130.033 63.9771 126.166 63.9771C122.299 63.9771 119.432 66.6756 119.432 70.3187ZM130.014 70.3187C130.014 72.6483 128.362 74.2442 126.164 74.2442C123.966 74.2442 122.314 72.6504 122.314 70.3187C122.314 67.987 123.966 66.3931 126.164 66.3931C128.362 66.3931 130.014 67.987 130.014 70.3187Z" fill="#F2992F"/>
<path d="M138.734 64.188L133.249 76.4517H136.166L137.256 73.8227H142.97L144.059 76.4517H147.049L141.546 64.188H138.732H138.734ZM138.172 71.6681L140.122 66.973L142.075 71.6681H138.172Z" fill="#F2992F"/>
<path d="M153.114 76.4517V66.5007H157.051V64.188H146.327V66.5007H150.264V76.4517H153.114Z" fill="#F2992F"/>
<path d="M174.225 68.6385C174.225 65.8872 172.169 64.188 168.881 64.188H163.554V76.4517H166.402V73.0363H169.021L171.394 76.4517H174.454L171.693 72.5093C173.292 71.8262 174.225 70.4769 174.225 68.6385ZM168.723 70.7763H166.402V66.5007H168.723C170.464 66.5007 171.342 67.2892 171.342 68.6385C171.342 69.9878 170.462 70.7763 168.723 70.7763Z" fill="#F2992F"/>
<path d="M185.774 66.4649V64.188H176.474V76.4517H186.003V74.1748H179.305V71.3371H185.019V69.1276H179.305V66.4649H185.774Z" fill="#F2992F"/>
<path d="M190.625 64.188H188.271V76.4517H191.082V69.0053L197.217 76.4517H199.557V64.188H196.743V71.6343L190.625 64.188Z" fill="#F2992F"/>
<path d="M207.871 76.4517V66.5007H211.808V64.188H201.084V66.5007H205.022V76.4517H207.871Z" fill="#F2992F"/>
<path d="M215.113 73.8247H220.827L221.916 76.4536H224.906L219.403 64.1899H216.589L211.104 76.4536H214.023L215.113 73.8247ZM217.979 66.9728L219.93 71.6679H216.027L217.979 66.9728Z" fill="#F2992F"/>
<path d="M226.188 64.188V76.4517H235.206V74.1389H229.035V64.188H226.188Z" fill="#F2992F"/>
<path d="M240.796 74.3853C239.319 74.3853 237.773 73.8583 236.734 73.1056L235.767 75.2434C236.857 76.0846 238.826 76.6623 240.777 76.6623C244.293 76.6623 245.998 74.9103 245.998 72.8611C245.998 68.3578 238.843 69.918 238.843 67.6579C238.843 66.8863 239.493 66.2559 241.181 66.2559C242.27 66.2559 243.449 66.5722 244.591 67.2194L245.471 65.0648C244.329 64.3458 242.746 63.979 241.2 63.979C237.701 63.979 236.013 65.7141 236.013 67.797C236.013 72.3509 243.167 70.776 243.167 73.0698C243.167 73.8224 242.482 74.3832 240.794 74.3832L240.796 74.3853Z" fill="#F2992F"/>
<path d="M4.84887 70.2449C5.19371 70.9596 5.55547 71.6637 5.93416 72.3573C7.07022 74.4403 8.35225 76.4326 9.76756 78.3195C10.2393 78.9477 10.7259 79.5654 11.2273 80.1705C12.4797 81.6821 13.821 83.12 15.2448 84.4714C15.5304 84.7412 15.8181 85.0089 16.1079 85.2725C24.841 93.1805 36.4385 98.0021 49.17 98.0021C57.6555 98.0021 65.6396 95.8601 72.6083 92.0885C76.4396 90.0139 79.9641 87.4461 83.0952 84.4714C83.6642 83.9295 84.2206 83.3772 84.7643 82.8079C86.3933 81.1066 87.8996 79.2872 89.2705 77.3665C89.9559 76.4052 90.6075 75.4206 91.2232 74.4087C95.7399 67.0003 98.342 58.3037 98.342 49C98.342 39.6963 95.7399 30.9997 91.2232 23.5913C90.6075 22.5815 89.9559 21.5948 89.2705 20.6335C87.8996 18.7128 86.3933 16.8934 84.7643 15.1921C84.2206 14.6249 83.6642 14.0705 83.0952 13.5287C79.9641 10.5539 76.4396 7.98606 72.6083 5.91154C65.6417 2.14198 57.6576 0 49.17 0C36.4406 0 24.841 4.81947 16.1079 12.7296C15.816 12.9932 15.5282 13.2609 15.2448 13.5308C13.821 14.8822 12.4797 16.32 11.2273 17.8316C10.7259 18.4367 10.2393 19.0544 9.76756 19.6826C8.35225 21.5695 7.07022 23.5618 5.93416 25.6448C5.55547 26.3384 5.19371 27.0426 4.84887 27.7573C4.50404 28.4719 4.17613 29.1951 3.86514 29.9288C1.37512 35.7897 0 42.2346 0 49C0 55.7654 1.37512 62.2103 3.86302 68.0734C4.17401 68.807 4.50192 69.5302 4.84676 70.2449H4.84887ZM27.0411 36.321C27.1639 35.9668 27.3352 35.621 27.4833 35.2753C27.771 34.6049 28.0651 33.9344 28.3803 33.2767C32.0318 25.6363 40.1682 21.0657 48.3385 19.8893C51.9858 19.3622 55.7282 19.5456 59.3099 20.4079C62.8598 21.2617 66.2447 22.7754 69.2467 24.8479C72.3037 26.9582 74.9523 29.642 77.0108 32.7306C77.7533 33.8438 78.4198 35.0096 79.0037 36.2135C79.3019 36.827 79.5791 37.4531 79.8329 38.0856C79.9578 38.3955 80.0784 38.7096 80.1926 39.0238C80.2476 39.1734 80.5903 39.8523 80.5247 39.983L80.3618 40.2908H77.7851C75.092 33.2239 70.1437 27.5338 63.1031 24.5506C55.7324 21.4262 45.0615 21.4599 38.4017 26.3953C36.7051 27.6539 35.3447 29.2942 34.1727 31.0356C33.1319 32.5809 31.7356 34.4193 31.1707 36.2029C31.0332 36.6393 30.7201 36.5276 30.2991 36.5634C29.9247 36.595 29.5502 36.6372 29.1779 36.6962C28.3888 36.8227 27.6102 37.0188 26.8317 37.1959C26.8825 37.1854 26.9967 36.439 27.0369 36.321H27.0411ZM19.2601 40.8896C25.1816 38.7434 31.5515 37.354 37.7819 36.38C43.8535 35.4334 50.2616 34.5311 56.3396 35.8255C60.5623 36.7236 63.6785 39.5044 67.1798 41.7961C75.7034 41.6506 84.2143 40.9591 92.7252 40.742C92.6321 41.2543 92.2492 41.7076 91.7309 41.7898C89.2028 42.1861 85.894 41.9584 83.2517 42.1018C66.4689 43.0126 49.335 44.0519 32.8039 47.13C28.6765 47.8995 24.5617 48.8756 20.466 49.799C19.9371 49.7147 20.0915 49.3162 20.2185 48.941C20.4215 48.338 22.5731 44.5938 22.9687 44.2796C23.6584 43.7315 25.721 44.5874 26.6984 44.6675C31.5346 45.0618 37.9553 43.8306 42.9206 43.4616C50.0395 42.9346 57.1858 42.6773 64.2984 42.0976C64.5226 42.0786 64.7384 42.2199 64.6749 41.8741C62.7752 40.2866 60.4946 38.484 58.0384 37.9106C54.8502 37.1664 50.3166 37.8115 47.0142 38.172C36.4258 39.3316 26.0363 42.0027 15.3992 42.7027C16.3385 41.7666 17.9886 41.3492 19.2622 40.8874L19.2601 40.8896ZM6.02936 60.3487C8.43687 59.847 10.7873 59.5539 13.0911 59.4295C13.6602 57.705 14.5805 54.9263 15.8117 54.3782C35.0189 50.9986 54.3446 46.6177 73.7147 44.2375C79.577 43.5164 85.4667 43.1159 91.3586 42.7069C91.5109 42.8544 89.3868 45.9578 89.1478 46.3204C85.9321 51.1926 82.4182 56.6951 78.7709 61.2131C75.7309 64.9763 74.7006 65.7163 69.7523 66.2771C63.577 66.9771 57.9792 66.1506 52.026 64.6053C40.4581 61.6031 31.1602 55.6157 18.5493 58.0128C17.1382 58.2805 15.7821 58.7633 14.4874 59.3726C27.972 59.0058 40.0159 64.1415 53.2424 66.6925C66.5451 69.254 79.7695 69.3615 92.5052 65.476C91.8599 67.1563 91.1195 68.7902 90.2881 70.3692C82.5768 73.5928 73.7465 74.8661 63.8795 73.1289C57.3107 71.9715 51.2686 69.6988 45.2646 67.4936C44.8521 67.7466 44.9579 67.7065 45.271 67.9405C46.0326 68.5119 48.0762 69.4458 49.079 69.9413C54.7974 72.7853 61.1821 75.1908 68.1043 75.8022C68.0112 76.0383 67.2877 76.1859 66.9978 76.2597C57.042 78.7833 44.2132 77.6048 34.6741 74.6195C26.7513 72.1381 15.9514 65.5667 6.94963 68.1261C6.50113 67.1457 6.08648 66.1485 5.70779 65.1345C8.11531 64.1035 10.7048 63.353 13.0911 62.9566C13.125 62.7374 12.558 62.6847 12.3634 62.672C9.89238 62.4738 7.37909 62.5708 4.94831 62.9355C4.72194 62.2208 4.51038 61.4977 4.31787 60.7683C4.88484 60.6165 5.45393 60.4731 6.03359 60.3508L6.02936 60.3487Z" fill="white"/>
</g>
<defs>
<clipPath id="clip0_4_2328">
<rect width="246" height="98" fill="white"/>
</clipPath>
</defs>
</svg>
