<svg width="227" height="85" viewBox="0 0 227 85" fill="none" xmlns="http://www.w3.org/2000/svg">
<circle cx="42.7071" cy="42.3258" r="42.3258" fill="#F2EAD6"/>
<path d="M4.19248 60.6736C4.48998 61.2885 4.80579 61.8989 5.13075 62.5002C6.11479 64.2994 7.22241 66.0213 8.44445 67.6474C8.8518 68.1895 9.27288 68.7224 9.70769 69.2463C10.7924 70.5536 11.9504 71.7925 13.1816 72.9632C13.4287 73.1955 13.6759 73.4278 13.9276 73.6556C21.4796 80.4882 31.5122 84.6515 42.5243 84.6515C49.8657 84.6515 56.7724 82.8022 62.7956 79.5453C66.1093 77.7551 69.1575 75.5368 71.8671 72.9678C72.3614 72.4986 72.842 72.0203 73.3088 71.5329C74.7185 70.0616 76.0184 68.4901 77.2038 66.8321C77.7988 66.003 78.3618 65.1512 78.8927 64.2767C82.8014 57.8768 85.0487 50.3655 85.0487 42.3303C85.0487 34.2952 82.7968 26.7838 78.8927 20.384C78.3618 19.5094 77.7942 18.6576 77.2038 17.8286C76.0184 16.1705 74.714 14.599 73.3088 13.1277C72.8374 12.6358 72.3568 12.1575 71.8671 11.6929C69.1575 9.12382 66.1093 6.90549 62.7956 5.11535C56.7769 1.84936 49.8703 0 42.5289 0C31.5168 0 21.4842 4.16334 13.9322 10.996C13.6805 11.2237 13.4333 11.456 13.1862 11.6883C11.955 12.8544 10.7924 14.098 9.71226 15.4053C9.27746 15.9291 8.85638 16.462 8.44903 17.0041C7.22241 18.6348 6.11479 20.3521 5.13533 22.1513C4.80579 22.7526 4.49455 23.3584 4.19705 23.9779C3.89955 24.5929 3.61578 25.2215 3.34574 25.8546C1.19 30.9153 0 36.4816 0 42.3258C0 48.1699 1.19 53.7362 3.34117 58.8015C3.6112 59.4346 3.89497 60.0587 4.19248 60.6782V60.6736ZM23.3882 31.3708C23.4934 31.0656 23.6445 30.765 23.7726 30.4689C24.0198 29.8904 24.2761 29.3119 24.5507 28.7425C27.7088 22.1422 34.7481 18.193 41.8149 17.1772C44.9684 16.7217 48.2043 16.8811 51.3029 17.6236C54.374 18.3615 57.2987 19.6688 59.8984 21.459C62.5439 23.281 64.8323 25.5995 66.6128 28.2688C67.2535 29.2299 67.8302 30.2366 68.3383 31.2797C68.5946 31.8081 68.8372 32.3501 69.0569 32.8968C69.1667 33.1655 69.2674 33.4343 69.3681 33.7076C69.4139 33.8351 69.7114 34.4227 69.6564 34.5366L69.5145 34.8008H67.2856C64.9559 28.697 60.6765 23.782 54.5891 21.2039C48.2135 18.5027 38.9864 18.5346 33.224 22.7982C31.7548 23.8868 30.5785 25.3034 29.567 26.8066C28.6654 28.1413 27.4571 29.731 26.9719 31.2706C26.8529 31.6487 26.5829 31.553 26.2167 31.5803C25.8917 31.6077 25.5668 31.6441 25.2464 31.6942C24.5644 31.8035 23.8916 31.9721 23.2188 32.1269C23.26 32.1178 23.3607 31.471 23.3973 31.3708H23.3882ZM16.6601 35.3201C21.7817 33.4661 27.2923 32.2636 32.6793 31.4255C37.9337 30.6056 43.4718 29.8266 48.7307 30.9472C52.3831 31.7215 55.0789 34.1266 58.1042 36.1035C65.4777 35.9805 72.8374 35.3793 80.1971 35.1925C80.1147 35.6344 79.7852 36.0261 79.3367 36.099C77.1489 36.4406 74.2883 36.2447 72.0044 36.3677C57.4864 37.1558 42.6708 38.0531 28.3679 40.7133C24.7979 41.3783 21.237 42.221 17.6944 43.0181C17.2368 42.9453 17.3695 42.6036 17.4793 42.2757C17.6533 41.7564 19.5161 38.5223 19.8593 38.249C20.4543 37.7752 22.2393 38.5132 23.0861 38.5815C27.2694 38.9231 32.8212 37.8572 37.119 37.5429C43.275 37.0874 49.4584 36.8642 55.6098 36.3632C55.802 36.3495 55.9897 36.4679 55.9348 36.1719C54.2916 34.8008 52.319 33.2429 50.1953 32.7464C47.44 32.1042 43.5175 32.6599 40.6615 32.9742C31.5031 33.9763 22.5185 36.2812 13.3189 36.887C14.1336 36.0762 15.557 35.7163 16.6601 35.3201ZM5.21313 52.1283C7.29564 51.6956 9.3278 51.4405 11.3233 51.3357C11.8177 49.8462 12.6095 47.4457 13.6759 46.9719C30.2902 44.0521 47.0052 40.2669 63.7568 38.2125C68.828 37.5885 73.9221 37.2423 79.0163 36.8916C79.149 37.0191 77.3137 39.6975 77.1031 40.0118C74.3203 44.2207 71.2812 48.9716 68.1277 52.8753C65.5006 56.1276 64.6081 56.7654 60.3286 57.2482C54.9873 57.854 50.1449 57.1389 44.9959 55.8042C34.9907 53.2124 26.949 48.0378 16.0422 50.1104C14.8201 50.3427 13.6484 50.7572 12.5271 51.2856C24.1891 50.9667 34.6062 55.4034 46.0486 57.608C57.555 59.8218 68.9928 59.9129 80.0095 56.5558C79.4511 58.0089 78.8103 59.4164 78.0917 60.7829C71.4231 63.5661 63.7842 64.6684 55.2482 63.1652C49.5637 62.1631 44.3414 60.2044 39.1466 58.2959C38.7896 58.5145 38.8811 58.4781 39.1511 58.683C39.8102 59.175 41.5769 59.9812 42.4465 60.4094C47.3942 62.8646 52.914 64.9463 58.9006 65.4701C58.8228 65.6751 58.1958 65.8026 57.944 65.8664C49.3348 68.0483 38.2357 67.0279 29.9835 64.4498C23.1318 62.3043 13.7903 56.6287 6.00494 58.8425C5.6159 57.9952 5.2589 57.1343 4.92936 56.2597C7.01187 55.3715 9.24999 54.7201 11.3142 54.3785C11.3462 54.1872 10.8519 54.1462 10.6826 54.1325C8.54515 53.9594 6.3711 54.046 4.27028 54.3603C4.07348 53.7408 3.8904 53.1167 3.72563 52.4881C4.21536 52.356 4.70967 52.2331 5.20856 52.1283H5.21313Z" fill="#1E6F73"/>
<path d="M134.652 52.5C132.597 51.8026 131.767 51.3014 130.538 49.3951L115.259 13.5005C114.216 13.4955 113.18 16.4409 112.732 17.4174C107.867 28.0233 104.229 39.2169 99.2287 49.773C98.0799 51.6091 97.4147 51.8479 95.4952 52.5C94.9061 52.7003 94.4162 52.1669 94.6075 53.3003H105.22C105.406 52.0201 104.181 52.8616 103.302 51.997C102.85 51.5529 102.554 50.7617 102.58 50.1156C102.689 47.3917 105.777 43.1013 106.314 40.2587L120.385 40.2198C121.486 42.3581 125.284 49.3565 124.36 51.3943C123.792 52.6446 122.169 52.0405 122.275 53.2998H135.54C135.731 52.1665 135.242 52.6998 134.652 52.4996L134.652 52.5ZM107.493 38.1398L113.368 22.6082L119.621 38.1398H107.493Z" fill="#1E6F73"/>
<path d="M151.921 52.5091L149.606 51.7464C149.143 51.4709 148.776 51.059 148.56 50.5655C148.235 49.8233 148.083 49.0353 148.032 48.1987C148.003 47.7379 147.978 47.2091 147.955 46.6232V25.0638C148.005 23.1158 148.068 21.2406 148.145 19.5214C148.182 18.689 148.256 17.8588 148.575 17.0889L148.832 16.4713C148.921 16.2574 149.099 16.0929 149.319 16.0204L151.129 15.4245C151.521 15.2958 151.795 14.9415 151.821 14.53L151.838 14.2626H138.573L138.598 14.5667C138.622 14.8612 138.816 15.1141 139.094 15.2142L141.442 16.0603C141.67 16.1423 141.865 16.2945 142 16.4939C142.526 17.2661 142.779 18.0179 142.761 18.9803C142.653 24.6401 142.761 39.0534 142.707 49.2858C142.366 51.7152 141.418 51.8339 139.46 52.5C138.872 52.7003 138.381 52.166 138.572 53.2998H152.216V52.9164C152.216 52.7311 152.098 52.5671 151.922 52.5091H151.921Z" fill="#1E6F73"/>
<path d="M173.695 51.717C171.014 50.1092 168.762 48.1629 166.608 45.9194C165.165 44.4163 154.939 32.4152 154.848 31.4885C154.816 31.1577 154.874 30.8478 155.056 30.5668C158.536 26.8556 161.629 22.2747 165.092 18.611C167.158 16.4255 167.989 15.2464 170.996 15.0244C171.385 14.9954 172.111 15.4295 171.924 14.2626H159.796C159.59 15.5827 161.231 14.7158 161.631 16.0471C161.824 16.6892 161.705 17.3631 161.395 17.9485L149.616 33.3356C154.871 39.4317 159.231 46.5584 165.368 51.7818C165.63 52.0056 165.927 52.186 166.248 52.3147C167.232 52.7089 168.995 53.3003 169.46 53.3003H176.093C176.306 52.1651 174.569 52.2408 173.695 51.717Z" fill="#1E6F73"/>
<path d="M208.249 13.2698C206.873 13.7257 205.399 14.1548 203.964 14.2762C200.806 14.5427 196.33 14.6768 191.835 14.68C187.34 14.6764 182.864 14.5427 179.706 14.2762C178.243 14.1525 176.738 13.7089 175.339 13.2431C175.152 13.181 174.953 13.2988 174.919 13.4927C174.514 15.7766 174.32 18.37 174.931 20.5858C175.086 21.1523 174.759 21.5356 175.4 21.5021C175.566 21.4935 175.685 21.3335 175.644 21.1718C175.11 19.0216 177.933 16.5365 179.719 16.5365H189.384V49.6996C189.384 50.4314 188.453 51.3681 188.228 51.5751C187.331 52.4003 185.473 52.1126 185.594 53.3003H198.075C198.197 52.1126 196.338 52.4008 195.441 51.5751C195.217 51.3681 194.285 50.5148 194.285 49.6996V16.5365H203.95C205.72 16.5365 208.507 18.9767 208.039 21.1129C207.995 21.3127 208.142 21.5048 208.346 21.5044C208.884 21.5026 208.589 21.1283 208.739 20.5858C209.342 18.3981 209.16 15.8423 208.766 13.5798C208.724 13.34 208.48 13.1932 208.249 13.2698Z" fill="#1E6F73"/>
<path d="M226.471 53.2821C226.713 52.2018 225.36 52.4873 224.549 52.1162L224.081 51.8325C223.019 51.0631 222.597 49.8251 222.332 48.5291C222.443 46.2887 222.407 43.9976 222.3 41.6825V19.9347C222.374 19.2586 222.398 18.5766 222.353 17.8842C222.699 15.6932 224.087 15.7195 225.589 15.0575C226.049 14.8545 226.266 15.2342 226.121 14.2622H213.202C213.057 15.2346 213.275 14.8549 213.734 15.0575C215.236 15.7195 216.624 15.6928 216.97 17.8842C216.987 17.9417 217.007 18.0074 217.028 18.0795V41.5697C216.917 43.9233 216.879 46.252 216.991 48.5286C216.727 49.8246 216.305 51.0631 215.242 51.8321L214.774 52.1157C213.963 52.4869 212.61 52.2014 212.852 53.2817L212.823 53.2994H226.5L226.47 53.2817L226.471 53.2821Z" fill="#1E6F73"/>
<path d="M221.474 59.6271C222.808 59.6115 224.059 60.078 225.227 61.0265L224.359 62.0664C223.499 61.2585 222.545 60.8546 221.498 60.8546C220.721 60.8546 220.14 61.0265 219.754 61.3705C219.395 61.6728 219.215 62.095 219.215 62.6371C219.215 63.1426 219.436 63.5309 219.879 63.802C220.265 64.0417 220.924 64.2971 221.857 64.5681C222.931 64.8652 223.708 65.1832 224.187 65.5219C225.037 66.137 225.461 66.9344 225.461 67.9143C225.461 68.8941 225.071 69.6838 224.289 70.2831C223.543 70.8408 222.605 71.1197 221.474 71.1197C219.9 71.1197 218.488 70.5933 217.237 69.5404L218.105 68.5006C219.131 69.4232 220.27 69.8844 221.521 69.8844C222.319 69.8844 222.928 69.7255 223.351 69.4075C223.804 69.0479 224.031 68.5736 224.031 67.9846C224.026 67.4269 223.791 66.9891 223.327 66.6712C222.962 66.4262 222.321 66.1708 221.404 65.905C220.278 65.5871 219.499 65.2848 219.066 64.9981C218.206 64.404 217.776 63.6378 217.776 62.6996C217.776 61.7927 218.112 61.0552 218.785 60.4871C219.462 59.9138 220.359 59.6271 221.474 59.6271Z" fill="#1E6F73"/>
<path d="M207.708 59.8382H209.006V69.8532H214.228V70.9242H207.708V59.8382Z" fill="#1E6F73"/>
<path d="M198.93 59.8382H200.15L204.778 70.9242H203.386L202.19 68.0159H196.874L195.701 70.9242H194.286L198.93 59.8382ZM199.532 61.48L197.32 66.9214H201.768L199.532 61.48Z" fill="#1E6F73"/>
<path d="M184.022 59.8382H192.598V60.9093H188.947V70.9242H187.657V60.9093H184.022V59.8382Z" fill="#1E6F73"/>
<path d="M171.695 59.8382H172.993L179.403 68.8603V59.8382H180.701V70.9242H179.403L172.993 61.8787V70.9242H171.695V59.8382Z" fill="#1E6F73"/>
<path d="M160.946 59.8382H168.209V60.9093H162.244V64.6385H167.709V65.7018H162.244V69.8532H168.209V70.9242H160.946V59.8382Z" fill="#1E6F73"/>
<path d="M151.246 60.9093V65.0294H154.029C154.623 65.0294 155.115 64.8444 155.506 64.4743C155.897 64.099 156.093 63.5987 156.093 62.9732C156.093 62.3426 155.897 61.8422 155.506 61.4722C155.115 61.0969 154.623 60.9093 154.029 60.9093H151.246ZM156.257 70.9242L153.325 66.1005H151.246V70.9242H149.948V59.8382H154.302C155.199 59.8382 155.949 60.1196 156.554 60.6825C157.159 61.2454 157.461 62.009 157.461 62.9732C157.461 63.9218 157.159 64.6672 156.554 65.2092C156.064 65.6575 155.478 65.9311 154.795 66.0301L157.852 70.9242H156.257Z" fill="#1E6F73"/>
<path d="M133.192 59.8382H141.768V60.9093H138.117V70.9242H136.827V60.9093H133.192V59.8382Z" fill="#1E6F73"/>
<path d="M126.391 59.8382H127.611L132.239 70.9242H130.847L129.651 68.0159H124.335L123.162 70.9242H121.747L126.391 59.8382ZM126.993 61.48L124.78 66.9214H129.229L126.993 61.48Z" fill="#1E6F73"/>
<path d="M117.902 61.2767C118.934 62.3608 119.45 63.7316 119.45 65.389C119.45 67.0465 118.929 68.4172 117.887 69.5013C116.849 70.5802 115.536 71.1197 113.946 71.1197C112.362 71.1197 111.048 70.5802 110.006 69.5013C108.964 68.4172 108.442 67.0465 108.442 65.389C108.442 63.7316 108.964 62.3582 110.006 61.2689C111.048 60.1744 112.362 59.6271 113.946 59.6271C115.536 59.6271 116.855 60.177 117.902 61.2767ZM109.842 65.389C109.842 66.7077 110.222 67.7814 110.983 68.6101C111.739 69.4388 112.727 69.8531 113.946 69.8531C115.166 69.8531 116.154 69.4388 116.909 68.6101C117.67 67.7814 118.051 66.7077 118.051 65.389C118.051 64.0704 117.673 62.9967 116.917 62.168C116.161 61.3393 115.171 60.9249 113.946 60.9249C112.701 60.9249 111.705 61.3393 110.96 62.168C110.214 62.9967 109.842 64.0704 109.842 65.389Z" fill="#1E6F73"/>
<path d="M102.361 59.8382C103.138 59.8382 103.802 60.1118 104.355 60.6591C104.912 61.2064 105.191 61.8683 105.191 62.6449C105.191 63.1765 105.058 63.6664 104.793 64.1147C104.532 64.5629 104.178 64.9017 103.729 65.131C104.292 65.3656 104.743 65.7304 105.082 66.2256C105.421 66.7207 105.59 67.2836 105.59 67.9143C105.59 68.743 105.301 69.4518 104.722 70.0408C104.144 70.6297 103.44 70.9242 102.611 70.9242H97.1855V59.8382H102.361ZM101.962 60.9093H98.4833V64.6385H101.962C102.478 64.6385 102.919 64.4561 103.284 64.0912C103.648 63.7264 103.831 63.2886 103.831 62.7778C103.831 62.2618 103.648 61.8214 103.284 61.4565C102.919 61.0917 102.478 60.9093 101.962 60.9093ZM98.4833 65.7018V69.8532H102.189C102.752 69.8532 103.237 69.6525 103.643 69.2512C104.05 68.8446 104.253 68.3495 104.253 67.7657C104.253 67.2028 104.05 66.7181 103.643 66.3116C103.237 65.905 102.752 65.7018 102.189 65.7018H98.4833Z" fill="#1E6F73"/>
</svg>
