<svg width="186" height="84" viewBox="0 0 186 84" fill="none" xmlns="http://www.w3.org/2000/svg">
<path d="M9.34246 57.3211C9.4905 57.3331 9.91861 57.3729 9.8946 57.5362C8.09014 57.8348 6.13363 58.4042 4.31316 59.1807C4.60124 59.9452 4.91332 60.7018 5.25341 61.4384C12.0592 59.5072 20.2253 64.4687 26.2148 66.3402C33.4287 68.594 43.1272 69.4859 50.6571 67.5786C50.8772 67.5228 51.4253 67.4113 51.4933 67.2321C46.26 66.7702 41.4307 64.9545 37.1096 62.8082C36.3494 62.4339 34.805 61.7291 34.2289 61.2991C33.9928 61.1239 33.9128 61.1517 34.2249 60.9606C38.7661 62.629 43.3312 64.3413 48.3005 65.2173C55.7624 66.5313 62.4362 65.5677 68.2697 63.1347C68.8978 61.9402 69.458 60.7098 69.9461 59.4395C60.3156 62.3742 50.317 62.2906 40.2584 60.3593C30.2599 58.4361 21.1535 54.5577 10.9549 54.8324C11.9351 54.3745 12.9594 54.0082 14.0277 53.8051C23.5621 51.9933 30.5919 56.5168 39.3382 58.7825C43.8394 59.9492 48.0725 60.5744 52.7417 60.0448C56.4826 59.6227 57.2628 59.0612 59.5594 56.2221C62.3161 52.8136 64.9728 48.6565 67.4054 44.9772C67.5855 44.7024 69.1939 42.3611 69.0779 42.2496C64.6247 42.5602 60.1676 42.8588 55.7384 43.4043C41.0906 45.2042 26.4789 48.5091 11.9591 51.0616C11.0269 51.4757 10.3307 53.5741 9.90261 54.8762C8.16216 54.9718 6.3817 55.1908 4.56123 55.5691C4.12511 55.6607 3.693 55.7682 3.26489 55.8837C3.40893 56.4332 3.56897 56.9787 3.74102 57.5202C5.57749 57.2455 7.48198 57.1698 9.34646 57.3211H9.34246Z" fill="white"/>
<path d="M43.8794 38.626C45.7359 39.0601 47.4603 40.4219 48.8967 41.6204C48.9447 41.8832 48.7807 41.7757 48.6126 41.7877C43.2352 42.2257 37.8298 42.4208 32.4484 42.819C28.6955 43.0977 23.8382 44.0255 20.1813 43.7269C19.4411 43.6671 17.8807 43.0221 17.3605 43.4362C17.0605 43.6751 15.432 46.5023 15.28 46.9562C15.184 47.2389 15.068 47.5415 15.4681 47.6053C18.5649 46.9084 21.6777 46.1718 24.7985 45.5904C37.2977 43.265 50.253 42.4805 62.9443 41.7916C64.9448 41.6841 67.4455 41.8554 69.354 41.5567C69.7461 41.497 70.0341 41.1506 70.1062 40.7643C63.6725 40.9276 57.2348 41.4492 50.7932 41.5607C48.1445 39.8325 45.7919 37.7301 42.5991 37.0532C38.0019 36.0776 33.1606 36.7585 28.5674 37.4713C23.8582 38.2039 19.041 39.2552 14.5638 40.8758C13.5996 41.2262 12.3512 41.5408 11.6431 42.2456C19.6851 41.716 27.5392 39.7011 35.5452 38.8251C38.0419 38.5543 41.4708 38.0646 43.8794 38.626Z" fill="white"/>
<path d="M22.9099 37.6067C23.23 37.5788 23.4661 37.6624 23.5701 37.3359C23.9982 35.99 25.0505 34.6003 25.8387 33.4336C26.7269 32.1196 27.7512 30.8812 29.0355 29.9295C34.0728 26.2024 42.1389 26.1785 47.7123 28.5358C53.0337 30.7896 56.7747 35.0861 58.8112 40.4219H60.7597L60.8837 40.1909C60.9357 40.0954 60.6757 39.5817 60.6317 39.4662C60.5436 39.2273 60.4556 38.9924 60.3596 38.7574C60.1675 38.2796 59.9595 37.8057 59.7314 37.3438C59.2913 36.436 58.7872 35.556 58.223 34.7118C56.6666 32.3824 54.6621 30.3516 52.3535 28.7588C50.0849 27.1939 47.5243 26.0511 44.8396 25.406C42.1309 24.757 39.3022 24.6176 36.5454 25.0158C30.3679 25.9038 24.2143 29.3561 21.4536 35.1259C21.2135 35.6237 20.9934 36.1294 20.7734 36.6351C20.6613 36.8939 20.5293 37.1567 20.4373 37.4235C20.4053 37.5111 20.3213 38.0765 20.2812 38.0845C20.8694 37.9491 21.4576 37.8018 22.0537 37.7062C22.3338 37.6624 22.6179 37.6305 22.9019 37.6067H22.9099Z" fill="white"/>
<path d="M90.4153 46.8646H104.235L106.872 53.2118H114.101L100.79 23.5863H93.9842L80.7168 53.2118H87.7746L90.4113 46.8646H90.4153ZM97.3451 30.3158L102.066 41.6602H92.6239L97.3451 30.3158Z" fill="#0D4168"/>
<path d="M124.052 45.7218L128.049 41.5726L137.575 53.2118H145.613L132.554 36.7904L144.889 23.5863H137.235L124.052 37.4235V23.5863H117.202V53.2118H124.052V45.7218Z" fill="#0D4168"/>
<path d="M157.224 53.2118H164.114V29.1729H173.641V23.5863H147.698V29.1729H157.224V53.2118Z" fill="#0D4168"/>
<path d="M186 23.5863H179.11V53.2118H186V23.5863Z" fill="#0D4168"/>
<path d="M89.2509 65.2014C89.2509 64.0386 88.5867 63.2422 87.5505 62.9118C88.3067 62.5136 88.7868 61.8008 88.7868 60.873C88.7868 59.4316 87.5905 58.4639 85.2659 58.4639H80.7207V67.7259H85.5339C87.9786 67.7259 89.2549 66.7981 89.2549 65.1974L89.2509 65.2014ZM82.8573 60.0806H84.9978C86.0461 60.0806 86.6182 60.439 86.6182 61.1637C86.6182 61.8884 86.0461 62.2627 84.9978 62.2627H82.8573V60.0806ZM82.8573 66.1132V63.8236H85.3699C86.4862 63.8236 87.0863 64.1939 87.0863 64.9744C87.0863 65.7548 86.4902 66.1132 85.3699 66.1132H82.8573Z" fill="#F2992F"/>
<path d="M90.3032 63.0989C90.3032 65.8504 92.4558 67.8892 95.3925 67.8892C98.3293 67.8892 100.482 65.8663 100.482 63.0989C100.482 60.3315 98.3133 58.3087 95.3925 58.3087C92.4718 58.3087 90.3032 60.3474 90.3032 63.0989ZM98.3053 63.0989C98.3053 64.8589 97.057 66.0615 95.3925 66.0615C93.7281 66.0615 92.4798 64.8589 92.4798 63.0989C92.4798 61.3389 93.7281 60.1364 95.3925 60.1364C97.057 60.1364 98.3053 61.3389 98.3053 63.0989Z" fill="#F2992F"/>
<path d="M104.895 58.4679L100.746 67.7299H102.951L103.775 65.7469H108.096L108.92 67.7299H111.181L107.02 58.4679H104.891H104.895ZM104.471 64.1183L105.947 60.5744L107.424 64.1183H104.471Z" fill="#F2992F"/>
<path d="M115.77 67.7299V60.216H118.747V58.4679H110.636V60.216H113.613V67.7299H115.77Z" fill="#F2992F"/>
<path d="M131.73 61.8287C131.73 59.7501 130.174 58.4679 127.689 58.4679H123.66V67.7299H125.812V65.1496H127.793L129.585 67.7299H131.898L129.809 64.7554C131.018 64.2377 131.722 63.2223 131.722 61.8326L131.73 61.8287ZM127.573 63.4413H125.816V60.212H127.573C128.889 60.212 129.553 60.8053 129.553 61.8247C129.553 62.8441 128.889 63.4374 127.573 63.4374V63.4413Z" fill="#F2992F"/>
<path d="M140.464 60.1881V58.4679H133.43V67.7299H140.636V66.0097H135.571V63.8674H139.892V62.199H135.571V60.1881H140.464Z" fill="#F2992F"/>
<path d="M144.133 58.4679H142.349V67.7299H144.477V62.1074L149.114 67.7299H150.883V58.4679H148.758V64.0904L144.133 58.4679Z" fill="#F2992F"/>
<path d="M157.169 67.7299V60.216H160.149V58.4679H152.039V60.216H155.016V67.7299H157.169Z" fill="#F2992F"/>
<path d="M162.646 65.7429H166.967L167.791 67.7259H170.052L165.891 58.4639H163.762L159.613 67.7259H161.822L162.646 65.7429ZM164.815 60.5704L166.291 64.1143H163.338L164.815 60.5704Z" fill="#F2992F"/>
<path d="M171.02 58.4679V67.7299H177.838V65.9818H173.173V58.4679H171.02Z" fill="#F2992F"/>
<path d="M182.063 66.169C180.947 66.169 179.778 65.7708 178.994 65.2014L178.262 66.814C179.086 67.4472 180.575 67.8852 182.051 67.8852C184.708 67.8852 186 66.5632 186 65.0142C186 61.6137 180.591 62.7923 180.591 61.0841C180.591 60.5027 181.083 60.0249 182.359 60.0249C183.183 60.0249 184.075 60.2638 184.94 60.7536L185.604 59.1249C184.74 58.5834 183.543 58.3047 182.375 58.3047C179.73 58.3047 178.454 59.6147 178.454 61.1876C178.454 64.628 183.863 63.4374 183.863 65.1695C183.863 65.7389 183.343 66.161 182.067 66.161L182.063 66.169Z" fill="#F2992F"/>
<path d="M3.66495 63.0392C3.92501 63.5767 4.20108 64.1103 4.48516 64.6359C5.34538 66.2088 6.31363 67.7139 7.38191 69.1355C7.738 69.6093 8.10609 70.0752 8.48619 70.5331C9.43443 71.676 10.4467 72.759 11.523 73.7824C11.739 73.9855 11.9551 74.1885 12.1751 74.3876C18.7768 80.3605 27.5471 84 37.1736 84C43.5913 84 49.6288 82.3833 54.8942 79.5363C57.7909 77.9714 60.4556 76.0322 62.8242 73.7864C63.2563 73.3762 63.6764 72.9581 64.0845 72.5321C65.3169 71.2459 66.4531 69.8721 67.4894 68.4227C68.0096 67.698 68.5017 66.9534 68.9658 66.1889C72.3827 60.5943 74.3472 54.0281 74.3472 47.004C74.3472 39.9799 72.3787 33.4137 68.9658 27.8191C68.5017 27.0546 68.0055 26.3099 67.4894 25.5852C66.4531 24.1358 65.3129 22.7621 64.0845 21.4759C63.6724 21.0458 63.2523 20.6277 62.8242 20.2216C60.4556 17.9758 57.7909 16.0366 54.8942 14.4717C49.6328 11.6167 43.5953 10 37.1776 10C27.5511 10 18.7808 13.6395 12.1791 19.6124C11.9591 19.8115 11.743 20.0145 11.527 20.2176C10.4507 21.237 9.43443 22.324 8.49019 23.4669C8.11009 23.9248 7.742 24.3907 7.38591 24.8645C6.31363 26.29 5.34538 27.7912 4.48916 29.3641C4.20108 29.8897 3.92901 30.4193 3.66895 30.9608C3.40888 31.4984 3.16082 32.0479 2.92475 32.6014C1.04027 37.0253 0 41.8912 0 47C0 52.1088 1.04027 56.9747 2.92075 61.4026C3.15681 61.9561 3.40488 62.5016 3.66495 63.0432V63.0392ZM20.4453 37.4235C20.5373 37.1567 20.6693 36.8939 20.7814 36.6351C20.9974 36.1294 21.2215 35.6237 21.4615 35.1259C24.2223 29.3561 30.3758 25.9038 36.5534 25.0158C39.3101 24.6176 42.1389 24.757 44.8476 25.406C47.5323 26.0511 50.0889 27.1939 52.3615 28.7588C54.6741 30.3516 56.6746 32.3784 58.231 34.7118C58.7912 35.552 59.2953 36.432 59.7394 37.3438C59.9635 37.8057 60.1755 38.2796 60.3676 38.7574C60.4636 38.9924 60.5516 39.2273 60.6397 39.4662C60.6797 39.5777 60.9397 40.0914 60.8917 40.1909L60.7677 40.4219H58.8192C56.7827 35.0861 53.0417 30.7896 47.7203 28.5358C42.1469 26.1746 34.0808 26.2024 29.0435 29.9295C27.7592 30.8812 26.7309 32.1196 25.8467 33.4336C25.0585 34.6003 24.0022 35.99 23.5781 37.3359C23.4741 37.6664 23.238 37.5828 22.9179 37.6067C22.6338 37.6305 22.3498 37.6624 22.0697 37.7062C21.4735 37.8018 20.8854 37.9491 20.2972 38.0845C20.3332 38.0765 20.4213 37.5111 20.4533 37.4235H20.4453ZM14.5638 40.8758C19.0409 39.2552 23.8582 38.2039 28.5674 37.4713C33.1606 36.7545 38.0018 36.0736 42.599 37.0532C45.7918 37.7301 48.1484 39.8325 50.7931 41.5607C57.2388 41.4532 63.6724 40.9276 70.1061 40.7643C70.0341 41.1506 69.746 41.493 69.3539 41.5567C67.4414 41.8554 64.9408 41.6841 62.9442 41.7916C50.253 42.4805 37.3016 43.265 24.7984 45.5904C21.6776 46.1718 18.5648 46.9084 15.468 47.6053C15.0679 47.5415 15.1839 47.2429 15.2799 46.9562C15.432 46.5023 17.0604 43.6751 17.3605 43.4362C17.8806 43.0221 19.441 43.6671 20.1812 43.7269C23.8382 44.0255 28.6914 43.0937 32.4484 42.819C37.8298 42.4208 43.2352 42.2257 48.6125 41.7877C48.7806 41.7757 48.9446 41.8793 48.8966 41.6204C47.4603 40.4219 45.7358 39.0601 43.8793 38.626C41.4707 38.0646 38.0418 38.5504 35.5452 38.8251C27.5391 39.7011 19.6851 41.716 11.643 42.2456C12.3552 41.5368 13.5995 41.2222 14.5638 40.8758ZM4.55718 55.5691C6.37765 55.1908 8.1541 54.9678 9.89855 54.8762C10.3307 53.5741 11.0228 51.4757 11.9551 51.0616C26.4788 48.5091 41.0906 45.2002 55.7344 43.4043C60.1675 42.8588 64.6207 42.5562 69.0738 42.2496C69.1899 42.3611 67.5854 44.7024 67.4014 44.9772C64.9688 48.6565 62.3121 52.8096 59.5554 56.2221C57.2588 59.0652 56.4786 59.6227 52.7376 60.0448C48.0684 60.5744 43.8353 59.9492 39.3342 58.7825C30.5879 56.5168 23.5581 51.9933 14.0236 53.8051C12.9553 54.0082 11.9311 54.3705 10.9508 54.8324C21.1455 54.5537 30.2518 58.4321 40.2544 60.3593C50.313 62.2946 60.3116 62.3742 69.9421 59.4395C69.4539 60.7098 68.8938 61.9402 68.2656 63.1347C62.4361 65.5677 55.7584 66.5313 48.2965 65.2173C43.3272 64.3413 38.762 62.629 34.2208 60.9606C33.9088 61.1517 33.9888 61.1199 34.2248 61.2991C34.801 61.7291 36.3454 62.4339 37.1056 62.8082C41.4307 64.9545 46.2559 66.7742 51.4893 67.2321C51.4213 67.4113 50.8731 67.5228 50.6531 67.5786C43.1271 69.4859 33.4246 68.594 26.2108 66.3402C20.2212 64.4647 12.0551 59.5032 5.24935 61.4384C4.90927 60.6978 4.59719 59.9452 4.30911 59.1807C6.12958 58.4042 8.08609 57.8348 9.89055 57.5362C9.91856 57.3689 9.48645 57.3331 9.33841 57.3211C7.46993 57.1698 5.56944 57.2455 3.73296 57.5202C3.56092 56.9787 3.40088 56.4332 3.25684 55.8837C3.68495 55.7682 4.11706 55.6607 4.55318 55.5691H4.55718Z" fill="#0D4168"/>
</svg>
