<svg width="149" height="32" viewBox="0 0 149 32" fill="none" xmlns="http://www.w3.org/2000/svg">
<g clip-path="url(#clip0_1198_311)">
<path d="M14.8315 0.134269C10.9379 0.352106 6.96756 0.864792 2.90131 1.74274C1.9231 1.95398 0.957689 2.20482 0.00292969 2.47326C0.328997 3.74948 0.682769 5.01469 1.06851 6.2667C5.17525 5.6264 9.42265 5.45697 13.5976 5.80463C13.9301 5.82883 14.8869 5.92125 14.8294 6.30411C10.8015 6.99943 6.42411 8.31525 2.35786 10.1174C2.99934 11.8931 3.70049 13.6401 4.45705 15.3542C19.6671 10.8743 37.9141 22.3778 51.2978 26.7214C67.4136 31.9472 89.0896 34.009 105.909 29.5906C106.401 29.4586 107.622 29.2034 107.78 28.7897C96.0841 27.7203 85.2983 23.5088 75.6356 18.5294C73.9392 17.6624 70.4867 16.0276 69.2017 15.0286C68.6731 14.6193 68.4941 14.6897 69.1931 14.2475C79.3396 18.1113 89.5457 22.0852 100.645 24.1139C117.317 27.1548 132.235 24.9281 145.263 19.2841C146.665 16.5182 147.916 13.66 149.007 10.7181C127.491 17.5172 105.146 17.3302 82.6727 12.8458C60.3211 8.38126 39.9728 -0.609457 17.1907 0.0330518L14.8315 0.134269Z" fill="#E3891F" fill-opacity="0.4"/>
</g>
<defs>
<clipPath id="clip0_1198_311">
<rect width="149" height="32" fill="white"/>
</clipPath>
</defs>
</svg>
