<svg width="80" height="80" viewBox="0 0 80 80" fill="none" xmlns="http://www.w3.org/2000/svg">
<mask id="mask0_1123_996" style="mask-type:alpha" maskUnits="userSpaceOnUse" x="0" y="0" width="80" height="80">
<rect width="80" height="80" fill="#D9D9D9"/>
</mask>
<g mask="url(#mask0_1123_996)">
<path d="M40.0004 70.8851C36.1082 70.8851 32.4871 70.2965 29.1371 69.1192C25.7865 67.942 22.8715 66.3565 20.3921 64.3626C17.9132 62.3687 15.9696 60.032 14.5612 57.3526C13.1529 54.6726 12.4487 51.8479 12.4487 48.8784V45.3459C12.4487 44.7776 12.7021 44.3792 13.2087 44.1509C13.7154 43.922 14.2251 43.9742 14.7379 44.3076L19.2504 47.7567C20.0282 48.2695 20.4482 48.9381 20.5104 49.7626C20.5721 50.5876 20.291 51.312 19.6671 51.9359L17.2762 54.3909C18.9557 58.0748 21.6651 61.0792 25.4046 63.4042C29.1435 65.7287 33.4148 66.9656 38.2187 67.1151V37.0384H29.6154C29.1226 37.0384 28.7026 36.8648 28.3554 36.5176C28.0076 36.1704 27.8337 35.7504 27.8337 35.2576C27.8337 34.7654 28.0076 34.3312 28.3554 33.9551C28.7026 33.579 29.1226 33.3909 29.6154 33.3909H38.2187V25.7692C36.1798 25.2353 34.559 24.2273 33.3562 22.7451C32.1535 21.2628 31.5521 19.5451 31.5521 17.5917C31.5521 15.1928 32.3682 13.1665 34.0004 11.5126C35.6326 9.85868 37.6326 9.03174 40.0004 9.03174C42.381 9.03174 44.3982 9.86563 46.0521 11.5334C47.7054 13.2012 48.5321 15.2115 48.5321 17.5642C48.5321 19.5248 47.9168 21.249 46.6862 22.7367C45.4557 24.2245 43.8487 25.2353 41.8654 25.7692V33.3909H50.3854C50.9015 33.3909 51.3415 33.5728 51.7054 33.9367C52.0687 34.3001 52.2504 34.7401 52.2504 35.2567C52.2504 35.7495 52.0687 36.1695 51.7054 36.5167C51.3415 36.8645 50.9015 37.0384 50.3854 37.0384H41.8654V67.1151C46.6137 66.9656 50.8787 65.7287 54.6604 63.4042C58.4426 61.0792 61.1307 58.0962 62.7246 54.4551L60.4171 51.9359C59.7376 51.312 59.4287 50.5876 59.4904 49.7626C59.5526 48.9381 59.9512 48.2695 60.6862 47.7567L65.3462 44.3076C65.8035 43.9742 66.2993 43.922 66.8337 44.1509C67.3682 44.3792 67.6354 44.7776 67.6354 45.3459V48.8784C67.6354 51.8479 66.9173 54.6726 65.4812 57.3526C64.0451 60.032 62.0876 62.3687 59.6087 64.3626C57.1293 66.3565 54.2143 67.942 50.8637 69.1192C47.5137 70.2965 43.8926 70.8851 40.0004 70.8851ZM39.9587 22.3651C41.3282 22.3651 42.4915 21.9004 43.4487 20.9709C44.4065 20.0415 44.8854 18.9198 44.8854 17.6059C44.8854 16.2365 44.4062 15.0728 43.4479 14.1151C42.4901 13.1578 41.341 12.6792 40.0004 12.6792C38.6587 12.6792 37.5232 13.1584 36.5937 14.1167C35.6637 15.0745 35.1987 16.2237 35.1987 17.5642C35.1987 18.9059 35.6637 20.0415 36.5937 20.9709C37.5232 21.9004 38.6448 22.3651 39.9587 22.3651Z" fill="#E3891F"/>
</g>
</svg>
