<svg width="48" height="48" viewBox="0 0 48 48" fill="none" xmlns="http://www.w3.org/2000/svg">
<mask id="mask0_4_1426" style="mask-type:alpha" maskUnits="userSpaceOnUse" x="0" y="0" width="48" height="48">
<rect width="48" height="48" fill="#D9D9D9"/>
</mask>
<g mask="url(#mask0_4_1426)">
<path d="M24 44.2999C21.7416 44.2999 19.5176 43.8954 17.328 43.0864C15.1383 42.2777 13.178 41.2111 11.447 39.8864C9.71562 38.5621 8.32495 37.0576 7.27495 35.3729C6.22495 33.6879 5.69995 31.9802 5.69995 30.2499V26.3999C5.69995 26.0332 5.85828 25.7749 6.17495 25.6249C6.49162 25.4749 6.81662 25.4999 7.14995 25.6999L11.55 28.9999C12.0166 29.3332 12.275 29.7666 12.325 30.2999C12.375 30.8332 12.2 31.2999 11.8 31.6999L10.25 33.2499C11.2833 35.0499 12.9666 36.6666 15.3 38.0999C17.6333 39.5332 19.9333 40.3332 22.2 40.4999V21.7999H17.5C16.9993 21.7999 16.5741 21.6252 16.2245 21.2759C15.8748 20.9266 15.7 20.5016 15.7 20.0009C15.7 19.5002 15.8748 19.0666 16.2245 18.6999C16.5741 18.3332 16.9993 18.1499 17.5 18.1499H22.2V14.9999C20.9 14.4999 19.9083 13.7669 19.225 12.8009C18.5416 11.8346 18.2 10.7397 18.2 9.5164C18.2 7.87207 18.7666 6.48324 19.9 5.3499C21.0333 4.21657 22.4 3.6499 24 3.6499C25.6333 3.6499 27.0166 4.22074 28.15 5.3624C29.2833 6.50407 29.85 7.88324 29.85 9.4999C29.85 10.7276 29.5 11.8262 28.8 12.7959C28.1 13.7652 27.1166 14.4999 25.85 14.9999V18.1499H30.5C31.015 18.1499 31.452 18.3296 31.8109 18.6889C32.1703 19.0479 32.35 19.4849 32.35 19.9999C32.35 20.5009 32.1703 20.9261 31.8109 21.2754C31.452 21.6251 31.015 21.7999 30.5 21.7999H25.85V40.4999C28.0833 40.3332 30.3666 39.5332 32.7 38.0999C35.0333 36.6666 36.7166 35.0499 37.75 33.2499L36.25 31.6999C35.8166 31.2999 35.625 30.8332 35.675 30.2999C35.725 29.7666 35.9833 29.3332 36.45 28.9999L40.9 25.6999C41.2 25.4999 41.5166 25.4749 41.85 25.6249C42.1833 25.7749 42.35 26.0332 42.35 26.3999V30.2499C42.35 31.9802 41.8166 33.6879 40.75 35.3729C39.6833 37.0576 38.2843 38.5621 36.553 39.8864C34.822 41.2111 32.8616 42.2777 30.672 43.0864C28.4823 43.8954 26.2583 44.2999 24 44.2999ZM23.975 11.6499C24.5916 11.6499 25.1166 11.4416 25.55 11.0249C25.9833 10.6082 26.2 10.1082 26.2 9.5249C26.2 8.90824 25.9831 8.38324 25.5495 7.9499C25.1158 7.51657 24.5993 7.2999 24 7.2999C23.4 7.2999 22.8916 7.51674 22.475 7.9504C22.0583 8.3844 21.85 8.9009 21.85 9.4999C21.85 10.0999 22.0583 10.6082 22.475 11.0249C22.8916 11.4416 23.3916 11.6499 23.975 11.6499Z" fill="#0D4168"/>
</g>
</svg>
