<svg width="22" height="40" viewBox="0 0 22 40" fill="none" xmlns="http://www.w3.org/2000/svg">
<path d="M5 19.65L20.7 35.4C21.1333 35.8333 21.35 36.3667 21.35 37C21.35 37.6333 21.15 38.1833 20.75 38.65C20.2833 39.1167 19.725 39.35 19.075 39.35C18.425 39.35 17.8833 39.1167 17.45 38.65L1.05 22.2C0.683333 21.8667 0.416667 21.475 0.25 21.025C0.0833333 20.575 0 20.1167 0 19.65C0 19.2167 0.0833333 18.775 0.25 18.325C0.416667 17.875 0.683333 17.4667 1.05 17.1L17.5 0.65C17.9333 0.216667 18.4583 0 19.075 0C19.6917 0 20.2333 0.233333 20.7 0.7C21.1333 1.16667 21.3583 1.70833 21.375 2.325C21.3917 2.94167 21.1667 3.48333 20.7 3.95L5 19.65Z" fill="#0D4168"/>
</svg>
