<svg width="48" height="52" viewBox="0 0 48 52" fill="none" xmlns="http://www.w3.org/2000/svg">
<g filter="url(#filter0_d_1265_621)">
<mask id="mask0_1265_621" style="mask-type:alpha" maskUnits="userSpaceOnUse" x="0" y="0" width="48" height="48">
<rect x="48" y="48" width="48" height="48" transform="rotate(-180 48 48)" fill="#D9D9D9"/>
</mask>
<g mask="url(#mask0_1265_621)">
<path d="M18.7499 24.15L34.4499 39.85C34.8833 40.2833 35.1083 40.8167 35.1249 41.45C35.1416 42.0833 34.9333 42.6333 34.4999 43.1C34.0333 43.5333 33.4833 43.75 32.8499 43.75C32.2166 43.75 31.6666 43.5333 31.1999 43.1L14.7999 26.7C14.4333 26.3333 14.1666 25.925 13.9999 25.475C13.8333 25.025 13.7499 24.5833 13.7499 24.15C13.7499 23.6833 13.8333 23.225 13.9999 22.775C14.1666 22.325 14.4333 21.9333 14.7999 21.6L31.2499 5.15C31.7166 4.68333 32.2583 4.45 32.8749 4.45C33.4916 4.45 34.0333 4.68333 34.4999 5.15C34.9333 5.61667 35.1583 6.15834 35.1749 6.775C35.1916 7.39167 34.9666 7.93333 34.4999 8.4L18.7499 24.15Z" fill="white"/>
</g>
</g>
<defs>
<filter id="filter0_d_1265_621" x="9.75" y="4.45002" width="29.4258" height="47.3" filterUnits="userSpaceOnUse" color-interpolation-filters="sRGB">
<feFlood flood-opacity="0" result="BackgroundImageFix"/>
<feColorMatrix in="SourceAlpha" type="matrix" values="0 0 0 0 0 0 0 0 0 0 0 0 0 0 0 0 0 0 127 0" result="hardAlpha"/>
<feOffset dy="4"/>
<feGaussianBlur stdDeviation="2"/>
<feComposite in2="hardAlpha" operator="out"/>
<feColorMatrix type="matrix" values="0 0 0 0 0 0 0 0 0 0 0 0 0 0 0 0 0 0 0.25 0"/>
<feBlend mode="normal" in2="BackgroundImageFix" result="effect1_dropShadow_1265_621"/>
<feBlend mode="normal" in="SourceGraphic" in2="effect1_dropShadow_1265_621" result="shape"/>
</filter>
</defs>
</svg>
