<svg width="48" height="52" viewBox="0 0 48 52" fill="none" xmlns="http://www.w3.org/2000/svg">
<g filter="url(#filter0_d_1265_624)">
<mask id="mask0_1265_624" style="mask-type:alpha" maskUnits="userSpaceOnUse" x="0" y="0" width="48" height="48">
<rect width="48" height="48" fill="#D9D9D9"/>
</mask>
<g mask="url(#mask0_1265_624)">
<path d="M29.2501 23.85L13.5501 8.15C13.1167 7.71667 12.8917 7.18333 12.8751 6.55C12.8584 5.91667 13.0667 5.36667 13.5001 4.9C13.9667 4.46667 14.5167 4.25 15.1501 4.25C15.7834 4.25 16.3334 4.46667 16.8001 4.9L33.2001 21.3C33.5667 21.6667 33.8334 22.075 34.0001 22.525C34.1667 22.975 34.2501 23.4167 34.2501 23.85C34.2501 24.3167 34.1667 24.775 34.0001 25.225C33.8334 25.675 33.5667 26.0667 33.2001 26.4L16.7501 42.85C16.2834 43.3167 15.7417 43.55 15.1251 43.55C14.5084 43.55 13.9667 43.3167 13.5001 42.85C13.0667 42.3833 12.8417 41.8417 12.8251 41.225C12.8084 40.6083 13.0334 40.0667 13.5001 39.6L29.2501 23.85Z" fill="white"/>
</g>
</g>
<defs>
<filter id="filter0_d_1265_624" x="8.82422" y="4.25" width="29.4258" height="47.3" filterUnits="userSpaceOnUse" color-interpolation-filters="sRGB">
<feFlood flood-opacity="0" result="BackgroundImageFix"/>
<feColorMatrix in="SourceAlpha" type="matrix" values="0 0 0 0 0 0 0 0 0 0 0 0 0 0 0 0 0 0 127 0" result="hardAlpha"/>
<feOffset dy="4"/>
<feGaussianBlur stdDeviation="2"/>
<feComposite in2="hardAlpha" operator="out"/>
<feColorMatrix type="matrix" values="0 0 0 0 0 0 0 0 0 0 0 0 0 0 0 0 0 0 0.25 0"/>
<feBlend mode="normal" in2="BackgroundImageFix" result="effect1_dropShadow_1265_624"/>
<feBlend mode="normal" in="SourceGraphic" in2="effect1_dropShadow_1265_624" result="shape"/>
</filter>
</defs>
</svg>
