<svg width="22" height="40" viewBox="0 0 22 40" fill="none" xmlns="http://www.w3.org/2000/svg">
<path d="M16.4259 19.6L0.725862 3.9C0.292529 3.46667 0.0675287 2.93333 0.0508621 2.3C0.0341954 1.66667 0.242529 1.11667 0.675862 0.65C1.14253 0.216667 1.69253 0 2.32586 0C2.9592 0 3.5092 0.216667 3.97586 0.65L20.3759 17.05C20.7425 17.4167 21.0092 17.825 21.1759 18.275C21.3425 18.725 21.4259 19.1667 21.4259 19.6C21.4259 20.0667 21.3425 20.525 21.1759 20.975C21.0092 21.425 20.7425 21.8167 20.3759 22.15L3.92586 38.6C3.4592 39.0667 2.91753 39.3 2.30086 39.3C1.6842 39.3 1.14253 39.0667 0.675862 38.6C0.242529 38.1333 0.0175287 37.5917 0.000862069 36.975C-0.0158046 36.3583 0.209195 35.8167 0.675862 35.35L16.4259 19.6Z" fill="#0D4168"/>
</svg>
