<svg width="80" height="80" viewBox="0 0 80 80" fill="none" xmlns="http://www.w3.org/2000/svg">
<mask id="mask0_1483_1339" style="mask-type:alpha" maskUnits="userSpaceOnUse" x="0" y="0" width="80" height="80">
<rect width="80" height="80" fill="#D9D9D9"/>
</mask>
<g mask="url(#mask0_1483_1339)">
<path d="M64.2434 66.6027L46.3976 48.8019C45.987 48.4897 45.7817 48.06 45.7817 47.5127C45.7817 46.9661 45.987 46.4875 46.3976 46.0769C46.8076 45.6669 47.2617 45.4619 47.7601 45.4619C48.2579 45.4619 48.7118 45.6669 49.1217 46.0769L66.9042 63.9427C67.2159 64.31 67.3717 64.7777 67.3717 65.3461C67.3717 65.9144 67.1945 66.3547 66.8401 66.6669C66.4295 67.0347 65.9723 67.2216 65.4684 67.2277C64.964 67.2344 64.5556 67.0261 64.2434 66.6027ZM18.0576 62.1736C15.9892 59.4641 14.4551 56.5025 13.4551 53.2886C12.4551 50.0752 11.9551 46.8166 11.9551 43.5127C11.9551 39.3977 12.7137 35.4041 14.2309 31.5319C15.7481 27.6602 18.0792 24.1733 21.2242 21.0711C24.3698 17.9255 27.8709 15.605 31.7276 14.1094C35.5842 12.6133 39.5554 11.8652 43.6409 11.8652C46.9315 11.8652 50.1698 12.3622 53.3559 13.3561C56.542 14.3494 59.5387 15.8525 62.3459 17.8652C62.6754 18.2075 62.8645 18.6211 62.9134 19.1061C62.9629 19.5911 62.8165 20.0044 62.4742 20.3461L20.5001 62.3211C20.1156 62.7055 19.7087 62.8869 19.2792 62.8652C18.8498 62.8441 18.4426 62.6136 18.0576 62.1736ZM19.3909 58.2244L25.7051 51.8911C24.7734 50.6261 23.8631 49.2533 22.9742 47.7727C22.0854 46.2922 21.2873 44.6852 20.5801 42.9519C19.8729 41.2191 19.2948 39.3527 18.8459 37.3527C18.3976 35.3527 18.169 33.2438 18.1601 31.0261C15.9979 35.6027 15.1229 40.3077 15.5351 45.1411C15.9479 49.9744 17.2331 54.3355 19.3909 58.2244ZM28.5959 49.2502L49.3401 28.2761C46.9123 26.3616 44.3865 24.8636 41.7626 23.7819C39.1387 22.7008 36.657 21.9841 34.3176 21.6319C31.9776 21.2791 29.8909 21.2802 28.0576 21.6352C26.2242 21.9897 24.8076 22.6669 23.8076 23.6669C22.7648 24.6669 22.0756 26.0941 21.7401 27.9486C21.4051 29.8036 21.417 31.8838 21.7759 34.1894C22.1348 36.495 22.872 38.9533 23.9876 41.5644C25.1026 44.1755 26.6387 46.7375 28.5959 49.2502ZM58.5451 19.3019C54.1134 16.6991 49.5226 15.2716 44.7726 15.0194C40.0226 14.7672 35.5534 15.7694 31.3651 18.0261C33.6006 17.9361 35.6873 18.0844 37.6251 18.4711C39.5629 18.8583 41.3845 19.4375 43.0901 20.2086C44.7951 20.9797 46.3912 21.8344 47.8784 22.7727C49.3656 23.7105 50.7973 24.6369 52.1734 25.5519L58.5451 19.3019Z" fill="#E3891F"/>
</g>
</svg>
