<svg width="80" height="80" viewBox="0 0 80 80" fill="none" xmlns="http://www.w3.org/2000/svg">
<mask id="mask0_1123_1014" style="mask-type:alpha" maskUnits="userSpaceOnUse" x="0" y="0" width="80" height="80">
<rect width="80" height="80" fill="#D9D9D9"/>
</mask>
<g mask="url(#mask0_1123_1014)">
<path d="M16.2179 63.8399L41.1596 54.9999L25.0379 38.8783L16.2179 63.8399ZM74.0063 24.2374C73.7324 24.5535 73.3829 24.7116 72.9579 24.7116C72.5329 24.7116 72.1835 24.5749 71.9096 24.3016L71.7429 24.1349C70.6018 23.0494 69.2932 22.5033 67.8171 22.4966C66.3404 22.4905 65.0807 23.0366 64.0379 24.1349L46.0446 42.0449C45.7713 42.3183 45.4218 42.4658 44.9963 42.4874C44.5713 42.5085 44.2007 42.361 43.8846 42.0449C43.5679 41.7844 43.4096 41.4274 43.4096 40.9741C43.4096 40.5213 43.5679 40.1369 43.8846 39.8208L61.7563 21.9483C63.3202 20.3716 65.3404 19.5694 67.8171 19.5416C70.2932 19.5138 72.3413 20.3096 73.9613 21.9291L74.1729 22.1408C74.3907 22.4146 74.4857 22.778 74.4579 23.2308C74.4302 23.6835 74.2796 24.0191 74.0063 24.2374ZM32.1471 14.5124C32.4632 14.2391 32.834 14.1163 33.2596 14.1441C33.6846 14.1719 34.0552 14.2946 34.3713 14.5124L35.3396 15.5449C37.2413 17.4594 38.1782 19.7649 38.1504 22.4616C38.1227 25.1583 37.1793 27.4638 35.3204 29.3783L34.1854 30.4933C33.9677 30.7671 33.6354 30.8902 33.1888 30.8624C32.7421 30.8346 32.3329 30.656 31.9613 30.3266C31.6452 30.0105 31.4871 29.6538 31.4871 29.2566C31.4871 28.8588 31.6452 28.5019 31.9613 28.1858L33.2179 27.0124C34.5552 25.6752 35.2035 24.1346 35.1629 22.3908C35.1224 20.6474 34.474 19.1474 33.2179 17.8908L32.1471 16.8208C31.8738 16.5469 31.7263 16.1727 31.7046 15.6983C31.6835 15.2244 31.831 14.8291 32.1471 14.5124ZM45.1279 9.32076C45.3885 9.04687 45.759 8.92381 46.2396 8.95159C46.7207 8.97937 47.1193 9.10242 47.4354 9.32076L51.0763 13.0449C52.6835 14.7071 53.4902 16.7702 53.4963 19.2341C53.5029 21.6974 52.7027 23.7391 51.0954 25.3591L40.2179 36.2183C39.944 36.4916 39.5838 36.6388 39.1371 36.6599C38.691 36.6816 38.3096 36.5344 37.9929 36.2183C37.6768 35.9571 37.5188 35.6002 37.5188 35.1474C37.5188 34.6947 37.6768 34.3099 37.9929 33.9933L48.8329 23.1541C49.9185 22.1113 50.4579 20.7908 50.4513 19.1924C50.4452 17.5941 49.8993 16.2521 48.8138 15.1666L45.1279 11.5449C44.8546 11.3271 44.7071 10.981 44.6854 10.5066C44.6643 10.0321 44.8118 9.63687 45.1279 9.32076ZM67.1279 48.0958C66.8118 48.4124 66.4518 48.5708 66.0479 48.5708C65.644 48.5708 65.284 48.4124 64.9679 48.0958L63.0704 46.1983C61.7327 44.9166 60.2068 44.2758 58.4929 44.2758C56.7796 44.2758 55.2604 44.9166 53.9354 46.1983L51.9738 48.0766C51.7004 48.3505 51.3513 48.4841 50.9263 48.4774C50.5007 48.4713 50.1299 48.3099 49.8138 47.9933C49.4977 47.7755 49.3396 47.4402 49.3396 46.9874C49.3396 46.5341 49.4977 46.1494 49.8138 45.8333L51.5704 44.0766C53.4721 42.1749 55.7488 41.2071 58.4004 41.1733C61.0521 41.1388 63.3565 42.0724 65.3138 43.9741L67.2113 45.8716C67.429 46.1449 67.5488 46.5188 67.5704 46.9933C67.5915 47.4677 67.444 47.8352 67.1279 48.0958ZM12.1088 64.2883L21.9229 36.5574C22.2007 35.9335 22.5682 35.4658 23.0254 35.1541C23.4827 34.8419 23.9954 34.6858 24.5638 34.6858C24.9399 34.6858 25.301 34.7446 25.6471 34.8624C25.9932 34.9796 26.3115 35.1835 26.6021 35.4741L44.6213 53.3524C44.8563 53.643 45.0327 53.9583 45.1504 54.2983C45.2677 54.6377 45.3263 54.9805 45.3263 55.3266C45.3263 55.9377 45.1704 56.4858 44.8588 56.9708C44.5465 57.4558 44.0785 57.7883 43.4546 57.9683L15.6854 67.9491C15.1171 68.1713 14.5765 68.2374 14.0638 68.1474C13.551 68.0574 13.1002 67.7902 12.7113 67.3458C12.2668 66.9013 11.9996 66.4227 11.9096 65.9099C11.8202 65.3971 11.8865 64.8566 12.1088 64.2883Z" fill="#E3891F"/>
</g>
</svg>
