<svg width="48" height="48" viewBox="0 0 48 48" fill="none" xmlns="http://www.w3.org/2000/svg">
<mask id="mask0_4_1438" style="mask-type:alpha" maskUnits="userSpaceOnUse" x="0" y="0" width="48" height="48">
<rect width="48" height="48" fill="#D9D9D9"/>
</mask>
<g mask="url(#mask0_4_1438)">
<path d="M8.99993 39.1499L24.8499 33.4999L14.5999 23.2499L8.99993 39.1499ZM47.2499 13.3499C46.9833 13.6166 46.6583 13.7499 46.2749 13.7499C45.8916 13.7499 45.5666 13.6166 45.2999 13.3499L45.1999 13.2499C44.5666 12.6499 43.8583 12.3416 43.0749 12.3249C42.2916 12.3082 41.5999 12.6166 40.9999 13.2499L29.5499 24.6499C29.2833 24.9166 28.9583 25.0499 28.5749 25.0499C28.1916 25.0499 27.8666 24.9166 27.5999 24.6499C27.3333 24.4166 27.1999 24.0999 27.1999 23.6999C27.1999 23.2999 27.3333 22.9666 27.5999 22.6999L38.8999 11.3999C39.9666 10.2999 41.3583 9.74158 43.0749 9.72491C44.7916 9.70824 46.1999 10.2499 47.2999 11.3499L47.3499 11.3999C47.5833 11.6666 47.6916 11.9999 47.6749 12.3999C47.6583 12.7999 47.5166 13.1166 47.2499 13.3499ZM19.2499 6.89991C19.5166 6.63324 19.8416 6.50824 20.2249 6.52491C20.6083 6.54157 20.9333 6.66657 21.1999 6.89991L21.5499 7.24991C22.7166 8.44991 23.2916 9.91658 23.2749 11.6499C23.2583 13.3832 22.6666 14.8499 21.4999 16.0499L21.0499 16.4499C20.8166 16.7166 20.5083 16.8416 20.1249 16.8249C19.7416 16.8082 19.3999 16.6499 19.0999 16.3499C18.8333 16.0832 18.6999 15.7666 18.6999 15.3999C18.6999 15.0332 18.8333 14.7166 19.0999 14.4499L19.6999 13.8999C20.3999 13.1999 20.7249 12.4166 20.6749 11.5499C20.6249 10.6832 20.2999 9.94991 19.6999 9.34991L19.2499 8.89991C18.9833 8.63324 18.8499 8.29991 18.8499 7.89991C18.8499 7.49991 18.9833 7.16657 19.2499 6.89991ZM27.9999 2.89991C28.2333 2.63324 28.5583 2.50824 28.9749 2.52491C29.3916 2.54157 29.7333 2.66657 29.9999 2.89991L32.2999 5.24991C33.3666 6.34991 33.9083 7.74158 33.9249 9.42491C33.9416 11.1082 33.4166 12.4999 32.3499 13.5999L25.3999 20.4999C25.1333 20.7666 24.8083 20.8999 24.4249 20.8999C24.0416 20.8999 23.7166 20.7666 23.4499 20.4999C23.1833 20.2666 23.0499 19.9499 23.0499 19.5499C23.0499 19.1499 23.1833 18.8166 23.4499 18.5499L30.2999 11.6999C30.8999 11.0999 31.1916 10.3332 31.1749 9.39991C31.1583 8.46658 30.8499 7.69991 30.2499 7.09991L27.9999 4.84991C27.7333 4.61657 27.5999 4.29991 27.5999 3.89991C27.5999 3.49991 27.7333 3.16657 27.9999 2.89991ZM44.1999 29.0499C43.9333 29.3166 43.6083 29.4499 43.2249 29.4499C42.8416 29.4499 42.5166 29.3166 42.2499 29.0499L40.1499 26.9499C39.4499 26.2832 38.7333 25.9499 37.9999 25.9499C37.2666 25.9499 36.5666 26.2832 35.8999 26.9499L33.7999 28.9999C33.5333 29.2666 33.2083 29.3916 32.8249 29.3749C32.4416 29.3582 32.1166 29.2166 31.8499 28.9499C31.5833 28.7166 31.4499 28.3999 31.4499 27.9999C31.4499 27.5999 31.5833 27.2666 31.8499 26.9999L33.7499 25.0999C34.9166 23.9332 36.3083 23.3332 37.9249 23.2999C39.5416 23.2666 40.9499 23.8332 42.1499 24.9999L44.2499 27.0999C44.4833 27.3666 44.5999 27.6999 44.5999 28.0999C44.5999 28.4999 44.4666 28.8166 44.1999 29.0499ZM4.14993 41.6499L11.9999 19.5499C12.1666 19.1499 12.3999 18.8499 12.6999 18.6499C12.9999 18.4499 13.3333 18.3499 13.6999 18.3499C13.8999 18.3499 14.1166 18.3916 14.3499 18.4749C14.5833 18.5582 14.7999 18.6999 14.9999 18.8999L29.3499 33.0499C29.5166 33.2499 29.6416 33.4582 29.7249 33.6749C29.8083 33.8916 29.8499 34.1166 29.8499 34.3499C29.8499 34.7166 29.7499 35.0582 29.5499 35.3749C29.3499 35.6916 29.0499 35.9166 28.6499 36.0499L6.44993 43.9999C6.08327 44.1332 5.73327 44.1666 5.39993 44.0999C5.0666 44.0332 4.78327 43.8666 4.54993 43.5999C4.28327 43.3332 4.1166 43.0332 4.04993 42.6999C3.98327 42.3666 4.0166 42.0166 4.14993 41.6499Z" fill="#0D4168"/>
</g>
</svg>
