<svg width="22" height="22" viewBox="0 0 22 22" fill="none" xmlns="http://www.w3.org/2000/svg">
<path d="M10.776 13.35L3.126 21C2.75933 21.3667 2.33433 21.55 1.851 21.55C1.36767 21.55 0.942667 21.35 0.576 20.95C0.209333 20.5833 0.026 20.1583 0.026 19.675C0.026 19.1917 0.209333 18.7667 0.576 18.4L8.226 10.75L0.576 3.15C0.176 2.78333 -0.0156667 2.35833 0.001 1.875C0.0176667 1.39167 0.209333 0.95 0.576 0.55C0.942667 0.183333 1.36767 0 1.851 0C2.33433 0 2.776 0.183333 3.176 0.55L10.776 8.2L18.426 0.55C18.7593 0.183333 19.176 0 19.676 0C20.176 0 20.6093 0.183333 20.976 0.55C21.3427 0.916667 21.526 1.35 21.526 1.85C21.526 2.35 21.3427 2.78333 20.976 3.15L13.326 10.75L20.976 18.4C21.3427 18.8 21.526 19.2333 21.526 19.7C21.526 20.1667 21.3427 20.5833 20.976 20.95C20.6093 21.3167 20.1843 21.5 19.701 21.5C19.2177 21.5 18.7927 21.3167 18.426 20.95L10.776 13.35Z" fill="#0D4168"/>
</svg>
