<svg width="24" height="24" viewBox="0 0 24 24" fill="none" xmlns="http://www.w3.org/2000/svg">
<mask id="mask0_4_2578" style="mask-type:alpha" maskUnits="userSpaceOnUse" x="0" y="0" width="24" height="24">
<rect width="24" height="24" fill="#D9D9D9"/>
</mask>
<g mask="url(#mask0_4_2578)">
<path d="M12.0251 23.5252C9.64176 23.5252 7.70426 23.1529 6.2126 22.4084C4.72093 21.6641 3.9751 20.703 3.9751 19.5252C3.9751 19.0752 4.09593 18.6502 4.3376 18.2502C4.57926 17.8502 4.93343 17.4835 5.4001 17.1502C5.73343 16.9669 6.07926 16.9252 6.4376 17.0252C6.79593 17.1252 7.06676 17.3419 7.2501 17.6752C7.43343 18.0085 7.47093 18.3544 7.3626 18.7127C7.25426 19.071 7.03343 19.3419 6.7001 19.5252C6.98343 19.8919 7.65268 20.2085 8.70785 20.4752C9.76285 20.7419 10.8628 20.8752 12.0078 20.8752C13.1527 20.8752 14.2543 20.7419 15.3126 20.4752C16.3709 20.2085 17.0418 19.8919 17.3251 19.5252C16.9918 19.3419 16.7709 19.071 16.6626 18.7127C16.5543 18.3544 16.5918 18.0085 16.7751 17.6752C16.9584 17.3419 17.2293 17.1252 17.5876 17.0252C17.9459 16.9252 18.2918 16.9669 18.6251 17.1502C19.0918 17.4835 19.4459 17.8502 19.6876 18.2502C19.9293 18.6502 20.0501 19.0752 20.0501 19.5252C20.0501 20.703 19.3033 21.6641 17.8098 22.4084C16.3163 23.1529 14.3881 23.5252 12.0251 23.5252ZM12.0501 16.5002C13.7501 15.3002 15.0293 14.071 15.8876 12.8127C16.7459 11.5545 17.1751 10.292 17.1751 9.0252C17.1751 7.3087 16.6153 6.01286 15.4958 5.1377C14.3765 4.2627 13.214 3.8252 12.0083 3.8252C10.8028 3.8252 9.6376 4.2617 8.5126 5.1347C7.3876 6.0077 6.8251 7.30045 6.8251 9.01295C6.8251 10.1378 7.25426 11.3169 8.1126 12.5502C8.97093 13.7835 10.2834 15.1002 12.0501 16.5002ZM12.0001 19.2002C11.7334 19.2002 11.4751 19.1585 11.2251 19.0752C10.9751 18.9919 10.7418 18.8585 10.5251 18.6752C8.39876 16.9907 6.81301 15.3465 5.76785 13.7427C4.72268 12.1389 4.2001 10.5664 4.2001 9.0252C4.2001 7.73553 4.4376 6.60478 4.9126 5.63295C5.3876 4.66111 6.0001 3.84603 6.7501 3.1877C7.5001 2.52936 8.33651 2.03353 9.25935 1.7002C10.1822 1.36686 11.0958 1.2002 12.0001 1.2002C12.9099 1.2002 13.8291 1.36686 14.7576 1.7002C15.6859 2.03353 16.5251 2.52936 17.2751 3.1877C18.0251 3.84603 18.6334 4.66111 19.1001 5.63295C19.5668 6.60478 19.8001 7.73553 19.8001 9.0252C19.8001 10.5614 19.2751 12.1287 18.2251 13.7272C17.1751 15.3259 15.5918 16.9752 13.4751 18.6752C13.2584 18.8585 13.0251 18.9919 12.7751 19.0752C12.5251 19.1585 12.2668 19.2002 12.0001 19.2002ZM12.0001 11.1252C12.6334 11.1252 13.1668 10.9002 13.6001 10.4502C14.0334 10.0002 14.2501 9.46853 14.2501 8.8552C14.2501 8.24203 14.0334 7.71703 13.6001 7.2802C13.1668 6.84353 12.6334 6.6252 12.0001 6.6252C11.3668 6.6252 10.8334 6.84353 10.4001 7.2802C9.96676 7.71703 9.7501 8.24203 9.7501 8.8552C9.7501 9.46853 9.96676 10.0002 10.4001 10.4502C10.8334 10.9002 11.3668 11.1252 12.0001 11.1252Z" fill="#F2992F"/>
</g>
</svg>
