<svg width="149" height="32" viewBox="0 0 149 32" fill="none" xmlns="http://www.w3.org/2000/svg">
<g clip-path="url(#clip0_4_1372)">
<path d="M14.8313 0.134391C10.9377 0.352228 6.96731 0.864914 2.90106 1.74286C1.92286 1.9541 0.957445 2.20494 0.00268555 2.47339C0.328753 3.7496 0.682525 5.01481 1.06827 6.26683C5.17501 5.62652 9.42241 5.45709 13.5973 5.80475C13.9298 5.82895 14.8867 5.92137 14.8292 6.30423C10.8013 6.99955 6.42387 8.31537 2.35762 10.1175C2.9991 11.8932 3.70025 13.6403 4.45681 15.3544C19.6669 10.8744 37.9139 22.3779 51.2976 26.7215C67.4134 31.9474 89.0894 34.0091 105.909 29.5908C106.401 29.4587 107.622 29.2035 107.78 28.7898C96.0839 27.7204 85.2981 23.5089 75.6354 18.5295C73.939 17.6625 70.4865 16.0277 69.2014 15.0287C68.6729 14.6194 68.4939 14.6898 69.1929 14.2476C79.3393 18.1114 89.5455 22.0853 100.645 24.114C117.317 27.155 132.235 24.9282 145.262 19.2842C146.665 16.5184 147.916 13.6601 149.007 10.7182C127.491 17.5173 105.146 17.3303 82.6725 12.8459C60.3209 8.38138 39.9726 -0.609335 17.1905 0.0331738L14.8313 0.134391Z" fill="#F2992F" fill-opacity="0.4"/>
</g>
<defs>
<clipPath id="clip0_4_1372">
<rect width="149" height="32" fill="white"/>
</clipPath>
</defs>
</svg>
