<svg width="24" height="24" viewBox="0 0 24 24" fill="none" xmlns="http://www.w3.org/2000/svg">
<mask id="mask0_4_1518" style="mask-type:alpha" maskUnits="userSpaceOnUse" x="0" y="0" width="24" height="24">
<rect width="24" height="24" fill="#D9D9D9"/>
</mask>
<g mask="url(#mask0_4_1518)">
<path d="M12 22.8002C10.506 22.8002 9.10195 22.5167 7.78795 21.9497C6.47395 21.3827 5.33095 20.6132 4.35895 19.6412C3.38695 18.6692 2.61745 17.5262 2.05045 16.2122C1.48345 14.8982 1.19995 13.4942 1.19995 12.0002C1.19995 10.5062 1.48345 9.1022 2.05045 7.7882C2.61745 6.4742 3.38695 5.33119 4.35895 4.35919C5.33095 3.38719 6.47395 2.6177 7.78795 2.0507C9.10195 1.4837 10.506 1.2002 12 1.2002C13.494 1.2002 14.898 1.4837 16.212 2.0507C17.526 2.6177 18.669 3.38719 19.641 4.35919C20.613 5.33119 21.3825 6.4742 21.9495 7.7882C22.5165 9.1022 22.8 10.5062 22.8 12.0002C22.8 13.4942 22.5165 14.8982 21.9495 16.2122C21.3825 17.5262 20.613 18.6692 19.641 19.6412C18.669 20.6132 17.526 21.3827 16.212 21.9497C14.898 22.5167 13.494 22.8002 12 22.8002ZM12 17.4252C12.7688 16.659 13.4521 15.8674 14.05 15.0502C14.55 14.3669 15.0125 13.6053 15.4375 12.7654C15.8625 11.9258 16.075 11.0946 16.075 10.2719C16.075 9.14078 15.6791 8.17936 14.8875 7.3877C14.0958 6.59603 13.1333 6.2002 12 6.2002C10.8666 6.2002 9.90412 6.59603 9.11245 7.3877C8.32078 8.17936 7.92495 9.14078 7.92495 10.2719C7.92495 11.0946 8.13745 11.9258 8.56245 12.7654C8.98745 13.6053 9.45829 14.3669 9.97495 15.0502C10.5656 15.8674 11.2406 16.659 12 17.4252ZM12 11.7252C11.5903 11.7252 11.242 11.5845 10.9552 11.3032C10.6684 11.0219 10.525 10.6802 10.525 10.2782C10.525 9.87619 10.6684 9.52936 10.9552 9.2377C11.242 8.94603 11.5903 8.8002 12 8.8002C12.4096 8.8002 12.7579 8.94603 13.0447 9.2377C13.3315 9.52936 13.475 9.8752 13.475 10.2752C13.475 10.6752 13.3315 11.0169 13.0447 11.3002C12.7579 11.5835 12.4096 11.7252 12 11.7252Z" fill="#F2992F"/>
</g>
</svg>
