<svg width="48" height="48" viewBox="0 0 48 48" fill="none" xmlns="http://www.w3.org/2000/svg">
<mask id="mask0_4_1450" style="mask-type:alpha" maskUnits="userSpaceOnUse" x="0" y="0" width="48" height="48">
<rect width="48" height="48" fill="#D9D9D9"/>
</mask>
<g mask="url(#mask0_4_1450)">
<path d="M16.8 32.3L26.85 29.35C27.45 29.2166 27.9751 28.9276 28.4255 28.483C28.8761 28.0386 29.1843 27.4943 29.35 26.85L32.3 16.85C32.4 16.4953 32.325 16.19 32.075 15.934C31.825 15.678 31.5166 15.6 31.15 15.7L21.15 18.65C20.5056 18.8156 19.9613 19.1238 19.517 19.5745C19.0723 20.0248 18.7833 20.55 18.65 21.15L15.7 31.2C15.5666 31.5546 15.625 31.86 15.875 32.116C16.125 32.372 16.4333 32.4333 16.8 32.3ZM23.9765 25.5C23.5921 25.5 23.25 25.3421 22.95 25.0265C22.65 24.7108 22.5 24.3608 22.5 23.9765C22.5 23.5921 22.6578 23.25 22.9735 22.95C23.2891 22.65 23.6391 22.5 24.0235 22.5C24.4078 22.5 24.75 22.6578 25.05 22.9735C25.35 23.2891 25.5 23.6391 25.5 24.0235C25.5 24.4078 25.3421 24.75 25.0265 25.05C24.7108 25.35 24.3608 25.5 23.9765 25.5ZM23.9955 44.8C21.1281 44.8 18.4261 44.258 15.8895 43.174C13.3525 42.09 11.1453 40.6093 9.26795 38.732C7.39062 36.8546 5.90995 34.6463 4.82595 32.107C3.74195 29.5676 3.19995 26.863 3.19995 23.993C3.19995 21.1143 3.74345 18.4091 4.83045 15.8775C5.91712 13.3458 7.40045 11.1416 9.28045 9.26495C11.1601 7.38828 13.368 5.90828 15.904 4.82495C18.44 3.74162 21.141 3.19995 24.007 3.19995C26.8853 3.19995 29.5901 3.73979 32.1215 4.81945C34.6528 5.89945 36.8571 7.38279 38.7345 9.26945C40.6115 11.1565 42.0916 13.3673 43.175 15.902C44.2583 18.4366 44.8 21.1406 44.8 24.014C44.8 26.887 44.2583 29.5861 43.175 32.1115C42.0916 34.6371 40.6116 36.8368 38.735 38.7105C36.8583 40.5841 34.6515 42.0675 32.1145 43.1605C29.5775 44.2535 26.8711 44.8 23.9955 44.8ZM24.0245 41.15C28.8081 41.15 32.8583 39.4835 36.175 36.1505C39.4916 32.8178 41.15 28.7595 41.15 23.9755C41.15 19.1918 39.4916 15.1416 36.175 11.825C32.8583 8.50829 28.8081 6.84995 24.0245 6.84995C19.2405 6.84995 15.1821 8.50829 11.8495 11.825C8.51645 15.1416 6.84995 19.1918 6.84995 23.9755C6.84995 28.7595 8.51645 32.8178 11.8495 36.1505C15.1821 39.4835 19.2405 41.15 24.0245 41.15Z" fill="#0D4168"/>
</g>
</svg>
