<svg width="80" height="80" viewBox="0 0 80 80" fill="none" xmlns="http://www.w3.org/2000/svg">
<mask id="mask0_1123_1002" style="mask-type:alpha" maskUnits="userSpaceOnUse" x="0" y="0" width="80" height="80">
<rect width="80" height="80" fill="#D9D9D9"/>
</mask>
<g mask="url(#mask0_1123_1002)">
<path d="M30.052 51.7184L43.6603 47.3784C44.5748 47.199 45.3756 46.7706 46.0628 46.0934C46.7495 45.4167 47.2095 44.5843 47.4428 43.5959L51.7312 30.0567C51.8895 29.4745 51.7778 28.9915 51.3962 28.6076C51.0145 28.2237 50.5256 28.1151 49.9295 28.2817L36.4045 32.5576C35.4162 32.7909 34.5837 33.2509 33.907 33.9376C33.2298 34.6248 32.8014 35.4256 32.622 36.3401L28.2695 49.9626C28.0556 50.5448 28.1503 51.0384 28.5537 51.4434C28.9564 51.849 29.4559 51.9406 30.052 51.7184ZM39.9462 42.1151C39.4439 42.1151 38.9748 41.8793 38.5387 41.4076C38.1031 40.9354 37.8853 40.4481 37.8853 39.9459C37.8853 39.4437 38.1212 38.9745 38.5928 38.5384C39.0651 38.1029 39.5523 37.8851 40.0545 37.8851C40.5567 37.8851 41.0259 38.1209 41.462 38.5926C41.8975 39.0648 42.1153 39.552 42.1153 40.0542C42.1153 40.5565 41.8795 41.0256 41.4078 41.4618C40.9356 41.8973 40.4484 42.1151 39.9462 42.1151ZM40.0037 71.3334C35.6448 71.3334 31.5531 70.5179 27.7287 68.8868C23.9042 67.2556 20.5873 65.0368 17.7778 62.2301C14.9689 59.424 12.7484 56.1081 11.1162 52.2826C9.48338 48.457 8.66699 44.3626 8.66699 39.9993C8.66699 35.6648 9.48477 31.5895 11.1203 27.7734C12.7564 23.9573 14.9798 20.6345 17.7903 17.8051C20.6009 14.9756 23.9162 12.7454 27.7362 11.1142C31.5556 9.48258 35.6439 8.66675 40.0012 8.66675C44.3351 8.66675 48.4098 9.47869 52.2253 11.1026C56.0409 12.727 59.3639 14.9612 62.1945 17.8051C65.0245 20.6484 67.2551 23.979 68.8862 27.7967C70.5178 31.6145 71.3337 35.6862 71.3337 40.0118C71.3337 44.3806 70.5187 48.4679 68.8887 52.2734C67.2587 56.079 65.0303 59.3834 62.2037 62.1868C59.377 64.9895 56.0528 67.2145 52.2312 68.8617C48.4095 70.5095 44.3337 71.3334 40.0037 71.3334ZM40.0412 67.6859C47.7573 67.6859 54.2939 65.0048 59.6512 59.6426C65.0078 54.2798 67.6862 47.7187 67.6862 39.9592C67.6862 32.2431 65.0078 25.7065 59.6512 20.3492C54.2939 14.9926 47.7573 12.3142 40.0412 12.3142C32.2817 12.3142 25.7206 14.9926 20.3578 20.3492C14.9956 25.7065 12.3145 32.2431 12.3145 39.9592C12.3145 47.7187 14.9956 54.2798 20.3578 59.6426C25.7206 65.0048 32.2817 67.6859 40.0412 67.6859Z" fill="#E3891F"/>
</g>
</svg>
