<svg width="30" height="30" viewBox="0 0 30 30" fill="none" xmlns="http://www.w3.org/2000/svg">
<g clip-path="url(#clip0_4_2542)">
<path d="M14.5263 0C6.50372 0 0 6.50372 0 14.5263C0 21.3386 4.69026 27.055 11.0173 28.625V18.9656H8.02201V14.5263H11.0173V12.6135C11.0173 7.66931 13.255 5.37764 18.1091 5.37764C19.0295 5.37764 20.6175 5.55835 21.2671 5.73848V9.76227C20.9243 9.72624 20.3287 9.70823 19.589 9.70823C17.2073 9.70823 16.2869 10.6106 16.2869 12.9563V14.5263H21.0318L20.2166 18.9656H16.2869V28.9463C23.4798 28.0776 29.0532 21.9533 29.0532 14.5263C29.0526 6.50372 22.5489 0 14.5263 0Z" fill="#F2992F"/>
</g>
<defs>
<clipPath id="clip0_4_2542">
<rect width="29.0526" height="29.0526" fill="white"/>
</clipPath>
</defs>
</svg>
