<svg width="1090" height="335" viewBox="0 0 1090 335" fill="none" xmlns="http://www.w3.org/2000/svg">
<g clip-path="url(#clip0_1615_1593)">
<path d="M906.528 10.6539L902.863 25.6724H879.593L864.121 90.0988H846.234L861.706 25.6724H838.436L842.102 10.6539H906.528ZM803.753 28.0754C800.541 33.2001 797.378 38.2757 794.239 43.3269C791.186 48.3657 788.207 53.5272 785.302 58.799H806.732C806.352 54.1402 805.935 49.1749 805.469 43.8908C805.089 38.619 804.513 33.3472 803.753 28.0754ZM809.025 90.0865C808.878 87.1073 808.681 84.2017 808.448 81.3697C808.301 78.464 808.105 75.5952 807.872 72.7754H778.068C776.536 75.6075 774.93 78.464 773.25 81.3697C771.57 84.2017 769.964 87.1073 768.432 90.0865H749.747C754.713 81.529 759.335 73.6213 763.614 66.3634C767.966 59.1055 772.134 52.2644 776.107 45.8402C780.152 39.4159 784.088 33.3472 787.913 27.6095C791.738 21.7983 795.637 16.1464 799.609 10.6417H815.547C816.773 16.1464 817.913 22.2519 818.992 28.9826C820.132 35.6276 821.174 42.4687 822.082 49.5059C823.075 56.4573 823.957 63.4578 824.717 70.4828C825.563 77.4342 826.323 83.9688 827.01 90.0865H809.012H809.025ZM707.254 91.6926C702.596 91.6926 698.317 90.9324 694.418 89.4C690.519 87.8675 687.16 85.6974 684.328 82.8654C681.496 79.9597 679.289 76.4411 677.683 72.3218C676.151 68.1902 675.391 63.5313 675.391 58.3331C675.391 52.3747 676.42 46.4532 678.48 40.5684C680.54 34.6836 683.482 29.4118 687.307 24.7529C691.206 20.0206 695.938 16.1955 701.517 13.2898C707.095 10.3107 713.397 8.81494 720.434 8.81494C725.093 8.81494 729.371 9.57506 733.27 11.1076C737.169 12.6401 740.528 14.8469 743.36 17.7525C746.192 20.5845 748.362 24.0541 749.895 28.1857C751.501 32.3174 752.298 36.9762 752.298 42.1744C752.298 48.1328 751.268 54.0911 749.208 60.0618C747.222 65.9466 744.28 71.2552 740.381 75.9998C736.556 80.6586 731.86 84.4469 726.282 87.3525C720.704 90.2582 714.365 91.7048 707.254 91.7048V91.6926ZM718.595 24.1767C715.076 24.1767 711.791 25.0962 708.738 26.923C705.759 28.762 703.123 31.2017 700.83 34.2545C698.611 37.3072 696.858 40.8258 695.558 44.7981C694.332 48.7703 693.719 52.8651 693.719 57.0581C693.719 62.7957 694.909 67.4546 697.275 71.0467C699.714 74.5654 703.65 76.3185 709.081 76.3185C712.6 76.3185 715.849 75.399 718.828 73.5723C721.881 71.7333 724.516 69.2935 726.736 66.2408C729.028 63.1881 730.781 59.7062 732.007 55.8075C733.307 51.8353 733.957 47.7037 733.957 43.4249C733.957 37.6873 732.731 33.0652 730.291 29.5589C727.925 25.9667 724.026 24.1767 718.595 24.1767ZM623.322 41.9415H634.553C639.138 41.9415 642.534 40.9484 644.753 38.9623C647.045 36.9762 648.198 34.61 648.198 31.8515C648.198 30.4048 647.855 29.1788 647.168 28.1857C646.555 27.1191 645.721 26.2732 644.642 25.6602C643.576 25.0472 642.35 24.6303 640.977 24.3974C639.604 24.0909 638.181 23.9438 636.735 23.9438C635.129 23.9438 633.412 24.0173 631.573 24.1767C629.734 24.2503 628.361 24.3729 627.442 24.52L623.31 41.9415H623.322ZM619.988 55.3539L615.059 75.9875C616.285 76.2205 617.805 76.4044 619.644 76.5637C621.557 76.6373 623.31 76.6741 624.916 76.6741C627.209 76.6741 629.465 76.527 631.684 76.2205C633.976 75.8404 635.999 75.1906 637.765 74.2711C639.604 73.3516 641.087 72.0888 642.24 70.4828C643.38 68.8767 643.956 66.817 643.956 64.2915C643.956 63.2248 643.723 62.146 643.269 61.0793C642.889 60.0127 642.24 59.0564 641.32 58.2105C640.401 57.3646 639.174 56.678 637.654 56.1508C636.208 55.6114 634.442 55.3539 632.382 55.3539H620H619.988ZM621.594 91.1286C617.008 91.1286 612.313 90.9325 607.495 90.5524C602.677 90.1723 598.324 89.5593 594.425 88.7134L612.766 11.9045C617.119 11.0585 621.667 10.4946 626.412 10.1881C631.23 9.88156 635.619 9.73444 639.591 9.73444C644.177 9.73444 648.112 10.2371 651.398 11.2302C654.757 12.1497 657.479 13.4124 659.538 15.0185C661.684 16.6246 663.241 18.5371 664.234 20.7562C665.301 22.9017 665.84 25.1943 665.84 27.6341C665.84 29.3137 665.644 31.0791 665.264 32.9059C664.957 34.7449 664.271 36.5716 663.204 38.4106C662.211 40.1638 660.801 41.8557 658.962 43.4495C657.209 45.0555 654.88 46.5022 651.974 47.8018C655.419 49.3343 657.932 51.4307 659.538 54.1034C661.145 56.7025 661.941 59.6081 661.941 62.8203C661.941 66.486 661.218 70.0414 659.759 73.4865C658.312 76.8457 655.971 79.8617 652.771 82.5466C649.559 85.1457 645.39 87.2422 640.278 88.8483C635.153 90.3808 628.925 91.1409 621.594 91.1409V91.1286ZM532.169 28.0754C528.957 33.2001 525.794 38.2757 522.655 43.3269C519.603 48.3657 516.623 53.5272 513.718 58.799H535.148C534.768 54.1402 534.351 49.1749 533.886 43.8908C533.506 38.619 532.929 33.3472 532.169 28.0754ZM537.441 90.0865C537.294 87.1073 537.098 84.2017 536.865 81.3697C536.718 78.464 536.521 75.5952 536.289 72.7754H506.484C504.952 75.6075 503.346 78.464 501.666 81.3697C499.987 84.2017 498.381 87.1073 496.848 90.0865H478.164C483.129 81.529 487.751 73.6213 492.03 66.3634C496.382 59.1055 500.551 52.2644 504.523 45.8402C508.569 39.4159 512.504 33.3472 516.329 27.6095C520.154 21.7983 524.053 16.1464 528.025 10.6417H543.963C545.189 16.1464 546.329 22.2519 547.408 28.9826C548.561 35.6276 549.591 42.4687 550.498 49.5059C551.491 56.4573 552.374 63.4578 553.134 70.4828C553.98 77.4342 554.74 83.9688 555.426 90.0865H537.429H537.441ZM465.573 10.6539L461.907 25.6724H438.638L423.165 90.0988H405.278L420.75 25.6724H397.481L401.147 10.6539H465.573ZM358.028 90.0865C354.816 81.0632 351.224 72.0521 347.252 63.0287C343.353 54.0053 339.111 45.4846 334.526 37.4666L321.91 90.0865H304.366L323.394 10.6417H337.039C338.792 13.3144 340.668 16.4897 342.654 20.1554C344.714 23.7476 346.822 27.6463 348.956 31.8515C351.101 36.0567 353.234 40.4458 355.38 45.031C357.525 49.5427 359.548 54.0053 361.461 58.4434L372.814 10.6417H390.578L371.441 90.0865H358.028ZM236.311 90.0865L255.338 10.6417H307.272L303.606 25.3169H269.56L265.894 41.3653H295.931L292.376 55.8075H262.339L257.753 75.3009H294.435L290.77 90.0865H236.323H236.311ZM201.897 24.8633C200.597 24.8633 199.261 24.9001 197.888 24.9736C196.515 25.0472 195.362 25.1207 194.443 25.2066L189.281 46.9926H195.362C199.028 46.9926 202.13 46.6493 204.643 45.9628C207.156 45.2762 209.192 44.3567 210.724 43.2165C212.257 42.0641 213.323 40.7768 213.936 39.3178C214.623 37.7853 214.966 36.2651 214.966 34.7326C214.966 33.433 214.77 32.207 214.39 31.0669C214.01 29.8409 213.323 28.7742 212.33 27.8547C211.337 26.9352 210.001 26.2119 208.321 25.6724C206.642 25.133 204.496 24.8755 201.897 24.8755V24.8633ZM202.473 9.73444C207.598 9.73444 212.06 10.3474 215.886 11.5734C219.711 12.7994 222.874 14.4423 225.399 16.502C227.925 18.5616 229.788 21.0136 231.014 23.8334C232.24 26.5797 232.853 29.4853 232.853 32.5503C232.853 35.0759 232.547 37.5524 231.934 40.0044C231.394 42.4441 230.328 44.7858 228.722 46.9926C227.189 49.2117 225.093 51.2713 222.42 53.1839C219.821 55.0229 216.462 56.5799 212.33 57.8795C214.476 61.8517 216.646 66.6699 218.865 72.3218C221.157 77.9736 223.303 83.8952 225.289 90.0865H206.151C204.398 84.8147 202.596 79.6165 200.769 74.4918C199.016 69.2935 197.03 64.8186 194.811 61.0793H185.873L178.885 90.0865H161.12L179.804 11.7941C183.936 11.034 187.945 10.4946 191.844 10.1881C195.742 9.88156 199.298 9.73444 202.51 9.73444H202.473Z" fill="#144B51"/>
<path d="M897.715 1.839L894.049 16.8575H870.78L855.308 81.2838H837.42L852.892 16.8575H829.623L833.289 1.839H897.715ZM794.939 19.2605C791.727 24.3852 788.564 29.4608 785.426 34.5119C782.373 39.5508 779.394 44.7122 776.488 49.984H797.919C797.539 45.3252 797.122 40.3599 796.656 35.0759C796.276 29.8041 795.7 24.5323 794.939 19.2605ZM800.211 81.2716C800.064 78.2924 799.868 75.3868 799.635 72.5547C799.488 69.6491 799.292 66.7803 799.059 63.9604H769.255C767.722 66.7925 766.116 69.6491 764.436 72.5547C762.757 75.3868 761.151 78.2924 759.618 81.2716H740.934C745.899 72.7141 750.521 64.8064 754.8 57.5485C759.152 50.2905 763.321 43.4495 767.293 37.0252C771.339 30.601 775.274 24.5323 779.099 18.7946C782.924 12.9833 786.823 7.33148 790.796 1.82674H806.734C807.96 7.33148 809.1 13.437 810.179 20.1677C811.319 26.8126 812.361 33.6537 813.268 40.691C814.261 47.6424 815.144 54.6428 815.904 61.6678C816.75 68.6192 817.51 75.1538 818.197 81.2716H800.199H800.211ZM698.441 82.8776C693.782 82.8776 689.503 82.1175 685.605 80.585C681.706 79.0525 678.347 76.8825 675.515 74.0504C672.683 71.1448 670.476 67.6262 668.87 63.5068C667.337 59.3752 666.577 54.7164 666.577 49.5182C666.577 43.5598 667.607 37.6382 669.667 31.7534C671.726 25.8686 674.669 20.5968 678.494 15.938C682.392 11.2056 687.125 7.38052 692.703 4.4749C698.281 1.49572 704.583 0 711.62 0C716.279 0 720.558 0.76012 724.457 2.29262C728.355 3.82512 731.714 6.03192 734.547 8.93754C737.379 11.7696 739.549 15.2392 741.081 19.3708C742.687 23.5024 743.484 28.1612 743.484 33.3595C743.484 39.3178 742.454 45.2762 740.395 51.2468C738.408 57.1316 735.466 62.4402 731.567 67.1848C727.742 71.8436 723.047 75.632 717.468 78.5376C711.89 81.4432 705.552 82.8899 698.441 82.8899V82.8776ZM709.781 15.3618C706.263 15.3618 702.977 16.2813 699.924 18.108C696.945 19.947 694.309 22.3868 692.017 25.4395C689.798 28.4923 688.044 32.0109 686.745 35.9831C685.519 39.9554 684.906 44.0502 684.906 48.2431C684.906 53.9808 686.095 58.6396 688.461 62.2318C690.901 65.7504 694.836 67.5036 700.268 67.5036C703.786 67.5036 707.035 66.5841 710.014 64.7573C713.067 62.9183 715.703 60.4786 717.922 57.4259C720.215 54.3731 721.968 50.8913 723.194 46.9926C724.493 43.0204 725.143 38.8887 725.143 34.61C725.143 28.8723 723.917 24.2503 721.477 20.7439C719.111 17.1517 715.213 15.3618 709.781 15.3618ZM614.497 33.1265H625.727C630.312 33.1265 633.708 32.1335 635.927 30.1474C638.22 28.1612 639.372 25.7951 639.372 23.0366C639.372 21.5899 639.029 20.3639 638.342 19.3708C637.729 18.3042 636.896 17.4582 635.817 16.8452C634.75 16.2322 633.524 15.8154 632.151 15.5825C630.778 15.276 629.356 15.1288 627.909 15.1288C626.303 15.1288 624.587 15.2024 622.748 15.3618C620.909 15.4353 619.535 15.5579 618.616 15.7051L614.484 33.1265H614.497ZM611.174 46.539L606.246 67.1726C607.472 67.4055 608.992 67.5894 610.831 67.7488C612.743 67.8223 614.497 67.8591 616.103 67.8591C618.395 67.8591 620.651 67.712 622.87 67.4055C625.163 67.0255 627.186 66.3757 628.951 65.4562C630.79 64.5367 632.274 63.2739 633.426 61.6678C634.566 60.0618 635.142 58.0021 635.142 55.4765C635.142 54.4099 634.909 53.331 634.456 52.2644C634.076 51.1978 633.426 50.2415 632.507 49.3956C631.587 48.5496 630.361 47.8631 628.841 47.3359C627.394 46.7964 625.629 46.539 623.569 46.539H611.186H611.174ZM612.78 82.3014C608.195 82.3014 603.499 82.1053 598.681 81.7252C593.863 81.3451 589.511 80.7321 585.612 79.8862L603.953 3.07726C608.305 2.23132 612.854 1.66736 617.598 1.36086C622.417 1.05436 626.806 0.90724 630.778 0.90724C635.363 0.90724 639.299 1.4099 642.584 2.40296C645.943 3.32246 648.665 4.58524 650.725 6.1913C652.87 7.79736 654.427 9.70992 655.42 11.929C656.487 14.0745 657.026 16.3671 657.026 18.8068C657.026 20.4865 656.83 22.2519 656.45 24.0786C656.144 25.9177 655.457 27.7444 654.391 29.5834C653.398 31.3366 651.988 33.0285 650.149 34.6223C648.395 36.2283 646.066 37.675 643.16 38.9746C646.605 40.5071 649.119 42.6035 650.725 45.2762C652.331 47.8753 653.128 50.7809 653.128 53.9931C653.128 57.6588 652.405 61.2142 650.946 64.6593C649.499 68.0185 647.157 71.0345 643.957 73.7194C640.745 76.3185 636.577 78.415 631.464 80.021C626.34 81.5536 620.112 82.3137 612.78 82.3137V82.3014ZM523.356 19.2605C520.144 24.3852 516.98 29.4608 513.842 34.5119C510.789 39.5508 507.81 44.7122 504.904 49.984H526.335C525.955 45.3252 525.538 40.3599 525.072 35.0759C524.692 29.8041 524.116 24.5323 523.356 19.2605ZM528.627 81.2716C528.48 78.2924 528.284 75.3868 528.051 72.5547C527.904 69.6491 527.708 66.7803 527.475 63.9604H497.671C496.138 66.7925 494.532 69.6491 492.853 72.5547C491.173 75.3868 489.567 78.2924 488.035 81.2716H469.35C474.316 72.7141 478.938 64.8064 483.216 57.5485C487.569 50.2905 491.737 43.4495 495.709 37.0252C499.755 30.601 503.691 24.5323 507.516 18.7946C511.341 12.9833 515.24 7.33148 519.212 1.82674H535.15C536.376 7.33148 537.516 13.437 538.595 20.1677C539.747 26.8126 540.777 33.6537 541.684 40.691C542.677 47.6424 543.56 54.6428 544.32 61.6678C545.166 68.6192 545.926 75.1538 546.613 81.2716H528.615H528.627ZM456.759 1.839L453.094 16.8575H429.824L414.352 81.2838H396.465L411.937 16.8575H388.667L392.333 1.839H456.759ZM349.215 81.2716C346.002 72.2482 342.41 63.2371 338.438 54.2137C334.539 45.1904 330.297 36.6697 325.712 28.6516L313.097 81.2716H295.553L314.592 1.839H328.238C329.991 4.51168 331.867 7.68702 333.853 11.3528C335.912 14.9449 338.021 18.8436 340.154 23.0488C342.3 27.254 344.433 31.6431 346.579 36.2283C348.724 40.74 350.747 45.2026 352.66 49.6408L364.012 1.839H381.777L362.639 81.2838H349.227L349.215 81.2716ZM227.497 81.2716L246.525 1.839H298.458L294.792 16.5142H260.746L257.081 32.5626H287.118L283.562 47.0049H253.525L248.94 66.4983H285.622L281.956 81.2838H227.51L227.497 81.2716ZM193.083 16.0483C191.784 16.0483 190.448 16.0851 189.074 16.1587C187.701 16.2322 186.549 16.3058 185.629 16.3916L180.468 38.1777H186.549C190.215 38.1777 193.316 37.8344 195.83 37.1478C198.343 36.4613 200.378 35.5418 201.911 34.4016C203.443 33.2491 204.51 31.9618 205.123 30.5029C205.809 28.9704 206.153 27.4502 206.153 25.9177C206.153 24.6181 205.956 23.3921 205.576 22.2519C205.196 21.0259 204.51 19.9593 203.517 19.0398C202.524 18.1203 201.187 17.3969 199.508 16.8575C197.828 16.3181 195.683 16.0606 193.083 16.0606V16.0483ZM193.66 0.9195C198.784 0.9195 203.247 1.5325 207.072 2.7585C210.897 3.9845 214.06 5.62734 216.586 7.68702C219.111 9.7467 220.975 12.1987 222.201 15.0185C223.427 17.7647 224.04 20.6704 224.04 23.7354C224.04 26.2609 223.733 28.7375 223.12 31.1895C222.581 33.6292 221.514 35.9709 219.908 38.1777C218.376 40.3967 216.279 42.4564 213.607 44.369C211.008 46.208 207.648 47.765 203.517 49.0645C205.662 53.0368 207.832 57.855 210.051 63.5068C212.344 69.1587 214.489 75.0803 216.476 81.2716H197.338C195.584 75.9998 193.782 70.8015 191.956 65.6768C190.202 60.4786 188.216 56.0037 185.997 52.2644H177.06L170.071 81.2716H152.307L170.991 2.97918C175.123 2.21906 179.132 1.67962 183.03 1.37312C186.929 1.06662 190.484 0.9195 193.696 0.9195H193.66Z" fill="url(#paint0_linear_1615_1593)"/>
<path d="M1039.11 195.044L1052.84 137.717H1089.99L1087.34 148.395H1063.1L1060.21 160.643H1081.64L1079.08 171.321H1057.65L1051.93 195.069H1039.11V195.044ZM1003.47 196.209C1000.11 196.209 997.02 195.657 994.201 194.554C991.393 193.451 988.965 191.881 986.918 189.834C984.883 187.737 983.277 185.2 982.124 182.22C981.021 179.241 980.469 175.882 980.469 172.13C980.469 167.827 981.217 163.548 982.701 159.307C984.184 155.065 986.317 151.252 989.076 147.892C991.883 144.472 995.304 141.713 999.337 139.617C1003.36 137.471 1007.92 136.393 1012.98 136.393C1016.34 136.393 1019.43 136.944 1022.25 138.048C1025.06 139.151 1027.49 140.745 1029.53 142.841C1031.57 144.877 1033.15 147.39 1034.25 150.369C1035.41 153.348 1035.99 156.707 1035.99 160.459C1035.99 164.762 1035.25 169.065 1033.76 173.369C1032.33 177.611 1030.21 181.448 1027.39 184.869C1024.63 188.228 1021.23 190.962 1017.21 193.058C1013.19 195.155 1008.61 196.197 1003.48 196.197L1003.47 196.209ZM1011.66 147.476C1009.12 147.476 1006.75 148.138 1004.55 149.462C1002.4 150.786 1000.49 152.551 998.835 154.758C997.241 156.965 995.966 159.503 995.034 162.372C994.151 165.24 993.71 168.195 993.71 171.223C993.71 175.355 994.568 178.726 996.272 181.313C998.038 183.851 1000.88 185.114 1004.79 185.114C1007.33 185.114 1009.67 184.452 1011.83 183.128C1014.04 181.804 1015.94 180.038 1017.54 177.831C1019.2 175.625 1020.46 173.111 1021.34 170.304C1022.28 167.435 1022.75 164.456 1022.75 161.366C1022.75 157.235 1021.87 153.888 1020.11 151.35C1018.4 148.763 1015.58 147.463 1011.67 147.463L1011.66 147.476ZM962.435 137.717L959.787 148.555H942.99L931.822 195.044H918.912L930.081 148.555H913.284L915.933 137.717H962.423H962.435ZM883.713 147.966C882.782 147.966 881.813 147.991 880.82 148.052C879.827 148.101 879.005 148.162 878.343 148.211L874.616 163.929H879.005C881.654 163.929 883.885 163.683 885.712 163.181C887.526 162.69 888.997 162.028 890.101 161.195C891.204 160.373 891.977 159.429 892.418 158.387C892.908 157.284 893.166 156.18 893.166 155.077C893.166 154.145 893.031 153.262 892.749 152.429C892.479 151.546 891.977 150.774 891.265 150.112C890.554 149.449 889.586 148.922 888.372 148.542C887.158 148.162 885.614 147.966 883.738 147.966H883.713ZM884.13 137.055C887.82 137.055 891.057 137.496 893.816 138.379C896.574 139.261 898.867 140.451 900.681 141.934C902.496 143.418 903.857 145.183 904.739 147.23C905.622 149.217 906.063 151.313 906.063 153.52C906.063 155.334 905.843 157.137 905.401 158.902C905.021 160.667 904.249 162.347 903.084 163.953C901.981 165.547 900.461 167.043 898.536 168.416C896.66 169.74 894.232 170.868 891.253 171.812C892.798 174.681 894.367 178.15 895.973 182.233C897.628 186.315 899.173 190.594 900.608 195.057H886.791C885.528 191.256 884.228 187.505 882.904 183.802C881.641 180.05 880.207 176.826 878.601 174.117H872.152L867.101 195.044H854.277L867.763 138.538C870.742 137.986 873.636 137.606 876.455 137.386C879.263 137.165 881.838 137.055 884.155 137.055H884.13ZM829.843 150.283C827.526 153.973 825.233 157.651 822.977 161.293C820.77 164.934 818.625 168.661 816.529 172.462H832.001C831.731 169.102 831.424 165.51 831.093 161.709C830.824 157.909 830.407 154.096 829.855 150.295L829.843 150.283ZM833.656 195.044C833.545 192.899 833.411 190.802 833.239 188.755C833.129 186.659 832.994 184.587 832.822 182.551H811.306C810.202 184.587 809.05 186.659 807.836 188.755C806.622 190.79 805.47 192.887 804.367 195.044H790.881C794.461 188.865 797.807 183.164 800.897 177.917C804.036 172.682 807.051 167.741 809.92 163.107C812.838 158.473 815.683 154.084 818.441 149.952C821.2 145.759 824.007 141.677 826.876 137.704H838.376C839.259 141.677 840.08 146.09 840.852 150.945C841.674 155.739 842.422 160.68 843.084 165.755C843.795 170.77 844.432 175.821 844.984 180.896C845.585 185.911 846.136 190.631 846.639 195.044H833.656ZM745.506 195.044L759.238 137.717H796.716L794.068 148.309H769.499L766.851 159.895H788.527L785.964 170.316H764.289L760.978 184.378H787.448L784.8 195.057H745.506V195.044ZM733.442 137.717H746.352L732.535 195.044H719.625L725.498 170.635H705.146L699.274 195.044H686.45L700.181 137.717H713.091L707.794 159.723H728.146L733.442 137.717ZM617.451 195.044L631.182 137.717H668.661L666.012 148.309H641.443L638.795 159.895H660.471L657.909 170.316H636.233L632.923 184.378H659.392L656.744 195.057H617.451V195.044ZM605.387 137.717H618.296L604.479 195.044H591.57L597.442 170.635H577.091L571.218 195.044H558.394L572.125 137.717H585.035L579.739 159.723H600.09L605.387 137.717ZM564.205 137.717L561.557 148.555H544.761L533.592 195.044H520.682L531.851 148.555H515.055L517.703 137.717H564.193H564.205ZM466.714 195.044C464.397 188.534 461.81 182.024 458.941 175.514C456.133 169.004 453.068 162.862 449.758 157.063L440.661 195.032H428.009L441.74 137.704H451.585C452.848 139.629 454.209 141.922 455.643 144.57C457.126 147.157 458.647 149.977 460.191 153.005C461.736 156.033 463.281 159.208 464.826 162.519C466.37 165.768 467.829 169.004 469.215 172.204L477.404 137.704H490.228L476.411 195.032H466.726L466.714 195.044ZM415.945 137.717H428.855L415.038 195.044H402.214L415.945 137.717Z" fill="#144B51"/>
<path d="M1030.29 186.229L1044.02 128.902H1081.17L1078.52 139.58H1054.29L1051.39 151.828H1072.82L1070.26 162.506H1048.83L1043.12 186.254H1030.29V186.229ZM994.654 187.394C991.294 187.394 988.205 186.843 985.385 185.739C982.578 184.636 980.15 183.066 978.103 181.019C976.067 178.923 974.461 176.385 973.309 173.406C972.206 170.426 971.654 167.067 971.654 163.316C971.654 159.012 972.402 154.734 973.885 150.492C975.369 146.25 977.502 142.437 980.26 139.078C983.068 135.657 986.488 132.898 990.522 130.802C994.543 128.657 999.104 127.578 1004.17 127.578C1007.53 127.578 1010.62 128.129 1013.44 129.233C1016.24 130.336 1018.67 131.93 1020.72 134.026C1022.75 136.062 1024.34 138.575 1025.44 141.554C1026.59 144.533 1027.18 147.892 1027.18 151.644C1027.18 155.947 1026.43 160.251 1024.95 164.554C1023.51 168.796 1021.39 172.633 1018.57 176.054C1015.81 179.413 1012.42 182.147 1008.4 184.243C1004.38 186.34 999.791 187.382 994.666 187.382L994.654 187.394ZM1002.84 138.661C1000.31 138.661 997.939 139.323 995.732 140.647C993.587 141.971 991.674 143.736 990.019 145.943C988.426 148.15 987.15 150.688 986.219 153.557C985.336 156.425 984.895 159.38 984.895 162.408C984.895 166.54 985.753 169.911 987.457 172.498C989.222 175.036 992.067 176.299 995.978 176.299C998.516 176.299 1000.86 175.637 1003.01 174.313C1005.22 172.989 1007.12 171.223 1008.73 169.016C1010.38 166.81 1011.65 164.296 1012.53 161.489C1013.46 158.62 1013.94 155.641 1013.94 152.551C1013.94 148.42 1013.06 145.073 1011.29 142.535C1009.59 139.948 1006.77 138.648 1002.86 138.648L1002.84 138.661ZM953.619 128.902L950.971 139.74H934.175L923.006 186.229H910.096L921.265 139.74H904.469L907.117 128.902H953.607H953.619ZM874.898 139.151C873.966 139.151 872.998 139.176 872.005 139.237C871.011 139.286 870.19 139.347 869.528 139.396L865.801 155.114H870.19C872.838 155.114 875.07 154.868 876.896 154.366C878.711 153.875 880.182 153.213 881.285 152.38C882.389 151.558 883.161 150.614 883.602 149.572C884.093 148.469 884.35 147.365 884.35 146.262C884.35 145.33 884.215 144.447 883.934 143.614C883.664 142.731 883.161 141.959 882.45 141.297C881.739 140.635 880.77 140.107 879.557 139.727C878.343 139.347 876.798 139.151 874.922 139.151H874.898ZM875.302 128.24C878.993 128.24 882.229 128.681 884.988 129.564C887.746 130.446 890.039 131.636 891.853 133.119C893.668 134.603 895.029 136.368 895.912 138.415C896.794 140.402 897.236 142.498 897.236 144.705C897.236 146.519 897.015 148.322 896.574 150.087C896.194 151.852 895.421 153.532 894.256 155.138C893.153 156.732 891.633 158.228 889.708 159.601C887.832 160.925 885.405 162.053 882.426 162.997C883.97 165.866 885.54 169.335 887.146 173.418C888.801 177.5 890.346 181.779 891.78 186.242H877.963C876.7 182.441 875.401 178.69 874.076 174.987C872.814 171.236 871.379 168.011 869.773 165.302H863.324L858.273 186.229H845.449L858.935 129.723C861.915 129.171 864.808 128.791 867.628 128.571C870.435 128.35 873.01 128.24 875.327 128.24H875.302ZM821.027 141.468C818.71 145.158 816.418 148.836 814.162 152.478C811.955 156.119 809.81 159.846 807.713 163.647H823.185C822.915 160.287 822.609 156.695 822.278 152.895C822.008 149.094 821.591 145.281 821.04 141.48L821.027 141.468ZM824.84 186.229C824.73 184.084 824.595 181.988 824.423 179.94C824.313 177.844 824.178 175.772 824.007 173.737H802.49C801.387 175.772 800.234 177.844 799.021 179.94C797.807 181.975 796.655 184.072 795.551 186.229H782.065C785.645 180.05 788.992 174.35 792.082 169.102C795.22 163.867 798.236 158.926 801.105 154.292C804.023 149.658 806.867 145.269 809.626 141.137C812.384 136.944 815.192 132.862 818.061 128.889H829.56C830.443 132.862 831.264 137.275 832.037 142.13C832.858 146.924 833.606 151.865 834.268 156.94C834.979 161.955 835.617 167.006 836.169 172.081C836.769 177.096 837.321 181.816 837.824 186.229H824.84ZM736.691 186.229L750.422 128.902H787.901L785.253 139.494H760.684L758.035 151.08H779.711L777.149 161.501H755.473L752.163 175.563H778.632L775.984 186.242H736.691V186.229ZM724.627 128.902H737.537L723.72 186.229H710.81L716.683 161.82H696.331L690.458 186.229H677.634L691.366 128.902H704.275L698.979 150.908H719.331L724.627 128.902ZM608.635 186.229L622.366 128.902H659.845L657.197 139.494H632.628L629.98 151.08H651.655L649.093 161.501H627.417L624.107 175.563H650.577L647.928 186.242H608.635V186.229ZM596.571 128.902H609.481L595.664 186.229H582.754L588.627 161.82H568.275L562.403 186.229H549.579L563.31 128.902H576.22L570.923 150.908H591.275L596.571 128.902ZM555.39 128.902L552.742 139.74H535.946L524.777 186.229H511.867L523.036 139.74H506.24L508.888 128.902H555.378H555.39ZM457.886 186.229C455.569 179.719 452.982 173.209 450.113 166.699C447.306 160.189 444.241 154.047 440.93 148.248L431.834 186.217H419.181L432.912 128.889H442.757C444.02 130.814 445.381 133.107 446.815 135.755C448.299 138.342 449.819 141.162 451.364 144.19C452.909 147.218 454.453 150.394 455.998 153.704C457.543 156.953 459.002 160.189 460.387 163.389L468.577 128.889H481.401L467.584 186.217H457.898L457.886 186.229ZM407.13 128.902H420.039L406.222 186.229H393.398L407.13 128.902Z" fill="url(#paint1_linear_1615_1593)"/>
<path d="M633.155 319.643C634.921 319.643 636.699 319.533 638.464 319.3C640.229 318.993 641.811 318.491 643.196 317.804C644.582 317.105 645.697 316.149 646.543 314.911C647.463 313.599 647.929 311.944 647.929 309.945C647.929 308.401 647.5 307.101 646.654 306.022C645.808 304.87 644.729 303.828 643.417 302.908C642.105 301.989 640.646 301.143 639.028 300.37C637.41 299.598 635.791 298.752 634.173 297.832C632.089 296.606 630.127 295.295 628.288 293.909C626.437 292.524 624.868 290.979 623.556 289.287C622.244 287.522 621.202 285.597 620.442 283.513C619.669 281.355 619.289 278.891 619.289 276.12C619.289 272.577 619.939 269.303 621.251 266.3C622.636 263.222 624.635 260.562 627.258 258.331C629.955 256.099 633.302 254.371 637.311 253.133C641.321 251.821 646.016 251.171 651.398 251.171C653.862 251.171 656.253 251.404 658.558 251.87C660.863 252.25 663.021 252.752 665.031 253.365C667.03 253.978 668.844 254.714 670.463 255.56C672.154 256.332 673.577 257.105 674.741 257.865L667.238 271.142C665.313 269.684 662.959 268.445 660.189 267.452C657.418 266.447 654.414 265.956 651.178 265.956C649.412 265.956 647.708 266.116 646.09 266.422C644.471 266.729 643.049 267.268 641.811 268.041C640.585 268.739 639.58 269.659 638.807 270.811C638.108 271.964 637.765 273.386 637.765 275.09C637.765 276.635 638.035 277.934 638.574 279.013C639.187 280.019 639.96 280.901 640.879 281.674C641.799 282.446 642.878 283.133 644.116 283.758C645.342 284.371 646.654 285.033 648.039 285.72C650.43 286.946 652.735 288.257 654.966 289.643C657.197 291.028 659.159 292.647 660.851 294.498C662.543 296.263 663.891 298.311 664.897 300.616C665.902 302.92 666.392 305.654 666.392 308.817C666.392 313.207 665.583 317.019 663.965 320.256C662.346 323.493 660.078 326.19 657.148 328.335C654.218 330.493 650.724 332.075 646.641 333.068C642.632 334.147 638.17 334.686 633.241 334.686C630.005 334.686 626.964 334.416 624.12 333.877C621.349 333.337 618.811 332.724 616.494 332.026C614.263 331.253 612.301 330.444 610.609 329.598C608.991 328.752 607.679 327.98 606.686 327.293L614.312 313.55C615.231 314.163 616.347 314.825 617.659 315.511C618.97 316.198 620.429 316.86 622.048 317.473C623.74 318.086 625.517 318.625 627.356 319.091C629.208 319.471 631.132 319.668 633.131 319.668L633.155 319.643ZM579.076 333.043C575.84 323.959 572.223 314.874 568.214 305.789C564.291 296.705 560.012 288.123 555.39 280.031L542.689 333.043H525.022L544.197 253.01H557.94C559.706 255.707 561.594 258.895 563.604 262.597C565.689 266.214 567.797 270.137 569.955 274.379C572.113 278.609 574.271 283.047 576.428 287.657C578.586 292.205 580.621 296.705 582.546 301.167L593.985 253.01H611.884L592.599 333.043H579.089H579.076ZM456.452 333.043L475.627 253.01H527.94L524.25 267.795H489.946L486.256 283.966H516.514L512.934 298.519H482.676L478.054 318.147H515.006L511.315 333.043H456.452ZM439.607 252.998H457.629L438.344 333.031H420.322L428.524 298.96H400.117L391.915 333.031H374.016L393.19 252.998H411.212L403.82 283.721H432.226L439.619 252.998H439.607ZM382.119 252.998L378.429 268.126H354.988L339.393 333.031H321.371L336.966 268.126H313.525L317.215 252.998H382.119ZM278.571 270.554C275.335 275.715 272.147 280.828 268.984 285.916C265.907 290.991 262.903 296.19 259.973 301.51H281.575C281.195 296.815 280.766 291.813 280.3 286.492C279.92 281.183 279.332 275.863 278.571 270.554ZM283.892 333.043C283.733 330.04 283.549 327.109 283.316 324.265C283.157 321.335 282.973 318.454 282.74 315.597H252.715C251.17 318.442 249.564 321.335 247.86 324.265C246.168 327.109 244.55 330.04 243.005 333.043H224.174C229.176 324.424 233.835 316.455 238.15 309.136C242.539 301.817 246.732 294.927 250.741 288.466C254.824 281.993 258.784 275.875 262.633 270.1C266.483 264.252 270.406 258.551 274.415 253.01H290.464C291.69 258.551 292.854 264.718 293.933 271.486C295.086 278.18 296.128 285.07 297.047 292.156C298.053 299.157 298.935 306.206 299.708 313.292C300.554 320.293 301.326 326.876 302.013 333.043H283.88H283.892Z" fill="#144B51"/>
<path d="M624.329 310.828C626.095 310.828 627.872 310.718 629.638 310.485C631.403 310.178 632.985 309.675 634.37 308.989C635.755 308.29 636.871 307.334 637.717 306.095C638.637 304.784 639.102 303.129 639.102 301.13C639.102 299.585 638.673 298.286 637.827 297.207C636.982 296.055 635.903 295.012 634.591 294.093C633.279 293.173 631.82 292.327 630.202 291.555C628.583 290.783 626.965 289.937 625.347 289.017C623.263 287.791 621.301 286.479 619.462 285.094C617.611 283.709 616.041 282.164 614.73 280.472C613.418 278.707 612.376 276.782 611.616 274.698C610.843 272.54 610.463 270.076 610.463 267.305C610.463 263.762 611.113 260.488 612.425 257.485C613.81 254.407 615.808 251.747 618.432 249.516C621.129 247.284 624.476 245.556 628.485 244.317C632.494 243.006 637.19 242.356 642.572 242.356C645.036 242.356 647.427 242.589 649.732 243.055C652.037 243.435 654.195 243.937 656.205 244.55C658.204 245.163 660.018 245.899 661.636 246.745C663.328 247.517 664.75 248.29 665.915 249.05L658.412 262.327C656.487 260.868 654.133 259.63 651.362 258.637C648.592 257.632 645.588 257.141 642.351 257.141C640.586 257.141 638.882 257.301 637.263 257.607C635.645 257.914 634.223 258.453 632.985 259.225C631.759 259.924 630.753 260.844 629.981 261.996C629.282 263.149 628.939 264.571 628.939 266.275C628.939 267.82 629.209 269.119 629.748 270.198C630.361 271.204 631.133 272.086 632.053 272.859C632.972 273.631 634.051 274.318 635.29 274.943C636.516 275.556 637.827 276.218 639.213 276.904C641.604 278.13 643.908 279.442 646.14 280.828C648.371 282.213 650.333 283.831 652.025 285.683C653.716 287.448 655.065 289.495 656.07 291.8C657.076 294.105 657.566 296.839 657.566 300.002C657.566 304.391 656.757 308.204 655.139 311.441C653.52 314.677 651.252 317.375 648.322 319.52C645.392 321.678 641.898 323.26 637.815 324.253C633.806 325.331 629.344 325.871 624.415 325.871C621.178 325.871 618.138 325.601 615.294 325.062C612.523 324.522 609.985 323.909 607.668 323.21C605.437 322.438 603.475 321.629 601.783 320.783C600.165 319.937 598.853 319.165 597.86 318.478L605.486 304.735C606.405 305.348 607.521 306.01 608.833 306.696C610.144 307.383 611.603 308.045 613.222 308.658C614.913 309.271 616.691 309.81 618.53 310.276C620.381 310.656 622.306 310.852 624.305 310.852L624.329 310.828ZM570.263 324.216C567.026 315.131 563.409 306.046 559.4 296.962C555.477 287.877 551.198 279.295 546.576 271.204L533.875 324.216H516.208L535.383 244.182H549.126C550.892 246.88 552.78 250.067 554.79 253.77C556.875 257.386 558.983 261.31 561.141 265.552C563.299 269.781 565.457 274.219 567.614 278.829C569.772 283.378 571.807 287.877 573.732 292.34L585.171 244.182H603.07L583.785 324.216H570.275H570.263ZM447.638 324.216L466.813 244.182H519.126L515.436 258.968H481.132L477.442 275.139H507.7L504.12 289.692H473.862L469.24 309.32H506.192L502.501 324.216H447.638ZM430.793 244.182H448.815L429.53 324.216H411.508L419.71 290.145H391.303L383.101 324.216H365.202L384.376 244.182H402.399L395.006 274.906H423.412L430.805 244.182H430.793ZM373.306 244.182L369.615 259.311H346.174L330.579 324.216H312.557L328.152 259.311H304.711L308.401 244.182H373.306ZM269.758 261.739C266.521 266.9 263.333 272.013 260.17 277.101C257.093 282.176 254.089 287.374 251.159 292.695H272.761C272.381 288 271.952 282.998 271.486 277.677C271.106 272.368 270.518 267.047 269.758 261.739ZM275.066 324.216C274.907 321.212 274.723 318.282 274.49 315.438C274.331 312.507 274.147 309.626 273.914 306.77H243.889C242.344 309.614 240.738 312.507 239.034 315.438C237.342 318.282 235.724 321.212 234.179 324.216H215.348C220.35 315.597 225.009 307.628 229.324 300.309C233.713 292.99 237.906 286.099 241.915 279.638C245.998 273.165 249.958 267.047 253.807 261.273C257.657 255.425 261.58 249.724 265.589 244.182H281.638C282.864 249.724 284.028 255.891 285.107 262.658C286.26 269.352 287.302 276.242 288.221 283.329C289.226 290.329 290.109 297.379 290.882 304.465C291.727 311.465 292.5 318.049 293.186 324.216H275.054H275.066Z" fill="url(#paint2_linear_1615_1593)"/>
<path d="M478.299 108.575V104.897H55.1084V108.575V112.253H478.299V108.575Z" fill="white"/>
<path d="M295.356 126.719V125.248H0V126.719V128.19H295.356V126.719Z" fill="white"/>
<path d="M1004.72 235.454V233.982H709.363V235.454V236.925H1004.72V235.454Z" fill="white"/>
<path d="M960.277 218.78V215.102H537.074V218.78V222.458H960.277V218.78Z" fill="white"/>
<line x1="174.713" y1="5.19172" x2="157.549" y2="76.2998" stroke="#144B51" stroke-width="2.452"/>
<line x1="249.499" y1="5.19172" x2="232.335" y2="76.2998" stroke="#144B51" stroke-width="2.452"/>
<line x1="318.156" y1="5.19172" x2="300.992" y2="76.2998" stroke="#144B51" stroke-width="2.452"/>
<line x1="607.492" y1="5.19172" x2="590.328" y2="76.2998" stroke="#144B51" stroke-width="2.452"/>
<line x1="415.013" y1="17.4379" x2="401.527" y2="76.2859" stroke="#144B51" stroke-width="2.452"/>
<line x1="331.645" y1="260.186" x2="318.159" y2="319.034" stroke="#144B51" stroke-width="2.452"/>
<line x1="386.814" y1="246.705" x2="369.65" y2="320.265" stroke="#144B51" stroke-width="2.452"/>
<line x1="470.182" y1="246.705" x2="453.018" y2="320.265" stroke="#144B51" stroke-width="2.452"/>
<line x1="538.838" y1="246.705" x2="521.674" y2="320.265" stroke="#144B51" stroke-width="2.452"/>
<line x1="587.88" y1="246.695" x2="576.846" y2="295.735" stroke="#144B51" stroke-width="2.452"/>
<line x1="607.339" y1="308.376" x2="601.209" y2="318.184" stroke="#144B51" stroke-width="2.452"/>
<line x1="434.623" y1="245.498" x2="427.267" y2="274.922" stroke="#144B51" stroke-width="2.452"/>
<line x1="423.59" y1="290.859" x2="416.234" y2="320.284" stroke="#144B51" stroke-width="2.452"/>
<line x1="855.147" y1="17.4379" x2="841.661" y2="76.2859" stroke="#144B51" stroke-width="2.452"/>
<line x1="530.285" y1="63.6579" x2="531.511" y2="79.5959" stroke="#144B51" stroke-width="2.452"/>
<line x1="276.503" y1="306.406" x2="277.729" y2="322.344" stroke="#144B51" stroke-width="2.452"/>
<line x1="801.843" y1="63.6579" x2="803.069" y2="79.5959" stroke="#144B51" stroke-width="2.452"/>
<path d="M526.606 18.2958C528.172 30.741 528.656 37.7359 529.058 50.1718" stroke="#144B51" stroke-width="2.452"/>
<path d="M272.21 261.044C273.776 273.489 274.877 280.578 275.279 293.014" stroke="#144B51" stroke-width="2.452"/>
<path d="M798.165 18.2958C799.731 30.741 800.215 37.7359 800.617 50.1718" stroke="#144B51" stroke-width="2.452"/>
<path d="M521.093 4.90405C515.167 12.0557 498.534 37.0253 474.505 79.6901" stroke="#144B51" stroke-width="2.452"/>
<path d="M266.698 247.652C260.773 254.804 244.14 279.773 220.11 322.438" stroke="#144B51" stroke-width="2.452"/>
<path d="M792.652 4.90405C786.727 12.0557 770.094 37.0253 746.064 79.6901" stroke="#144B51" stroke-width="2.452"/>
<line x1="395.399" y1="3.94394" x2="392.947" y2="14.9779" stroke="#144B51" stroke-width="2.452"/>
<line x1="312.023" y1="246.723" x2="309.571" y2="256.531" stroke="#144B51" stroke-width="2.452"/>
<line x1="835.533" y1="3.94394" x2="833.081" y2="14.9779" stroke="#144B51" stroke-width="2.452"/>
<line x1="367.195" y1="5.19456" x2="354.935" y2="55.4606" stroke="#144B51" stroke-width="2.452"/>
<path d="M689.747 78.4732C674.242 73.6055 666.715 53.6014 672.934 33.7928C677.116 20.4721 686.45 10.6319 696.83 7.09527" stroke="#144B51" stroke-width="2.452"/>
<path d="M630.867 247.322C623.483 248.682 617.243 253.633 614.98 260.841C612.701 268.1 615.039 275.785 620.399 281.126" stroke="#144B51" stroke-width="2.452"/>
<path d="M641.854 297.305C643.489 302.618 641.486 313.243 627.755 313.243" stroke="#144B51" stroke-width="2.452"/>
</g>
<defs>
<linearGradient id="paint0_linear_1615_1593" x1="524.986" y1="0" x2="524.986" y2="82.8776" gradientUnits="userSpaceOnUse">
<stop stop-color="white"/>
<stop offset="0.62" stop-color="#FCFEFF"/>
<stop offset="0.87" stop-color="#BBE5EA"/>
</linearGradient>
<linearGradient id="paint1_linear_1615_1593" x1="737.292" y1="127.578" x2="737.292" y2="187.394" gradientUnits="userSpaceOnUse">
<stop stop-color="white"/>
<stop offset="0.62" stop-color="#FCFEFF"/>
<stop offset="0.87" stop-color="#BBE5EA"/>
</linearGradient>
<linearGradient id="paint2_linear_1615_1593" x1="440.638" y1="242.343" x2="440.638" y2="325.834" gradientUnits="userSpaceOnUse">
<stop stop-color="white"/>
<stop offset="0.62" stop-color="#FCFEFF"/>
<stop offset="0.87" stop-color="#BBE5EA"/>
</linearGradient>
<clipPath id="clip0_1615_1593">
<rect width="1090" height="334.661" fill="white"/>
</clipPath>
</defs>
</svg>
