<svg width="233" height="366" viewBox="0 0 233 366" fill="none" xmlns="http://www.w3.org/2000/svg">
<path d="M18.1447 262.337C19.4351 265.007 20.7888 267.636 22.2059 270.227C26.4571 278.006 31.2545 285.446 36.5506 292.493C38.316 294.839 40.1368 297.146 42.013 299.406C46.6996 305.051 51.7187 310.421 57.0465 315.468C58.1153 316.476 59.1919 317.476 60.2765 318.46C92.9559 347.993 136.354 366 183.996 366C215.749 366 245.626 358.001 271.703 343.915C286.04 336.167 299.229 326.577 310.946 315.468C313.075 313.444 315.157 311.381 317.192 309.256C323.287 302.902 328.924 296.107 334.054 288.934C336.619 285.344 339.057 281.667 341.361 277.888C358.263 250.22 368 217.742 368 182.996C368 148.25 358.263 115.772 341.361 88.1046C339.057 84.3331 336.619 80.6483 334.054 77.058C328.924 69.8853 323.287 63.0904 317.192 56.7365C315.157 54.6185 313.075 52.5478 310.946 50.5243C299.229 39.4148 286.04 29.8248 271.703 22.0773C245.634 7.99949 215.757 0 183.996 0C136.362 0 92.9559 17.9988 60.2765 47.5402C59.184 48.5244 58.1073 49.5244 57.0465 50.5322C51.7187 55.5791 46.6996 60.9488 42.013 66.5941C40.1368 68.8538 38.316 71.1608 36.5506 73.5071C31.2545 80.5539 26.4571 87.9943 22.2059 95.7733C20.7888 98.3637 19.4351 100.993 18.1447 103.663C16.8543 106.332 15.6272 109.032 14.4635 111.772C5.14575 133.661 0 157.73 0 182.996C0 208.262 5.14575 232.331 14.4556 254.228C15.6193 256.968 16.8464 259.668 18.1368 262.337H18.1447ZM101.189 135.645C101.648 134.322 102.29 133.031 102.844 131.74C103.92 129.236 105.021 126.732 106.2 124.275C119.864 95.7419 150.311 78.6721 180.885 74.2787C194.533 72.3103 208.537 72.9953 221.94 76.2156C235.224 79.4043 247.89 85.0575 259.124 92.7972C270.563 100.679 280.475 110.702 288.178 122.236C290.956 126.393 293.45 130.747 295.635 135.243C296.751 137.534 297.788 139.873 298.738 142.235C299.205 143.392 299.657 144.565 300.084 145.739C300.29 146.298 301.572 148.833 301.327 149.321L300.717 150.471H291.075C280.997 124.079 262.481 102.828 236.134 91.687C208.553 80.0185 168.622 80.1444 143.701 98.5763C137.352 103.277 132.262 109.402 127.876 115.906C123.981 121.677 118.756 128.543 116.642 135.204C116.128 136.834 114.956 136.416 113.381 136.55C111.979 136.668 110.578 136.826 109.185 137.046C106.232 137.519 103.319 138.251 100.405 138.912C100.595 138.873 101.023 136.086 101.173 135.645H101.189ZM72.0721 152.707C94.2305 144.691 118.067 139.503 141.381 135.865C164.102 132.33 188.081 128.96 210.825 133.795C226.627 137.149 238.288 147.534 251.389 156.092C283.285 155.549 315.133 152.967 346.982 152.156C346.633 154.069 345.2 155.762 343.261 156.069C333.801 157.549 321.419 156.699 311.531 157.234C248.73 160.635 184.614 164.517 122.754 176.012C107.309 178.886 91.9109 182.532 76.5845 185.98C74.6054 185.665 75.1833 184.177 75.6583 182.776C76.4183 180.524 84.4694 166.54 85.9498 165.367C88.5306 163.32 96.2492 166.517 99.9066 166.816C118.004 168.288 142.031 163.69 160.611 162.312C187.25 160.344 213.992 159.383 240.607 157.218C241.446 157.147 242.254 157.675 242.016 156.384C234.907 150.455 226.373 143.723 217.182 141.581C205.252 138.802 188.287 141.211 175.929 142.558C136.307 146.888 97.4288 156.864 57.6244 159.478C61.1394 155.982 67.3143 154.423 72.08 152.699L72.0721 152.707ZM22.5621 225.379C31.5711 223.505 40.3664 222.411 48.9875 221.946C51.1171 215.506 54.5607 205.128 59.1682 203.081C131.042 190.46 203.36 174.099 275.844 165.21C297.78 162.517 319.82 161.021 341.868 159.494C342.438 160.045 334.489 171.635 333.595 172.989C321.562 191.185 308.412 211.734 294.764 228.607C283.388 242.662 279.533 245.425 261.016 247.519C237.908 250.133 216.96 247.047 194.683 241.276C151.396 230.064 116.603 207.703 69.4122 216.655C64.1318 217.655 59.0573 219.458 54.2124 221.734C104.672 220.364 149.741 239.544 199.235 249.071C249.015 258.637 298.501 259.038 346.158 244.528C343.744 250.803 340.973 256.905 337.862 262.802C309.006 274.841 275.962 279.596 239.04 273.108C214.459 268.786 191.849 260.298 169.382 252.062C167.838 253.007 168.234 252.858 169.406 253.732C172.256 255.865 179.903 259.353 183.656 261.204C205.054 271.825 228.946 280.809 254.849 283.092C254.501 283.974 251.793 284.525 250.709 284.801C213.453 294.225 165.448 289.824 129.752 278.675C100.105 269.408 59.6907 244.866 26.0058 254.425C24.3275 250.763 22.7759 247.039 21.3588 243.252C30.3678 239.402 40.0577 236.599 48.9875 235.119C49.1142 234.3 46.9925 234.103 46.2642 234.056C37.0177 233.316 27.6129 233.678 18.5168 235.04C17.6697 232.371 16.878 229.67 16.1576 226.946C18.2793 226.379 20.4088 225.844 22.5779 225.387L22.5621 225.379Z" fill="white" fill-opacity="0.1"/>
</svg>
