<svg width="48" height="48" viewBox="0 0 48 48" fill="none" xmlns="http://www.w3.org/2000/svg">
<mask id="mask0_4_1389" style="mask-type:alpha" maskUnits="userSpaceOnUse" x="0" y="0" width="48" height="48">
<rect width="48" height="48" fill="#D9D9D9"/>
</mask>
<g mask="url(#mask0_4_1389)">
<path d="M7.79995 23.9501L19.35 7.20006C19.55 6.9334 19.7833 6.75006 20.05 6.65006C20.3166 6.55006 20.5833 6.55006 20.85 6.65006C21.1166 6.71673 21.35 6.86673 21.55 7.10006C21.75 7.3334 21.85 7.61673 21.85 7.95006V25.0001C21.85 25.5001 21.6666 25.9251 21.3 26.2751C20.9333 26.6251 20.5 26.8001 20 26.8001H9.29995C8.93328 26.8001 8.60828 26.7084 8.32495 26.5251C8.04162 26.3417 7.81662 26.1167 7.64995 25.8501C7.48328 25.5834 7.40828 25.2834 7.42495 24.9501C7.44162 24.6167 7.56662 24.2834 7.79995 23.9501ZM12.85 23.1501H18.2V15.1501L12.85 23.1501ZM27.45 26.8001C26.2833 26.8001 25.7583 26.3167 25.875 25.3501C25.9916 24.3834 26.1333 23.6001 26.3 23.0001C26.6 21.5667 26.825 20.1251 26.975 18.6751C27.125 17.2251 27.2 15.6667 27.2 14.0001C27.2 12.4001 27.125 10.8584 26.975 9.37506C26.825 7.89173 26.6 6.3834 26.3 4.85006C26.2 4.51673 26.2166 4.19173 26.35 3.87506C26.4833 3.5584 26.6666 3.30006 26.9 3.10006C27.1666 2.90006 27.4583 2.7834 27.775 2.75006C28.0916 2.71673 28.4 2.80006 28.7 3.00006C30.1 3.80006 31.5583 5.07506 33.075 6.82506C34.5916 8.57506 35.7999 10.1167 36.7 11.4501C38.0666 13.5501 39.1666 15.6834 40 17.8501C40.8333 20.0167 41.3833 22.3334 41.65 24.8001C41.6833 25.3667 41.525 25.8417 41.175 26.2251C40.825 26.6084 40.3833 26.8001 39.85 26.8001H27.45ZM29.85 23.1501H37.75C37.1833 20.6167 36.2333 18.1001 34.9 15.6001C33.5666 13.1001 32.1 11.0167 30.5 9.35006C30.6333 10.2167 30.725 11.0501 30.775 11.8501C30.825 12.6501 30.85 13.3667 30.85 14.0001C30.85 15.4667 30.7416 17.0584 30.525 18.7751C30.3083 20.4917 30.0833 21.9501 29.85 23.1501ZM18 37.8501C17.0333 37.8501 16.15 37.6167 15.35 37.1501C14.55 36.6834 13.7833 36.1501 13.05 35.5501C12.8833 35.4167 12.7166 35.3167 12.55 35.2501C12.3833 35.1834 12.2 35.1501 12 35.1501C11.8 35.1501 11.6083 35.1834 11.425 35.2501C11.2416 35.3167 11.0666 35.4001 10.9 35.5001C10.4 35.8667 9.89995 36.1917 9.39995 36.4751C8.89995 36.7584 8.36662 36.9834 7.79995 37.1501C7.23328 36.8167 6.64995 36.3001 6.04995 35.6001C5.44995 34.9001 4.94995 34.0834 4.54995 33.1501C4.31662 32.5834 4.32495 32.0251 4.57495 31.4751C4.82495 30.9251 5.29995 30.6501 5.99995 30.6501H42C42.5666 30.6501 43.0166 30.8834 43.35 31.3501C43.6833 31.8167 43.75 32.3334 43.55 32.9001C43.2833 33.7001 42.8 34.5251 42.1 35.3751C41.4 36.2251 40.7833 36.8167 40.25 37.1501C39.6166 36.9834 39.0583 36.7584 38.575 36.4751C38.0916 36.1917 37.6 35.8667 37.1 35.5001C36.9333 35.4001 36.7583 35.3167 36.575 35.2501C36.3916 35.1834 36.2 35.1501 36 35.1501C35.7999 35.1501 35.6166 35.1917 35.45 35.2751C35.2833 35.3584 35.1333 35.4501 35 35.5501C34.2333 36.1501 33.45 36.6834 32.65 37.1501C31.85 37.6167 30.9666 37.8501 30 37.8501C29.0666 37.8501 28.2 37.6251 27.4 37.1751C26.6 36.7251 25.8333 36.2001 25.1 35.6001C24.9333 35.4667 24.7583 35.3667 24.575 35.3001C24.3916 35.2334 24.2 35.2001 24 35.2001C23.8 35.2001 23.6083 35.2334 23.425 35.3001C23.2416 35.3667 23.0666 35.4667 22.9 35.6001C22.1666 36.2001 21.4 36.7251 20.6 37.1751C19.8 37.6251 18.9333 37.8501 18 37.8501ZM24 44.3501C23 45.1167 21.9916 45.6334 20.975 45.9001C19.9583 46.1667 18.9666 46.3001 18 46.3001C17.0333 46.3001 16.0416 46.1667 15.025 45.9001C14.0083 45.6334 13 45.1167 12 44.3501C10.9666 45.1501 9.93328 45.6751 8.89995 45.9251C7.86662 46.1751 6.73328 46.3001 5.49995 46.3001C4.99995 46.3001 4.57495 46.1251 4.22495 45.7751C3.87495 45.4251 3.69995 45.0001 3.69995 44.5001C3.69995 43.8001 3.96662 43.3834 4.49995 43.2501C5.03328 43.1167 5.53328 42.9167 5.99995 42.6501C6.93328 42.6501 7.81662 42.4751 8.64995 42.1251C9.48328 41.7751 10.2833 41.3334 11.05 40.8001C11.1833 40.7001 11.325 40.6251 11.475 40.5751C11.625 40.5251 11.8 40.5001 12 40.5001C12.2 40.5001 12.375 40.5251 12.525 40.5751C12.675 40.6251 12.8333 40.7001 13 40.8001C13.7666 41.3334 14.5583 41.7751 15.375 42.1251C16.1916 42.4751 17.0666 42.6501 18 42.6501C18.9333 42.6501 19.8166 42.4751 20.65 42.1251C21.4833 41.7751 22.2833 41.3334 23.05 40.8001C23.1833 40.7001 23.3333 40.6251 23.5 40.5751C23.6666 40.5251 23.8333 40.5001 24 40.5001C24.1666 40.5001 24.3333 40.5251 24.5 40.5751C24.6666 40.6251 24.8333 40.7001 25 40.8001C25.7666 41.3334 26.5583 41.7751 27.375 42.1251C28.1916 42.4751 29.0666 42.6501 30 42.6501C30.9333 42.6501 31.8166 42.4751 32.65 42.1251C33.4833 41.7751 34.2833 41.3334 35.05 40.8001C35.0833 40.7667 35.4 40.6667 36 40.5001C36.2 40.5001 36.5333 40.6001 37 40.8001C37.7333 41.3334 38.5166 41.7751 39.35 42.1251C40.1833 42.4751 41.0666 42.6501 42 42.6501C42.5999 42.6501 43.1416 42.7751 43.625 43.0251C44.1083 43.2751 44.35 43.7667 44.35 44.5001C44.35 45.2001 44.075 45.6167 43.525 45.7501C42.975 45.8834 42.4666 46.0667 42 46.3001C41.0333 46.3001 40.0416 46.1667 39.025 45.9001C38.0083 45.6334 37 45.1167 36 44.3501C35 45.1167 33.9916 45.6334 32.975 45.9001C31.9583 46.1667 30.9666 46.3001 30 46.3001C29.0333 46.3001 28.0416 46.1667 27.025 45.9001C26.0083 45.6334 25 45.1167 24 44.3501Z" fill="#0D4168"/>
</g>
</svg>
