<svg width="80" height="80" viewBox="0 0 80 80" fill="none" xmlns="http://www.w3.org/2000/svg">
<mask id="mask0_1123_990" style="mask-type:alpha" maskUnits="userSpaceOnUse" x="0" y="0" width="80" height="80">
<rect width="80" height="80" fill="#D9D9D9"/>
</mask>
<g mask="url(#mask0_1123_990)">
<path d="M15.628 38.5708L31.288 15.9099C31.6213 15.5083 31.9888 15.2136 32.3905 15.0258C32.7922 14.8374 33.2152 14.8266 33.6597 14.9933C34.0613 15.1044 34.4183 15.3544 34.7305 15.7433C35.0422 16.1322 35.198 16.583 35.198 17.0958V40.1924C35.198 40.983 34.9138 41.6486 34.3455 42.1891C33.7772 42.7297 33.0977 42.9999 32.3072 42.9999H17.9355C17.3672 42.9999 16.8575 42.8577 16.4063 42.5733C15.9558 42.2894 15.613 41.9252 15.378 41.4808C15.143 41.0791 15.0286 40.6219 15.0347 40.1091C15.0413 39.5963 15.2391 39.0836 15.628 38.5708ZM19.493 39.3524H31.5513V21.7883L19.493 39.3524ZM47.0955 42.9999C45.4505 42.9999 44.6611 42.3547 44.7272 41.0641C44.7933 39.7736 44.9225 38.6497 45.1147 37.6924C45.5297 35.5597 45.8727 33.3386 46.1438 31.0291C46.4155 28.7191 46.5513 26.3033 46.5513 23.7816C46.5513 21.0727 46.4263 18.5569 46.1763 16.2341C45.9263 13.9113 45.5938 11.6216 45.1788 9.36495C45.055 8.89495 45.0936 8.44966 45.2947 8.02911C45.4952 7.608 45.7686 7.27356 46.1147 7.02578C46.4741 6.73522 46.875 6.58355 47.3172 6.57078C47.7594 6.558 48.1877 6.71828 48.6022 7.05161C51.0211 8.64106 53.3341 10.7124 55.5413 13.2658C57.7486 15.8191 59.645 18.3352 61.2305 20.8141C62.9955 23.7586 64.455 26.8227 65.6088 30.0066C66.7627 33.1899 67.5619 36.4527 68.0063 39.7949C68.0619 40.6538 67.8086 41.4027 67.2463 42.0416C66.6847 42.6805 66.0019 42.9999 65.198 42.9999H47.0955ZM48.468 39.3524H64.2622C63.4461 34.233 61.7133 29.2586 59.0638 24.4291C56.4144 19.6002 53.0938 15.5405 49.1022 12.2499C49.4527 14.2499 49.723 16.2586 49.913 18.2758C50.103 20.293 50.198 22.1283 50.198 23.7816C50.198 26.1838 50.0175 28.7833 49.6563 31.5799C49.2952 34.3772 48.8991 36.968 48.468 39.3524ZM29.9997 63.2758C28.4313 63.2758 26.9697 62.9722 25.6147 62.3649C24.2602 61.7583 22.9505 61.0405 21.6855 60.2116C21.4505 60.0322 21.1941 59.9083 20.9163 59.84C20.6386 59.7716 20.3544 59.7374 20.0638 59.7374C19.7733 59.7802 19.4752 59.8572 19.1697 59.9683C18.8641 60.0794 18.6152 60.2183 18.423 60.3849C17.8458 60.7822 17.3116 61.1099 16.8205 61.3683C16.3288 61.6272 15.7602 61.8313 15.1147 61.9808C14.128 61.3824 13.1986 60.5427 12.3263 59.4616C11.4547 58.3805 10.6641 57.1261 9.95467 55.6983C9.52301 54.8394 9.52634 53.9838 9.96467 53.1316C10.4025 52.2788 11.1191 51.8525 12.1147 51.8525H67.8847C68.7863 51.8525 69.4936 52.2413 70.0063 53.0191C70.5191 53.7969 70.5661 54.6152 70.1472 55.4741C69.5316 56.7647 68.7475 58.0222 67.7947 59.2466C66.8413 60.4711 65.8991 61.3824 64.968 61.9808C64.3397 61.8313 63.7508 61.6166 63.2013 61.3366C62.6525 61.0566 62.1108 60.7394 61.5763 60.3849C61.3841 60.2183 61.1352 60.0794 60.8297 59.9683C60.5241 59.8572 60.2261 59.7802 59.9355 59.7374C59.645 59.7374 59.3608 59.7855 59.083 59.8816C58.8052 59.9777 58.5766 60.0877 58.3972 60.2116C57.0766 61.0405 55.7391 61.7583 54.3847 62.3649C53.0297 62.9722 51.568 63.2758 49.9997 63.2758C48.4013 63.2758 46.9141 62.9649 45.538 62.3433C44.1619 61.7211 42.82 60.9741 41.5122 60.1024C41.32 59.9658 41.0925 59.8524 40.8297 59.7624C40.5669 59.673 40.2902 59.6283 39.9997 59.6283C39.7091 59.6283 39.4325 59.673 39.1697 59.7624C38.9069 59.8524 38.6794 59.9658 38.4872 60.1024C37.1794 60.9741 35.8375 61.7211 34.4613 62.3433C33.0852 62.9649 31.598 63.2758 29.9997 63.2758ZM39.9997 72.5066C38.2475 73.6561 36.5241 74.4422 34.8297 74.8649C33.1352 75.2883 31.5252 75.4999 29.9997 75.4999C28.4741 75.4999 26.8641 75.2883 25.1697 74.8649C23.4752 74.4422 21.7519 73.6561 19.9997 72.5066C18.2347 73.6688 16.4911 74.4583 14.7688 74.8749C13.0466 75.2916 11.3286 75.4999 9.61467 75.4999C9.12356 75.4999 8.70384 75.3258 8.35551 74.9774C8.00717 74.6291 7.83301 74.2094 7.83301 73.7183C7.83301 73.0644 8.09579 72.7011 8.62134 72.6283C9.1469 72.5555 9.60634 72.2969 9.99967 71.8524C11.5552 71.8524 13.038 71.5822 14.448 71.0416C15.8586 70.5011 17.2669 69.8505 18.673 69.09C18.8097 68.9233 19.003 68.8197 19.253 68.7791C19.503 68.7386 19.7519 68.7183 19.9997 68.7183C20.2475 68.7183 20.4963 68.7386 20.7463 68.7791C20.9963 68.8197 21.2175 68.9233 21.4097 69.09C22.773 69.8505 24.1566 70.5011 25.5605 71.0416C26.9644 71.5822 28.4441 71.8524 29.9997 71.8524C31.5552 71.8524 33.038 71.5822 34.448 71.0416C35.8586 70.5011 37.2669 69.8505 38.673 69.09C38.8097 68.9233 39.0169 68.8197 39.2947 68.7791C39.5725 68.7386 39.8075 68.7183 39.9997 68.7183C40.1919 68.7183 40.4269 68.7386 40.7047 68.7791C40.9825 68.8197 41.2175 68.9233 41.4097 69.09C42.773 69.8505 44.1566 70.5011 45.5605 71.0416C46.9644 71.5822 48.4441 71.8524 49.9997 71.8524C51.5552 71.8524 53.038 71.5822 54.448 71.0416C55.8586 70.5011 57.2669 69.8505 58.673 69.09C58.6858 69.0344 59.128 68.9105 59.9997 68.7183C60.2475 68.7183 60.7175 68.8422 61.4097 69.09C62.7602 69.8505 64.1408 70.5011 65.5513 71.0416C66.9613 71.5822 68.4441 71.8524 69.9997 71.8524C70.6152 71.8524 71.1441 71.9861 71.5863 72.2533C72.0286 72.5205 72.2497 73.0088 72.2497 73.7183C72.2497 74.3716 71.973 74.7347 71.4197 74.8074C70.8663 74.8802 70.393 75.1111 69.9997 75.4999C68.4741 75.4999 66.8641 75.2883 65.1697 74.8649C63.4752 74.4422 61.7519 73.6561 59.9997 72.5066C58.2475 73.6561 56.5241 74.4422 54.8297 74.8649C53.1352 75.2883 51.5252 75.4999 49.9997 75.4999C48.4741 75.4999 46.8641 75.2883 45.1697 74.8649C43.4752 74.4422 41.7519 73.6561 39.9997 72.5066Z" fill="#E3891F"/>
</g>
</svg>
