<svg width="30" height="30" viewBox="0 0 30 30" fill="none" xmlns="http://www.w3.org/2000/svg">
<g clip-path="url(#clip0_4_2544)">
<path d="M14.5263 2.61587C18.4076 2.61587 18.8672 2.63289 20.3936 2.70099C21.8122 2.7634 22.5782 3.00173 23.0889 3.20033C23.7641 3.46135 24.2521 3.77911 24.7572 4.28413C25.2678 4.79482 25.5799 5.27714 25.841 5.95239C26.0396 6.46308 26.2779 7.23479 26.3403 8.6477C26.4084 10.1798 26.4254 10.6394 26.4254 14.515C26.4254 18.3962 26.4084 18.8558 26.3403 20.3822C26.2779 21.8008 26.0396 22.5669 25.841 23.0776C25.5799 23.7528 25.2622 24.2408 24.7572 24.7458C24.2465 25.2565 23.7641 25.5686 23.0889 25.8296C22.5782 26.0282 21.8065 26.2665 20.3936 26.3289C18.8615 26.397 18.4019 26.4141 14.5263 26.4141C10.6451 26.4141 10.1854 26.397 8.65905 26.3289C7.24046 26.2665 6.47442 26.0282 5.96373 25.8296C5.28849 25.5686 4.80049 25.2508 4.29548 24.7458C3.78479 24.2351 3.4727 23.7528 3.21168 23.0776C3.01308 22.5669 2.77475 21.7952 2.71234 20.3822C2.64424 18.8502 2.62722 18.3905 2.62722 14.515C2.62722 10.6337 2.64424 10.1741 2.71234 8.6477C2.77475 7.22911 3.01308 6.46308 3.21168 5.95239C3.4727 5.27714 3.79046 4.78914 4.29548 4.28413C4.80617 3.77344 5.28849 3.46135 5.96373 3.20033C6.47442 3.00173 7.24614 2.7634 8.65905 2.70099C10.1854 2.63289 10.6451 2.61587 14.5263 2.61587ZM14.5263 0C10.5826 0 10.089 0.017023 8.53989 0.0851151C6.99646 0.153207 5.93536 0.402878 5.01612 0.760362C4.05715 1.13487 3.24572 1.62854 2.43997 2.43997C1.62854 3.24572 1.13487 4.05716 0.760362 5.01044C0.402878 5.93536 0.153207 6.99079 0.0851151 8.53421C0.017023 10.089 0 10.5826 0 14.5263C0 18.47 0.017023 18.9637 0.0851151 20.5127C0.153207 22.0562 0.402878 23.1173 0.760362 24.0365C1.13487 24.9955 1.62854 25.8069 2.43997 26.6127C3.24572 27.4184 4.05716 27.9178 5.01044 28.2866C5.93536 28.6441 6.99079 28.8937 8.53421 28.9618C10.0833 29.0299 10.577 29.047 14.5206 29.047C18.4643 29.047 18.958 29.0299 20.5071 28.9618C22.0505 28.8937 23.1116 28.6441 24.0308 28.2866C24.9841 27.9178 25.7956 27.4184 26.6013 26.6127C27.4071 25.8069 27.9064 24.9955 28.2752 24.0422C28.6327 23.1173 28.8824 22.0618 28.9505 20.5184C29.0186 18.9693 29.0356 18.4757 29.0356 14.532C29.0356 10.5883 29.0186 10.0947 28.9505 8.54556C28.8824 7.00214 28.6327 5.94104 28.2752 5.02179C27.9178 4.05715 27.4241 3.24572 26.6127 2.43997C25.8069 1.63421 24.9955 1.13487 24.0422 0.766036C23.1173 0.408553 22.0618 0.158882 20.5184 0.0907895C18.9637 0.017023 18.47 0 14.5263 0Z" fill="#F2992F"/>
<path d="M14.5262 7.06445C10.4066 7.06445 7.06445 10.4066 7.06445 14.5262C7.06445 18.6458 10.4066 21.988 14.5262 21.988C18.6458 21.988 21.988 18.6458 21.988 14.5262C21.988 10.4066 18.6458 7.06445 14.5262 7.06445ZM14.5262 19.3664C11.8536 19.3664 9.686 17.1988 9.686 14.5262C9.686 11.8536 11.8536 9.686 14.5262 9.686C17.1988 9.686 19.3664 11.8536 19.3664 14.5262C19.3664 17.1988 17.1988 19.3664 14.5262 19.3664Z" fill="#F2992F"/>
<path d="M24.0251 6.76937C24.0251 7.73401 23.242 8.51139 22.283 8.51139C21.3184 8.51139 20.541 7.72833 20.541 6.76937C20.541 5.80473 21.3241 5.02734 22.283 5.02734C23.242 5.02734 24.0251 5.8104 24.0251 6.76937Z" fill="#F2992F"/>
</g>
<defs>
<clipPath id="clip0_4_2544">
<rect width="29.0526" height="29.0526" fill="white"/>
</clipPath>
</defs>
</svg>
