<svg width="927" height="175" viewBox="0 0 927 175" fill="none" xmlns="http://www.w3.org/2000/svg">
<path d="M92.2558 0.832707C68.0317 2.18738 43.3303 5.37565 18.0322 10.8354C11.9463 12.149 5.94001 13.7089 0 15.3783C2.02862 23.3148 4.22961 31.1828 6.62948 38.9688C32.1795 34.9869 58.6046 33.9332 84.5789 36.0952C86.6473 36.2458 92.6005 36.8205 92.2426 39.2014C67.1831 43.5254 39.9492 51.7082 14.6511 62.915C18.6421 73.9576 23.0043 84.8224 27.7112 95.4819C122.34 67.6222 235.864 139.16 319.13 166.171C419.394 198.67 554.251 211.491 658.891 184.015C661.953 183.194 669.551 181.606 670.532 179.034C597.767 172.383 530.663 146.193 470.547 115.227C459.993 109.836 438.513 99.6691 430.518 93.4567C427.23 90.9116 426.116 91.3494 430.465 88.5991C493.591 112.627 557.088 137.34 626.141 149.956C729.866 168.867 822.678 155.019 903.73 119.921C912.455 102.72 920.238 84.9455 927.026 66.6506C793.164 108.933 654.144 107.77 514.328 79.8826C375.268 52.1187 248.672 -3.79234 106.933 0.203263L92.2558 0.832707Z" fill="white"/>
<path d="M92.2558 0.832707C68.0317 2.18738 43.3303 5.37565 18.0322 10.8354C11.9463 12.149 5.94001 13.7089 0 15.3783C2.02862 23.3148 4.22961 31.1828 6.62948 38.9688C32.1795 34.9869 58.6046 33.9332 84.5789 36.0952C86.6473 36.2458 92.6005 36.8205 92.2426 39.2014C67.1831 43.5254 39.9492 51.7082 14.6511 62.915C18.6421 73.9576 23.0043 84.8224 27.7112 95.4819C122.34 67.6222 235.864 139.16 319.13 166.171C419.394 198.67 554.251 211.491 658.891 184.015C661.953 183.194 669.551 181.606 670.532 179.034C597.767 172.383 530.663 146.193 470.547 115.227C459.993 109.836 438.513 99.6691 430.518 93.4567C427.23 90.9116 426.116 91.3494 430.465 88.5991C493.591 112.627 557.088 137.34 626.141 149.956C729.866 168.867 822.678 155.019 903.73 119.921C912.455 102.72 920.238 84.9455 927.026 66.6506C793.164 108.933 654.144 107.77 514.328 79.8826C375.268 52.1187 248.672 -3.79234 106.933 0.203263L92.2558 0.832707Z" fill="#F2EAD6" fill-opacity="0.5"/>
</svg>
