<svg width="30" height="30" viewBox="0 0 30 30" fill="none" xmlns="http://www.w3.org/2000/svg">
<g clip-path="url(#clip0_4_2545)">
<path d="M26.9021 0H2.1449C0.958964 0 0 0.936267 0 2.09383V26.9531C0 28.1107 0.958964 29.0526 2.1449 29.0526H26.9021C28.088 29.0526 29.0526 28.1107 29.0526 26.9588V2.09383C29.0526 0.936267 28.088 0 26.9021 0ZM8.61933 24.7572H4.30683V10.8891H8.61933V24.7572ZM6.46308 8.99951C5.07854 8.99951 3.96069 7.88166 3.96069 6.5028C3.96069 5.12393 5.07854 4.00609 6.46308 4.00609C7.84194 4.00609 8.95979 5.12393 8.95979 6.5028C8.95979 7.87599 7.84194 8.99951 6.46308 8.99951ZM24.7572 24.7572H20.4503V18.016C20.4503 16.4102 20.422 14.3391 18.209 14.3391C15.9676 14.3391 15.6271 16.0924 15.6271 17.9025V24.7572H11.326V10.8891H15.4569V12.7843H15.5137C16.0868 11.6948 17.494 10.5429 19.5878 10.5429C23.9514 10.5429 24.7572 13.4141 24.7572 17.1479V24.7572Z" fill="#F2992F"/>
</g>
<defs>
<clipPath id="clip0_4_2545">
<rect width="29.0526" height="29.0526" fill="white"/>
</clipPath>
</defs>
</svg>
