<svg width="24" height="24" viewBox="0 0 24 24" fill="none" xmlns="http://www.w3.org/2000/svg">
<mask id="mask0_4_1547" style="mask-type:alpha" maskUnits="userSpaceOnUse" x="0" y="0" width="24" height="24">
<rect width="24" height="24" fill="#D9D9D9"/>
</mask>
<g mask="url(#mask0_4_1547)">
<path d="M4.1577 20.25C3.47387 20.25 2.89328 20.0113 2.41595 19.534C1.93862 19.0567 1.69995 18.4761 1.69995 17.7923V6.20775C1.69995 5.52392 1.93862 4.94333 2.41595 4.466C2.89328 3.98867 3.47387 3.75 4.1577 3.75H19.8422C20.526 3.75 21.1066 3.98867 21.584 4.466C22.0613 4.94333 22.3 5.52392 22.3 6.20775V17.7923C22.3 18.4761 22.0613 19.0567 21.584 19.534C21.1066 20.0113 20.526 20.25 19.8422 20.25H4.1577ZM20.15 8.04225L12.6365 12.727C12.5388 12.7872 12.4375 12.8339 12.3325 12.8673C12.2275 12.9006 12.1166 12.9173 12 12.9173C11.8833 12.9173 11.7725 12.9006 11.6675 12.8673C11.5625 12.8339 11.4611 12.7872 11.3635 12.727L3.84995 8.04225V17.7923C3.84995 17.8821 3.87878 17.9558 3.93645 18.0135C3.99412 18.0712 4.06787 18.1 4.1577 18.1H19.8422C19.932 18.1 20.0058 18.0712 20.0635 18.0135C20.1211 17.9558 20.15 17.8821 20.15 17.7923V8.04225ZM12 11L20.1962 5.9H3.8037L12 11ZM3.84995 8.223V6.671V6.7095V6.65275V8.223Z" fill="#F2992F"/>
</g>
</svg>
