<svg width="149" height="32" viewBox="0 0 149 32" fill="none" xmlns="http://www.w3.org/2000/svg">
<g clip-path="url(#clip0_1_172)">
<path d="M14.8313 0.134269C10.9377 0.352106 6.96731 0.864792 2.90106 1.74274C1.92286 1.95398 0.957445 2.20482 0.00268555 2.47326C0.328753 3.74948 0.682525 5.01469 1.06827 6.2667C5.17501 5.6264 9.42241 5.45697 13.5973 5.80463C13.9298 5.82883 14.8867 5.92125 14.8292 6.30411C10.8013 6.99943 6.42387 8.31525 2.35762 10.1174C2.9991 11.8931 3.70025 13.6401 4.45681 15.3542C19.6669 10.8743 37.9139 22.3778 51.2976 26.7214C67.4134 31.9472 89.0894 34.009 105.909 29.5906C106.401 29.4586 107.622 29.2034 107.78 28.7897C96.0839 27.7203 85.2981 23.5088 75.6354 18.5294C73.939 17.6624 70.4865 16.0276 69.2014 15.0286C68.6729 14.6193 68.4939 14.6897 69.1929 14.2475C79.3393 18.1113 89.5455 22.0852 100.645 24.1139C117.317 27.1548 132.235 24.9281 145.262 19.2841C146.665 16.5182 147.916 13.66 149.007 10.7181C127.491 17.5172 105.146 17.3302 82.6725 12.8458C60.3209 8.38126 39.9726 -0.609457 17.1905 0.0330518L14.8313 0.134269Z" fill="#00C6DB" fill-opacity="0.4"/>
</g>
<defs>
<clipPath id="clip0_1_172">
<rect width="149" height="32" fill="white"/>
</clipPath>
</defs>
</svg>
