<svg width="927" height="186" viewBox="0 0 927 186" fill="none" xmlns="http://www.w3.org/2000/svg">
<g clip-path="url(#clip0_4_1191)">
<path d="M92.2729 0.835148C68.0488 2.18982 43.3474 5.37809 18.0493 10.8378C11.9634 12.1515 5.9571 13.7114 0.0170898 15.3808C2.04571 23.3172 4.2467 31.1853 6.64657 38.9712C32.1966 34.9893 58.6217 33.9357 84.596 36.0977C86.6644 36.2482 92.6176 36.8229 92.2596 39.2038C67.2002 43.5279 39.9663 51.7106 14.6682 62.9175C18.6592 73.9601 23.0214 84.8248 27.7283 95.4843C122.357 67.6246 235.881 139.162 319.147 166.174C419.411 198.672 554.268 211.494 658.908 184.017C661.97 183.196 669.568 181.609 670.549 179.036C597.784 172.386 530.68 146.196 470.564 115.23C460.01 109.838 438.53 99.6715 430.535 93.4592C427.247 90.914 426.133 91.3519 430.482 88.6015C493.608 112.63 557.105 137.342 626.158 149.959C729.883 168.869 822.695 155.021 903.747 119.923C912.472 102.723 920.255 84.948 927.043 66.6531C793.181 108.935 654.161 107.772 514.345 79.8851C375.285 52.1211 248.689 -3.78989 106.951 0.205705L92.2729 0.835148Z" fill="white"/>
</g>
<defs>
<clipPath id="clip0_4_1191">
<rect width="927" height="199" fill="white"/>
</clipPath>
</defs>
</svg>
