<svg width="24" height="24" viewBox="0 0 24 24" fill="none" xmlns="http://www.w3.org/2000/svg">
<mask id="mask0_4_1538" style="mask-type:alpha" maskUnits="userSpaceOnUse" x="0" y="0" width="24" height="24">
<rect width="24" height="24" fill="#D9D9D9"/>
</mask>
<g mask="url(#mask0_4_1538)">
<path d="M20.2367 21.3002C18.1045 21.3002 15.9875 20.8329 13.8855 19.8982C11.7836 18.9635 9.8612 17.6274 8.1182 15.8897C6.37537 14.1519 5.03662 12.2294 4.10195 10.1222C3.16728 8.0152 2.69995 5.89561 2.69995 3.76345C2.69995 3.42495 2.79162 3.16311 2.97495 2.97794C3.15828 2.79278 3.41662 2.7002 3.74995 2.7002H7.96145C8.22045 2.7002 8.44903 2.78261 8.6472 2.94745C8.8452 3.11211 8.97879 3.31561 9.04795 3.55795L9.7212 7.2502C9.76087 7.48986 9.75253 7.70778 9.6962 7.90395C9.6397 8.10011 9.55503 8.2482 9.4422 8.3482L6.9077 10.8464C7.2627 11.4771 7.66653 12.0794 8.1192 12.6532C8.5717 13.2269 9.0762 13.7983 9.6327 14.3674C10.1647 14.8829 10.7147 15.3634 11.2827 15.8089C11.8507 16.2544 12.443 16.6548 13.0597 17.0099L15.7037 14.4464C15.8435 14.3003 15.9881 14.2069 16.1375 14.1664C16.2868 14.1261 16.4461 14.1226 16.6155 14.1559L20.3922 14.9714C20.6447 15.0381 20.8591 15.1669 21.0355 15.3579C21.2118 15.5489 21.3 15.7656 21.3 16.0079V20.2502C21.3 20.5835 21.2074 20.8419 21.0222 21.0252C20.837 21.2085 20.5752 21.3002 20.2367 21.3002ZM5.89795 8.8272L7.4827 7.31945C7.5147 7.29378 7.53553 7.25853 7.5452 7.2137C7.55487 7.16886 7.55328 7.12719 7.54045 7.0887L7.1307 5.00395C7.11787 4.95278 7.09545 4.91436 7.06345 4.88869C7.03145 4.86303 6.98978 4.8502 6.93845 4.8502H5.07495C5.03645 4.8502 5.00437 4.86303 4.9787 4.88869C4.9532 4.91436 4.94045 4.94645 4.94045 4.98495C4.99162 5.70161 5.09928 6.36245 5.26345 6.96745C5.42745 7.57261 5.63895 8.19253 5.89795 8.8272ZM15.098 18.0694C15.7275 18.3618 16.3771 18.5855 17.047 18.7407C17.717 18.8957 18.373 19.0053 19.0152 19.0694C19.0537 19.1028 19.0858 19.0983 19.1115 19.0559C19.1371 19.0136 19.15 18.9732 19.15 18.9347V17.0309C19.15 16.9796 19.1371 16.9379 19.1115 16.9059C19.0858 16.8739 19.0474 16.8515 18.9962 16.8387L16.8962 16.3867C16.8577 16.3739 16.824 16.3723 16.7952 16.3819C16.7664 16.3916 16.7359 16.4124 16.7037 16.4444L15.098 18.0694Z" fill="#F2992F"/>
</g>
</svg>
