<svg width="40" height="40" viewBox="0 0 40 40" fill="none" xmlns="http://www.w3.org/2000/svg">
<mask id="mask0_75_560" style="mask-type:alpha" maskUnits="userSpaceOnUse" x="0" y="0" width="40" height="40">
<rect width="40" height="40" fill="#D9D9D9"/>
</mask>
<g mask="url(#mask0_75_560)">
<path d="M10.3577 19.6345L15.926 25.2029C16.1882 25.4765 16.3159 25.8104 16.3089 26.2045C16.3023 26.5987 16.1662 26.924 15.9006 27.1804C15.6092 27.4659 15.2685 27.6055 14.8785 27.5991C14.4885 27.5927 14.1653 27.4486 13.9089 27.1666L6.12144 19.39C5.78755 19.0558 5.62061 18.668 5.62061 18.2266C5.62061 17.785 5.78755 17.397 6.12144 17.0629L13.9402 9.21704C14.2149 8.96066 14.5403 8.82968 14.9164 8.82413C15.2926 8.81885 15.6263 8.94982 15.9177 9.21704C16.1905 9.49899 16.3338 9.83454 16.3477 10.2237C16.3616 10.6129 16.2228 10.9438 15.9314 11.2166L10.3577 16.8183H26.7389C29.0609 16.8183 31.0274 17.6198 32.6385 19.2229C34.2496 20.8257 35.0552 22.7962 35.0552 25.1345V30.3C35.0552 30.7038 34.9192 31.0419 34.6473 31.3141C34.3751 31.5861 34.0463 31.722 33.661 31.722C33.2571 31.722 32.9192 31.5861 32.6473 31.3141C32.3751 31.0419 32.2389 30.7038 32.2389 30.3V25.1345C32.2389 23.5776 31.7092 22.2716 30.6498 21.2166C29.5903 20.1619 28.2867 19.6345 26.7389 19.6345H10.3577Z" fill="#0D4168"/>
</g>
</svg>
