<svg width="48" height="48" viewBox="0 0 48 48" fill="none" xmlns="http://www.w3.org/2000/svg">
<mask id="mask0_4_1444" style="mask-type:alpha" maskUnits="userSpaceOnUse" x="0" y="0" width="48" height="48">
<rect width="48" height="48" fill="#D9D9D9"/>
</mask>
<g mask="url(#mask0_4_1444)">
<path d="M20.7001 40.8001C19.8751 40.8001 19.1689 40.5063 18.5816 39.9186C17.9939 39.3313 17.7001 38.6251 17.7001 37.8001V31.1501C17.7001 30.3721 17.9939 29.6859 18.5816 29.0916C19.1689 28.4973 19.8751 28.2001 20.7001 28.2001H27.3501C28.1281 28.2001 28.8143 28.4973 29.4086 29.0916C30.0029 29.6859 30.3001 30.3721 30.3001 31.1501V37.8001C30.3001 38.6251 30.0029 39.3313 29.4086 39.9186C28.8143 40.5063 28.1281 40.8001 27.3501 40.8001H20.7001ZM21.3501 37.1501H26.6501V31.8501H21.3501V37.1501ZM4.85011 24.5501C4.43844 24.8834 3.98561 25.0168 3.49161 24.9501C2.99727 24.8834 2.60011 24.6334 2.30011 24.2001C1.96677 23.8334 1.83244 23.3969 1.89711 22.8906C1.96211 22.3843 2.21311 21.9708 2.65011 21.6501L21.8001 6.9001C22.1361 6.63343 22.4901 6.43343 22.8621 6.3001C23.2341 6.16676 23.6134 6.1001 24.0001 6.1001C24.3868 6.1001 24.7661 6.16676 25.1381 6.3001C25.5101 6.43343 25.8641 6.63343 26.2001 6.9001L32.8001 11.9001V10.0001C32.8001 9.22243 33.0653 8.56127 33.5956 8.0166C34.1259 7.47227 34.7961 7.2001 35.6061 7.2001C36.4161 7.2001 37.0926 7.47227 37.6356 8.0166C38.1786 8.56127 38.4501 9.22243 38.4501 10.0001V16.3156L45.4001 21.6501C45.7884 21.9818 46.0188 22.3981 46.0911 22.8991C46.1638 23.3998 46.0501 23.8418 45.7501 24.2251C45.4168 24.6418 45.0029 24.8834 44.5086 24.9501C44.0146 25.0168 43.5618 24.8834 43.1501 24.5501L24.0001 9.8001L4.85011 24.5501Z" fill="#0D4168"/>
</g>
</svg>
