<svg width="80" height="80" viewBox="0 0 80 80" fill="none" xmlns="http://www.w3.org/2000/svg">
<mask id="mask0_1123_1008" style="mask-type:alpha" maskUnits="userSpaceOnUse" x="0" y="0" width="80" height="80">
<rect width="80" height="80" fill="#D9D9D9"/>
</mask>
<g mask="url(#mask0_1123_1008)">
<path d="M35.0762 64.6666C33.8295 64.6666 32.7487 64.2091 31.8337 63.2941C30.9187 62.3791 30.4612 61.2982 30.4612 60.0516V50.1216C30.4612 48.9533 30.9187 47.9058 31.8337 46.9791C32.7487 46.053 33.8295 45.5899 35.0762 45.5899H45.0062C46.1745 45.5899 47.2217 46.053 48.1478 46.9791C49.0745 47.9058 49.5378 48.9533 49.5378 50.1216V60.0516C49.5378 61.2982 49.0745 62.3791 48.1478 63.2941C47.2217 64.2091 46.1745 64.6666 45.0062 64.6666H35.0762ZM36.1595 61.0191H43.8395C44.3951 61.0191 44.8756 60.8269 45.2812 60.4424C45.6873 60.0574 45.8903 59.566 45.8903 58.9683V51.2882C45.8903 50.7327 45.6873 50.2519 45.2812 49.8457C44.8756 49.4402 44.3951 49.2374 43.8395 49.2374H36.1595C35.6039 49.2374 35.1234 49.4402 34.7178 49.8457C34.3117 50.2519 34.1087 50.7327 34.1087 51.2882V58.9683C34.1087 59.566 34.3117 60.0574 34.7178 60.4424C35.1234 60.8269 35.6039 61.0191 36.1595 61.0191ZM8.98033 39.8266C8.59367 40.126 8.14867 40.2521 7.64533 40.2049C7.142 40.1582 6.74728 39.9232 6.46117 39.4999C6.11894 39.1455 5.97005 38.7171 6.0145 38.2149C6.05839 37.7127 6.31617 37.3013 6.78783 36.9807L36.5895 14.5766C37.1495 14.1749 37.7181 13.8738 38.2953 13.6732C38.872 13.4721 39.4401 13.3716 39.9995 13.3716C40.5589 13.3716 41.127 13.4721 41.7037 13.6732C42.2809 13.8738 42.8495 14.1749 43.4095 14.5766L54.987 23.1666V18.5899C54.987 17.6782 55.3006 16.9074 55.9278 16.2774C56.555 15.648 57.33 15.3332 58.2528 15.3332C59.2184 15.3332 60.0148 15.648 60.642 16.2774C61.2692 16.9074 61.5828 17.6782 61.5828 18.5899V28.1541L73.2945 36.9807C73.6851 37.3202 73.9195 37.7363 73.9978 38.2291C74.0756 38.7219 73.9714 39.1594 73.6853 39.5416C73.3437 39.9371 72.9212 40.1582 72.4178 40.2049C71.9145 40.2521 71.4695 40.126 71.0828 39.8266L41.2178 17.4874C40.8756 17.2307 40.4695 17.1024 39.9995 17.1024C39.5295 17.1024 39.1234 17.2307 38.7812 17.4874L8.98033 39.8266Z" fill="#E3891F"/>
</g>
</svg>
