<svg width="32" height="31" viewBox="0 0 32 31" fill="none" xmlns="http://www.w3.org/2000/svg">
<path d="M13.9184 1.38194C14.5171 -0.460685 17.124 -0.460689 17.7227 1.38193L20.0863 8.65651C20.3541 9.48055 21.122 10.0385 21.9884 10.0385H29.6374C31.5748 10.0385 32.3804 12.5177 30.8129 13.6565L24.6248 18.1524C23.9238 18.6617 23.6305 19.5645 23.8983 20.3885L26.2619 27.6631C26.8606 29.5057 24.7517 31.038 23.1843 29.8992L16.9961 25.4032C16.2952 24.8939 15.346 24.8939 14.645 25.4032L8.45687 29.8992C6.88944 31.038 4.78047 29.5057 5.37918 27.6631L7.74283 20.3885C8.01058 19.5645 7.71726 18.6617 7.01629 18.1524L0.828168 13.6565C-0.739259 12.5177 0.0662909 10.0385 2.00374 10.0385H9.65268C10.5191 10.0385 11.287 9.48055 11.5548 8.65651L13.9184 1.38194Z" fill="#F2992F"/>
</svg>
