<svg width="40" height="40" viewBox="0 0 40 40" fill="none" xmlns="http://www.w3.org/2000/svg">
<mask id="mask0_126_91" style="mask-type:alpha" maskUnits="userSpaceOnUse" x="0" y="0" width="40" height="40">
<rect width="40" height="40" fill="#D9D9D9"/>
</mask>
<g mask="url(#mask0_126_91)">
<path d="M6.11117 30C5.36117 30 4.71061 29.7246 4.1595 29.1738C3.60867 28.6226 3.33325 27.9721 3.33325 27.2221V12.7779C3.33325 12.0462 3.60867 11.4004 4.1595 10.8404C4.71061 10.2801 5.36117 10 6.11117 10H33.8887C34.6387 10 35.2892 10.2801 35.8403 10.8404C36.3912 11.4004 36.6666 12.0462 36.6666 12.7779V27.2221C36.6666 27.9721 36.3912 28.6226 35.8403 29.1738C35.2892 29.7246 34.6387 30 33.8887 30H6.11117ZM6.11117 27.2221H33.8887V12.7779H28.6112V20H25.8333V12.7779H21.3887V20H18.6112V12.7779H14.1666V20H11.3887V12.7779H6.11117V27.2221Z" fill="#00C6DB"/>
</g>
</svg>
