<svg width="80" height="80" viewBox="0 0 80 80" fill="none" xmlns="http://www.w3.org/2000/svg">
<mask id="mask0_1123_1020" style="mask-type:alpha" maskUnits="userSpaceOnUse" x="0" y="0" width="80" height="80">
<rect width="80" height="80" fill="#D9D9D9"/>
</mask>
<g mask="url(#mask0_1123_1020)">
<path d="M40.0107 71.3334C35.7157 71.3334 31.6493 70.5179 27.8115 68.8868C23.9743 67.2556 20.6404 65.0262 17.8098 62.1984C14.9793 59.3706 12.7479 56.0395 11.1157 52.2051C9.48289 48.3712 8.6665 44.3065 8.6665 40.0109C8.6665 35.7159 9.48206 31.6495 11.1132 27.8117C12.7443 23.9745 14.9737 20.6406 17.8015 17.8101C20.6293 14.9795 23.9604 12.7481 27.7948 11.1159C31.6287 9.48314 35.6934 8.66675 39.989 8.66675C44.284 8.66675 48.3504 9.4823 52.1882 11.1134C56.0254 12.7445 59.3593 14.974 62.1898 17.8017C65.0204 20.6295 67.2518 23.9606 68.884 27.7951C70.5168 31.629 71.3332 35.6937 71.3332 39.9892C71.3332 44.2842 70.5176 48.3506 68.8865 52.1884C67.2554 56.0256 65.026 59.3595 62.1982 62.1901C59.3704 65.0206 56.0393 67.252 52.2048 68.8842C48.371 70.517 44.3062 71.3334 40.0107 71.3334ZM30.0898 65.9551L35.929 52.3592C34.0285 51.6376 32.3621 50.594 30.9298 49.2284C29.4976 47.8623 28.4162 46.1923 27.6857 44.2184L13.9165 49.7434C15.4787 53.5506 17.6448 56.854 20.4148 59.6534C23.1854 62.4529 26.4104 64.5534 30.0898 65.9551ZM27.6665 35.8018C28.2265 33.7718 29.2318 32.074 30.6823 30.7084C32.1334 29.3429 33.8332 28.3354 35.7815 27.6859L30.2565 13.9167C26.2348 15.4679 22.8437 17.6379 20.0832 20.4267C17.3226 23.2151 15.2671 26.4981 13.9165 30.2759L27.6665 35.8018ZM39.9748 49.3909C42.5815 49.3909 44.8023 48.4815 46.6373 46.6626C48.4729 44.8437 49.3907 42.6312 49.3907 40.0251C49.3907 37.4184 48.4812 35.1976 46.6623 33.3626C44.8435 31.527 42.6309 30.6092 40.0248 30.6092C37.4182 30.6092 35.1973 31.5187 33.3623 33.3376C31.5268 35.1565 30.609 37.369 30.609 39.9751C30.609 42.5817 31.5184 44.8026 33.3373 46.6376C35.1562 48.4731 37.3687 49.3909 39.9748 49.3909ZM49.974 65.9551C53.594 64.4851 56.7948 62.3698 59.5765 59.6092C62.3587 56.8487 64.4848 53.6156 65.9548 49.9101L52.359 44.0901C51.6707 46.0773 50.6365 47.7717 49.2565 49.1734C47.876 50.5751 46.2112 51.622 44.2623 52.3143L49.974 65.9551ZM52.314 35.6542L65.9548 30.0259C64.4737 26.3637 62.3557 23.1384 59.6007 20.3501C56.8457 17.5612 53.6368 15.4595 49.974 14.0451L44.3648 27.7692C46.1243 28.4709 47.7065 29.4881 49.1115 30.8209C50.516 32.1542 51.5835 33.7654 52.314 35.6542Z" fill="#E3891F"/>
</g>
</svg>
