<svg width="48" height="48" viewBox="0 0 48 48" fill="none" xmlns="http://www.w3.org/2000/svg">
<mask id="mask0_4_1432" style="mask-type:alpha" maskUnits="userSpaceOnUse" x="0" y="0" width="48" height="48">
<rect width="48" height="48" fill="#D9D9D9"/>
</mask>
<g mask="url(#mask0_4_1432)">
<path d="M24 44.8C21.1453 44.8 18.4456 44.258 15.901 43.174C13.3563 42.09 11.1453 40.6093 9.26795 38.732C7.39062 36.8546 5.90995 34.6436 4.82595 32.099C3.74195 29.5543 3.19995 26.8546 3.19995 24C3.19995 21.1453 3.74195 18.4456 4.82595 15.901C5.90995 13.3563 7.39062 11.1453 9.26795 9.26795C11.1453 7.39062 13.3563 5.90995 15.901 4.82595C18.4456 3.74195 21.1453 3.19995 24 3.19995C26.8546 3.19995 29.5543 3.74195 32.099 4.82595C34.6436 5.90995 36.8546 7.39062 38.732 9.26795C40.6093 11.1453 42.09 13.3563 43.174 15.901C44.258 18.4456 44.8 21.1453 44.8 24C44.8 26.8546 44.258 29.5543 43.174 32.099C42.09 34.6436 40.6093 36.8546 38.732 38.732C36.8546 40.6093 34.6436 42.09 32.099 43.174C29.5543 44.258 26.8546 44.8 24 44.8ZM17.9 40.15L20.75 33.3C19.3833 32.8 18.1666 32.0416 17.1 31.025C16.0333 30.0083 15.2166 28.7666 14.65 27.3L7.84995 30C8.88962 32.3866 10.2663 34.4583 11.98 36.215C13.6933 37.9716 15.6666 39.2833 17.9 40.15ZM14.6 20.75C15.1666 19.25 15.975 17.975 17.025 16.925C18.075 15.875 19.3 15.1166 20.7 14.65L18 7.84995C15.4333 8.88329 13.2833 10.275 11.55 12.025C9.81662 13.775 8.58329 15.7833 7.84995 18.05L14.6 20.75ZM23.994 30.25C25.7313 30.25 27.2083 29.6436 28.425 28.431C29.6416 27.2183 30.25 25.7433 30.25 24.006C30.25 22.2686 29.6436 20.7916 28.431 19.575C27.2183 18.3583 25.7433 17.75 24.006 17.75C22.2686 17.75 20.7916 18.3563 19.575 19.569C18.3583 20.7816 17.75 22.2566 17.75 23.994C17.75 25.7313 18.3563 27.2083 19.569 28.425C20.7816 29.6416 22.2566 30.25 23.994 30.25ZM30.1 40.15C32.4 39.2166 34.4166 37.8833 36.15 36.15C37.8833 34.4166 39.2166 32.4 40.15 30.1L33.3 27.3C32.7333 28.8 31.9333 30.0666 30.9 31.1C29.8666 32.1333 28.65 32.8833 27.25 33.35L30.1 40.15ZM33.35 20.7L40.15 17.9C39.21 15.6003 37.875 13.5753 36.145 11.825C34.415 10.075 32.4 8.74995 30.1 7.84995L27.35 14.7C28.7133 15.1723 29.9125 15.9238 30.9475 16.9545C31.9825 17.9848 32.7833 19.2333 33.35 20.7Z" fill="#0D4168"/>
</g>
</svg>
